#N canvas 541 49 535 68 10;
#X declare -path ../../fd_lib-master;
#X declare -stdlib cyclone;
#X declare -stdlib Gem;
#X declare -path ./lib;
#X obj 278 36 tgl 15 0 empty status status 17 7 0 10 -262144 -1 -1
0 1;
#X obj 162 36 bng 15 250 50 0 perform perform-set perform 17 7 0 10
-262144 -1 -1;
#X obj 231 36 tgl 15 0 auto auto-set auto 17 7 0 10 -262144 -1 -1 0
1;
#X obj 11 6 cnv 15 512 15 empty imgfft-path-set PATH:/Users/nyu/Desktop/fid-master-4/fd_imgfft
5 7 0 10 -233017 -66577 0;
#X obj 94 37 nbx 5 14 -1e+06 1e+10 0 0 image image-set image 0 -8 0
10 -262144 -1 -1 0 256;
#X obj 12 36 bng 15 250 50 0 edit-path edit-path-set edit-path 17 7
0 10 -262144 -1 -1;
#N canvas 542 147 147 260 guts 0;
#N canvas 690 149 272 201 gemwin 0;
#X obj 18 163 gemwin;
#X obj 18 125 t a a;
#X obj 78 142 route frame;
#X obj 78 164 s frame;
#X obj 18 5 r gemwin-load;
#X msg 18 39 0 \, destroy \, reset \, dimen 512 512 \, offset 20 22
\, color 0.5 0.5 0.5 \, frame 3 \, create \, 1, f 20;
#X connect 1 0 0 0;
#X connect 1 1 2 0;
#X connect 2 0 3 0;
#X connect 4 0 5 0;
#X connect 5 0 1 0;
#X restore 9 29 pd gemwin ----------;
#N canvas 691 148 240 396 onload 0;
#X obj 19 297 t b b;
#X obj 28 331 bng 15 250 50 0 empty empty empty 17 7 0 10 -262144 -1
-1;
#N canvas 966 148 271 369 default 0;
#X obj 24 12 inlet;
#X obj 72 94 until;
#X obj 72 138 list append;
#X obj 72 160 t a a;
#X obj 24 34 t b b b;
#X obj 25 212 list;
#X obj 59 296 t a a;
#X obj 90 22 bng 15 250 50 0 empty empty empty 17 7 0 10 -262144 -1
-1;
#X obj 44 325 route bang;
#X obj 129 246 list trim;
#X msg 72 116 list *;
#X obj 25 181 t b b b;
#X obj 68 227 list;
#X obj 25 265 list split 3;
#X msg 72 72 15;
#X msg 124 176 Warning: must have a folder called <imgfft> next to
main.pd, f 17;
#X obj 129 268 s printer, f 10;
#X connect 0 0 4 0;
#X connect 1 0 10 0;
#X connect 2 0 3 0;
#X connect 3 0 9 0;
#X connect 3 0 5 1;
#X connect 3 0 12 1;
#X connect 3 1 2 1;
#X connect 4 0 11 0;
#X connect 4 1 2 1;
#X connect 4 2 14 0;
#X connect 5 0 13 0;
#X connect 6 0 13 0;
#X connect 6 1 8 0;
#X connect 7 0 4 0;
#X connect 8 1 9 0;
#X connect 9 0 16 0;
#X connect 10 0 2 0;
#X connect 11 0 5 0;
#X connect 11 1 12 0;
#X connect 11 2 15 0;
#X connect 12 0 9 0;
#X connect 13 1 6 0;
#X connect 14 0 1 0;
#X connect 15 0 9 0;
#X restore 56 327 pd default paths;
#N canvas 964 148 238 447 preload 0;
#X obj 31 191 s image-preload;
#X obj 31 99 int 400;
#X obj 70 56 r total-images;
#X obj 52 122 r imgfft;
#X obj 31 145 list;
#X msg 31 168 list open \$2/../img/*.jpg \$1;
#X obj 31 11 inlet;
#X obj 31 33 del 250;
#X obj 31 238 f;
#X obj 70 79 t f f;
#X obj 31 217 r loaded-images;
#X obj 78 11 r re-preload-images;
#X obj 75 239 r start-number;
#X obj 31 261 pack f 0;
#X msg 31 288 \; printer ****** \, succesfully loaded \$1 images \,
now starting with image \$2 \, *** \, NOTE: click on the images on
the screen to see them fullsize \, *** \; image-set \$2 \;, f 21;
#X connect 1 0 4 0;
#X connect 2 0 9 0;
#X connect 3 0 4 1;
#X connect 4 0 5 0;
#X connect 5 0 0 0;
#X connect 6 0 7 0;
#X connect 7 0 1 0;
#X connect 8 0 13 0;
#X connect 9 0 1 1;
#X connect 9 1 8 1;
#X connect 10 0 8 0;
#X connect 11 0 7 0;
#X connect 12 0 13 1;
#X connect 13 0 14 0;
#X restore 19 357 pd preload images;
#X obj 19 17 r total-number;
#X obj 46 62 sel 0;
#X msg 46 85 127;
#X msg 73 121 \; load-default-path bang \; pd dsp 1 \; overlaps 2 \;
delayratio 1000 \; size 3.97 \; thres 0.12 \; quality 1 \; bsize 262144
\; gemwin-load bang \; status 0 \; total-images \$1 \; auto-set 1 \;
;
#X obj 19 39 t b f;
#X connect 0 0 3 0;
#X connect 0 1 2 0;
#X connect 1 0 3 0;
#X connect 4 0 8 0;
#X connect 5 0 6 0;
#X connect 5 1 7 0;
#X connect 6 0 7 0;
#X connect 8 0 0 0;
#X connect 8 1 5 0;
#X restore 9 48 pd onload ----------;
#N canvas 690 147 359 363 gemclicks 0;
#X obj 41 26 gemmouse;
#X obj 27 330 s gemclick0;
#X obj 106 331 s gemclick1;
#X obj 182 329 s gemclick2;
#X obj 29 300 spigot;
#X obj 183 306 spigot;
#X obj 108 307 spigot;
#X obj 207 281 &&;
#X obj 116 157 t f f f;
#X obj 40 195 == 0;
#X obj 37 163 t f f;
#X obj 293 277 &&;
#X obj 32 127 <= 250;
#X obj 103 123 >= 250;
#X obj 274 303 spigot;
#X obj 60 267 &&;
#X obj 137 195 == 0;
#X obj 136 280 &&;
#X obj 273 326 s gemclick3;
#X obj 224 184 t f f f f f;
#X obj 151 47 t f f;
#X obj 183 69 == 0;
#X obj 37 95 spigot 1;
#X obj 100 98 spigot 1;
#X connect 0 0 22 0;
#X connect 0 1 23 0;
#X connect 0 2 20 0;
#X connect 4 0 1 0;
#X connect 5 0 3 0;
#X connect 6 0 2 0;
#X connect 7 0 5 1;
#X connect 8 0 7 1;
#X connect 8 1 16 0;
#X connect 8 2 11 1;
#X connect 9 0 11 0;
#X connect 9 0 17 0;
#X connect 10 0 9 0;
#X connect 10 1 7 0;
#X connect 10 1 15 0;
#X connect 11 0 14 1;
#X connect 12 0 10 0;
#X connect 13 0 8 0;
#X connect 14 0 18 0;
#X connect 15 0 4 1;
#X connect 16 0 15 1;
#X connect 16 0 17 1;
#X connect 17 0 6 1;
#X connect 19 0 4 0;
#X connect 19 1 6 0;
#X connect 19 2 5 0;
#X connect 19 3 14 0;
#X connect 20 0 19 0;
#X connect 20 1 21 0;
#X connect 21 0 22 1;
#X connect 21 0 23 1;
#X connect 22 0 12 0;
#X connect 23 0 13 0;
#X restore 9 67 pd gemclicks -------;
#N canvas 691 148 233 570 elapsed 0;
#X obj 18 73 timer;
#X obj 17 52 sel 1 0;
#X obj 18 517 list trim;
#X obj 18 539 s printer;
#X obj 58 137 r delayratio;
#X obj 18 137 list;
#X obj 54 195 r blocksize;
#X obj 54 217 list prepend blocksize:;
#X obj 18 204 list;
#X obj 18 263 list;
#X obj 18 374 list;
#X obj 54 387 list prepend thres:;
#X obj 54 276 list prepend overlaps:;
#X obj 58 165 list prepend delayratio:;
#X obj 18 104 list prepend elapsed-msec:;
#X obj 17 20 r status;
#X obj 56 414 r image;
#X obj 55 463 list prepend imageID;
#X obj 18 484 list prepend;
#X obj 18 313 list append window: hann;
#X obj 54 254 r overlaps;
#X obj 54 365 r thres;
#X obj 56 436 int;
#X connect 0 0 14 0;
#X connect 1 0 0 0;
#X connect 1 1 0 1;
#X connect 2 0 3 0;
#X connect 4 0 13 0;
#X connect 5 0 8 0;
#X connect 6 0 7 0;
#X connect 7 0 8 1;
#X connect 8 0 9 0;
#X connect 9 0 19 0;
#X connect 10 0 18 0;
#X connect 11 0 10 1;
#X connect 12 0 9 1;
#X connect 13 0 5 1;
#X connect 14 0 5 0;
#X connect 15 0 1 0;
#X connect 16 0 22 0;
#X connect 17 0 18 1;
#X connect 18 0 2 0;
#X connect 19 0 10 0;
#X connect 20 0 12 0;
#X connect 21 0 11 0;
#X connect 22 0 17 0;
#X restore 9 86 pd elapsed ---------;
#N canvas 694 150 487 177 printer 0;
#X obj 39 9 r printer;
#X obj 39 151 print imgfft;
#X obj 53 35 r status;
#X msg 53 60 ******** \, status \$1 \, *******;
#X obj 257 12 r start-number;
#X obj 256 55 r total-number;
#X obj 258 98 r full-path;
#X obj 258 120 symbol;
#X msg 258 140 *** \, full path: \$1 \, ***;
#X msg 257 77 *** \, total number: \$1 \, ***;
#X msg 257 34 *** \, start number: \$1 \, ***;
#X connect 0 0 1 0;
#X connect 2 0 3 0;
#X connect 3 0 1 0;
#X connect 4 0 10 0;
#X connect 5 0 9 0;
#X connect 6 0 7 0;
#X connect 7 0 8 0;
#X connect 8 0 1 0;
#X connect 9 0 1 0;
#X connect 10 0 1 0;
#X restore 9 105 pd printer ---------;
#N canvas 540 146 424 158 path 0;
#X obj 13 46 cnv 15 400 50 empty empty empty 20 12 0 14 -233017 -66577
0;
#X obj 27 10 bng 15 250 50 0 empty empty empty 17 7 0 10 -262144 -1
-1;
#N canvas 541 331 418 241 edit-path 0;
#X obj 18 133 symbol;
#X obj 228 18 r edit-path;
#X msg 228 41 \; pd-path vis 1 \; pd-path editmode 1 \;;
#X msg 81 172 \; imgfft \$1 \; imgfft-path-set label PATH:\$1 \;;
#X obj 18 9 inlet;
#X msg 66 132 /Users/nyu/Desktop/fid-master-4/fd_imgfft;
#X obj 66 100 r load-default-path;
#X obj 18 31 t a a;
#X obj 18 155 t a a;
#X msg 18 177 set \$1;
#X obj 36 63 r full-path;
#X connect 0 0 8 0;
#X connect 1 0 2 0;
#X connect 4 0 7 0;
#X connect 5 0 0 0;
#X connect 6 0 5 0;
#X connect 7 0 0 0;
#X connect 8 0 9 0;
#X connect 8 1 3 0;
#X connect 9 0 5 0;
#X connect 10 0 0 0;
#X coords 0 241 1 240 85 60 0;
#X restore 27 115 pd edit-path;
#X obj 223 118 bng 15 250 50 0 re-preload-images empty re-preload-images
17 7 0 10 -262144 -1 -1;
#X text 46 25 TYPE FULL PATH AND BANG;
#X text 180 100 RE-PRELOAD IMAGES IF NECESSARY:;
#X msg 27 57 /Users/nyu/Desktop/fid-master-4/fd_imgfft;
#X connect 1 0 6 0;
#X connect 6 0 2 0;
#X restore 9 162 pd path ------------;
#N canvas 694 149 270 259 controls 0;
#X msg 110 54 1024;
#X msg 117 76 4096;
#X msg 105 29 64;
#X msg 123 100 8192;
#X msg 131 121 16384;
#X msg 142 142 32768;
#X obj 121 170 spigot 1;
#X obj 176 171 r status;
#X obj 192 182 == 0;
#X msg 173 72 262144;
#X msg 167 52 131072;
#X msg 180 94 524288;
#X msg 159 31 65536;
#X obj 121 192 s bsize;
#X obj 18 25 tgl 15 0 empty empty empty 17 7 0 10 -262144 -1 -1 0 1
;
#X obj 18 45 s quality;
#X text 84 7 2 set different blocksize;
#X floatatom 18 74 5 0 0 0 - - -, f 5;
#X obj 18 93 s size;
#X floatatom 17 117 5 0 0 0 - - -, f 5;
#X obj 17 136 s delayratio;
#X floatatom 18 164 5 0 0 0 - - -, f 5;
#X obj 18 183 s overlaps;
#X connect 0 0 6 0;
#X connect 1 0 6 0;
#X connect 2 0 6 0;
#X connect 3 0 6 0;
#X connect 4 0 6 0;
#X connect 5 0 6 0;
#X connect 6 0 13 0;
#X connect 7 0 8 0;
#X connect 8 0 6 1;
#X connect 9 0 6 0;
#X connect 10 0 6 0;
#X connect 11 0 6 0;
#X connect 12 0 6 0;
#X connect 14 0 15 0;
#X connect 17 0 18 0;
#X connect 19 0 20 0;
#X connect 21 0 22 0;
#X restore 9 124 pd controls --------;
#N canvas 690 147 214 259 dimensions 0;
#X obj 24 98 pix_buffer_read img;
#X floatatom 34 210 4 0 0 1 width - -, f 4;
#X floatatom 44 192 4 0 0 1 height - -, f 4;
#X floatatom 54 174 4 0 0 1 bytes/pixel - -, f 4;
#X floatatom 64 157 5 0 0 1 coulorspace - -, f 5;
#X obj 24 136 pix_info . . . .;
#X floatatom 118 14 5 0 0 0 - - -, f 5;
#X obj 118 33 t b f;
#X obj 24 19 gemhead -1;
#N canvas 0 22 123 146 once 0;
#X obj 24 41 spigot;
#X obj 24 63 t a b;
#X msg 65 63 0;
#X msg 67 41 1;
#X obj 27 15 inlet;
#X obj 70 15 inlet;
#X obj 24 85 outlet;
#X connect 0 0 1 0;
#X connect 1 0 6 0;
#X connect 1 1 2 0;
#X connect 2 0 0 1;
#X connect 3 0 0 1;
#X connect 4 0 0 0;
#X connect 5 0 3 0;
#X restore 24 61 pd once;
#X connect 0 0 5 0;
#X connect 5 1 1 0;
#X connect 5 2 2 0;
#X connect 5 3 3 0;
#X connect 5 4 4 0;
#X connect 6 0 7 0;
#X connect 7 0 9 1;
#X connect 7 1 0 1;
#X connect 8 0 9 0;
#X connect 9 0 0 0;
#X restore 9 143 pd dimensions ------;
#N canvas 691 148 205 192 sounds 0;
#N canvas 633 497 594 459 sound 0;
#X obj 82 171 noise~;
#X msg 324 42 16384;
#X msg 367 39 16384;
#X obj 367 61 * 8;
#X floatatom 182 352 5 0 0 0 - - -, f 5;
#X msg 289 42 8192;
#X floatatom 130 273 5 0 0 0 - - -, f 5;
#X floatatom 165 273 5 0 0 0 - - -, f 5;
#X obj 173 134 pack f 4 0.25;
#X obj 102 375 *~ 0.005;
#X obj 102 322 hip~ 3;
#X obj 102 296 bp~ 5000 5;
#X obj 11 434 outlet~;
#X obj 10 11 inlet;
#X obj 10 37 fd_switch;
#X obj 244 204 switch~;
#X obj 11 400 *~;
#X obj 217 180 t f f;
#N canvas 0 22 450 300 hann 0;
#X obj 68 86 samplerate~;
#X obj 68 140 osc~;
#X obj 68 162 *~ -0.5;
#X obj 68 184 +~ 0.5;
#X obj 50 219 tabwrite~ \$0-hann;
#X obj 68 108 / 8192;
#X obj 40 251 array define \$0-hann;
#X msg 165 160 resize \$1;
#X obj 48 44 t b b f f b;
#X msg 116 132 0;
#X obj 50 13 inlet;
#X connect 0 0 5 0;
#X connect 1 0 2 0;
#X connect 2 0 3 0;
#X connect 3 0 4 0;
#X connect 5 0 1 0;
#X connect 7 0 6 0;
#X connect 8 0 4 0;
#X connect 8 1 0 0;
#X connect 8 2 5 1;
#X connect 8 3 7 0;
#X connect 8 4 9 0;
#X connect 9 0 1 1;
#X connect 10 0 8 0;
#X restore 204 74 pd hann;
#X obj 180 54 t f f;
#X floatatom 498 62 10 0 0 0 - - -, f 10;
#X text 293 16 choose blocksize accordingly;
#X text 343 264 (optional) swictch tables;
#X text 229 351 gain;
#X text 100 254 filtering some freqs;
#X text 260 134 <-- this defines ( blocksize overlaps downsampling
);
#X obj 433 84 f;
#X obj 61 119 s current;
#X obj 465 88 r current;
#X obj 61 94 sel 1;
#X obj 61 72 t f f;
#X msg 340 184 0.125;
#X msg 327 164 0.125;
#X msg 398 161 2;
#X msg 332 105 4, f 2;
#X obj 340 216 / 2;
#X obj 428 56 spigot 1;
#X obj 477 30 t f f;
#X obj 478 223 tgl 15 0 empty empty empty 17 7 0 10 -262144 -1 -1 0
1;
#X text 449 206 disable auto block;
#X obj 125 14 inlet;
#X obj 414 398 s filter-table;
#X obj 414 378 symbol;
#X msg 385 302 dumped;
#X msg 386 340 dumpedfft;
#X msg 480 339 dumpedfftI;
#X obj 477 8 inlet;
#X obj 546 100 bng 15 250 50 0 empty empty empty 17 7 0 10 -262144
-1 -1;
#X msg 383 204 1;
#X msg 301 102 4;
#X msg 277 95 2;
#X msg 183 20 2048;
#X msg 448 295 dumpedfftphase;
#X obj 299 371 bng 15 250 50 0 empty empty see_tables 17 7 0 10 -262144
-1 -1;
#N canvas 161 173 524 412 filter 0;
#X obj 28 41 *~;
#X obj 28 63 rfft~;
#X obj 32 206 *~;
#X obj 62 206 *~;
#X obj 113 166 *~;
#X obj 28 19 inlet~;
#X obj 36 242 rifft~;
#X obj 91 358 *~;
#X obj 91 380 outlet~;
#X obj 144 167 tabreceive~ \$0-hann;
#X obj 144 339 tabreceive~ \$0-hann;
#X obj 62 44 tabreceive~ \$0-hann;
#X obj 303 31 inlet;
#X msg 122 93 set \$1;
#X obj 66 324 *~ 0.005;
#X obj 71 277 *~;
#X obj 124 258 tabreceive~ \$0-hann;
#X obj 118 114 tabreceive~ dumpedfft;
#X msg 303 53 set \$1 \$2 \$3;
#X obj 302 78 switch~ 8192 4 0.5;
#X obj 440 35 inlet;
#X obj 107 138 *~;
#X obj 351 109 r status;
#X obj 351 131 == 0;
#X obj 351 175 line~;
#X obj 351 153 pack f 1, f 23;
#X obj 122 71 r filter-table;
#X connect 0 0 1 0;
#X connect 1 0 2 0;
#X connect 1 1 3 0;
#X connect 2 0 6 0;
#X connect 3 0 6 1;
#X connect 4 0 2 1;
#X connect 4 0 3 1;
#X connect 5 0 0 0;
#X connect 6 0 15 0;
#X connect 7 0 8 0;
#X connect 9 0 4 1;
#X connect 10 0 7 1;
#X connect 11 0 0 1;
#X connect 12 0 18 0;
#X connect 13 0 17 0;
#X connect 14 0 7 0;
#X connect 15 0 14 0;
#X connect 16 0 15 1;
#X connect 17 0 21 0;
#X connect 18 0 19 0;
#X connect 20 0 19 0;
#X connect 21 0 4 0;
#X connect 22 0 23 0;
#X connect 23 0 25 0;
#X connect 24 0 21 1;
#X connect 25 0 24 0;
#X connect 26 0 13 0;
#X restore 82 202 pd filter;
#X msg 299 391 \; pd-fft vis 1;
#X msg 377 80 16384;
#X obj 384 100 * 16;
#X msg 315 235 0.5;
#X obj 195 107 bng 15 250 50 0 empty empty empty 17 7 0 10 -262144
-1 -1;
#X connect 0 0 54 0;
#X connect 1 0 19 0;
#X connect 2 0 3 0;
#X connect 3 0 19 0;
#X connect 4 0 9 1;
#X connect 5 0 19 0;
#X connect 6 0 11 1;
#X connect 7 0 11 2;
#X connect 8 0 54 1;
#X connect 9 0 16 1;
#X connect 10 0 9 0;
#X connect 11 0 10 0;
#X connect 13 0 14 0;
#X connect 14 0 16 0;
#X connect 14 1 30 0;
#X connect 16 0 12 0;
#X connect 17 0 54 2;
#X connect 17 1 15 0;
#X connect 19 0 8 0;
#X connect 19 1 18 0;
#X connect 20 0 26 1;
#X connect 26 0 19 0;
#X connect 28 0 26 0;
#X connect 29 0 27 0;
#X connect 30 0 29 0;
#X connect 30 1 17 0;
#X connect 31 0 35 0;
#X connect 32 0 8 2;
#X connect 33 0 8 2;
#X connect 34 0 8 2;
#X connect 35 0 8 2;
#X connect 36 0 26 0;
#X connect 37 0 36 0;
#X connect 37 1 20 0;
#X connect 38 0 36 1;
#X connect 40 0 4 0;
#X connect 42 0 41 0;
#X connect 43 0 42 0;
#X connect 44 0 42 0;
#X connect 45 0 42 0;
#X connect 46 0 37 0;
#X connect 47 0 26 0;
#X connect 48 0 8 2;
#X connect 49 0 8 1;
#X connect 50 0 8 1;
#X connect 51 0 19 0;
#X connect 52 0 42 0;
#X connect 53 0 55 0;
#X connect 54 0 11 0;
#X connect 56 0 57 0;
#X connect 57 0 19 0;
#X connect 58 0 8 2;
#X connect 59 0 8 0;
#X restore 18 108 pd sound;
#X obj 18 12 tgl 15 0 empty empty onoff 17 7 0 10 -262144 -1 -1 0 1
;
#X obj 16 147 dac~;
#X obj 34 51 hsl 128 15 0.0001 1 1 0 empty empty sound-gain -2 -8 0
10 -262144 -1 -1 0 1;
#X obj 63 83 r bsize;
#X connect 0 0 2 0;
#X connect 0 0 2 1;
#X connect 1 0 0 0;
#X connect 3 0 0 1;
#X connect 4 0 0 2;
#X restore 9 181 pd sounds ----------;
#N canvas 691 148 367 398 fft 0;
#X obj 18 66 pix_dump;
#X obj 125 172 array define dumped;
#X obj 125 211 array define dumpedfftphase;
#X obj 125 251 array define dumpedfftI;
#X obj 125 192 array define dumpedfft;
#N canvas 632 125 531 530 IFFT 0;
#X obj 19 468 outlet;
#X obj 19 402 del 1 1 samp;
#X obj 121 182 block~ 4096 1 1;
#X obj 243 460 tabwrite~ dumpedfftI;
#X obj 19 103 bang~;
#X obj 19 125 spigot;
#X obj 19 148 t b b;
#X msg 59 148 0;
#X msg 59 103 1;
#X obj 19 223 f;
#X obj 141 226 * 3;
#X msg 141 248 2 \$1;
#X obj 141 270 /;
#X obj 141 292 sig~ 1;
#X obj 75 9 inlet blocksize;
#X obj 240 73 tabreceive~ dumpedfft;
#X obj 102 133 t f f f;
#X obj 297 106 tabreceive~ histograma;
#X obj 75 64 t b f;
#X obj 322 217 tabreceive~ dumpedfftphase;
#X obj 276 320 *~;
#X msg 121 155 set \$1 1 1;
#X msg 22 9 262144;
#X obj 247 361 rifft~;
#X obj 19 342 t f b;
#X obj 236 287 *~;
#X obj 65 423 r delayratio;
#X obj 19 444 del 1000;
#X obj 255 175 czero~;
#X obj 238 133 cpole~;
#X obj 267 214 czero~;
#X obj 301 371 tabreceive~ hann;
#X connect 1 0 27 0;
#X connect 4 0 5 0;
#X connect 5 0 6 0;
#X connect 6 0 9 0;
#X connect 6 1 7 0;
#X connect 7 0 5 1;
#X connect 8 0 5 1;
#X connect 9 0 24 0;
#X connect 10 0 11 0;
#X connect 11 0 12 0;
#X connect 12 0 13 0;
#X connect 13 0 25 1;
#X connect 14 0 18 0;
#X connect 15 0 29 0;
#X connect 16 0 9 1;
#X connect 16 1 21 0;
#X connect 16 2 10 0;
#X connect 17 0 29 2;
#X connect 17 0 28 2;
#X connect 18 0 8 0;
#X connect 18 1 16 0;
#X connect 19 0 20 1;
#X connect 19 0 30 2;
#X connect 20 0 23 1;
#X connect 21 0 2 0;
#X connect 22 0 18 0;
#X connect 23 0 3 0;
#X connect 24 0 1 0;
#X connect 24 1 3 0;
#X connect 25 0 23 0;
#X connect 26 0 27 1;
#X connect 27 0 0 0;
#X connect 28 0 30 0;
#X connect 28 1 30 1;
#X connect 29 0 28 0;
#X connect 29 1 28 1;
#X connect 30 0 25 0;
#X connect 30 1 20 0;
#X restore 46 253 pd IFFT;
#X msg 125 151 resize \$1;
#X obj 125 106 list prepend 0;
#X msg 301 330 0;
#X obj 292 358 s status;
#X msg 292 90 1;
#X obj 265 49 t b b;
#N canvas 621 44 573 507 FFT 0;
#X obj 285 192 rfft~;
#X obj 201 278 *~;
#X obj 226 279 *~;
#X obj 201 310 sqrt~;
#X obj 23 474 outlet;
#X obj 333 333 cyclone/atan2~;
#X obj 285 111 tabreceive~ dumped;
#X msg 109 165 set \$1 \$2 1;
#X obj 333 435 tabwrite~ dumpedfftphase;
#X obj 201 435 tabwrite~ dumpedfft;
#X obj 109 188 block~ 4096 1 1;
#X obj 341 276 max~;
#X obj 376 276 max~;
#X obj 441 221 +~ 1e-20;
#X obj 23 187 t b b b;
#X obj 23 103 bang~;
#X obj 23 126 spigot;
#X obj 23 148 t b b;
#X msg 71 145 0;
#X msg 70 122 1;
#X obj 23 377 del 1 1 samp;
#X obj 70 75 t b a a;
#X obj 23 344 f;
#X obj 23 443 f;
#X obj 89 305 t f f;
#X obj 441 199 sig~;
#X obj 441 176 r thres;
#X obj 89 281 unpack;
#X obj 89 327 *;
#X obj 201 357 *~;
#X obj 216 333 tabreceive~ hann;
#X obj 285 165 *~;
#X obj 303 135 tabreceive~ hann;
#X obj 119 97 unpack;
#X obj 152 119 t f f;
#X obj 119 142 pack;
#X obj 119 119 *;
#X msg 265 38 262144 1;
#X obj 23 399 del 1000;
#X obj 81 401 r delayratio;
#X obj 169 36 r overlaps;
#X obj 115 36 pack f 1;
#X obj 115 13 r blocksize;
#X obj 70 45 list;
#X obj 70 13 inlet;
#X floatatom 476 200 5 0 0 0 - - -, f 5;
#X connect 0 0 1 0;
#X connect 0 0 1 1;
#X connect 0 0 11 0;
#X connect 0 1 2 0;
#X connect 0 1 2 1;
#X connect 0 1 12 0;
#X connect 1 0 3 0;
#X connect 2 0 3 0;
#X connect 3 0 29 0;
#X connect 5 0 8 0;
#X connect 6 0 31 0;
#X connect 7 0 10 0;
#X connect 11 0 5 1;
#X connect 12 0 5 0;
#X connect 13 0 11 1;
#X connect 13 0 12 1;
#X connect 14 0 22 0;
#X connect 14 1 9 0;
#X connect 14 2 8 0;
#X connect 15 0 16 0;
#X connect 16 0 17 0;
#X connect 17 0 14 0;
#X connect 17 1 18 0;
#X connect 18 0 16 1;
#X connect 19 0 16 1;
#X connect 20 0 38 0;
#X connect 21 0 19 0;
#X connect 21 1 27 0;
#X connect 21 2 33 0;
#X connect 22 0 20 0;
#X connect 23 0 4 0;
#X connect 24 0 28 0;
#X connect 24 1 23 1;
#X connect 25 0 13 0;
#X connect 26 0 25 0;
#X connect 26 0 45 0;
#X connect 27 0 24 0;
#X connect 27 1 28 1;
#X connect 28 0 22 1;
#X connect 29 0 9 0;
#X connect 30 0 29 1;
#X connect 31 0 0 0;
#X connect 32 0 31 1;
#X connect 33 0 36 0;
#X connect 33 1 34 0;
#X connect 34 0 36 1;
#X connect 34 1 35 1;
#X connect 35 0 7 0;
#X connect 36 0 35 0;
#X connect 37 0 21 0;
#X connect 38 0 23 0;
#X connect 39 0 38 1;
#X connect 40 0 41 1;
#X connect 41 0 43 1;
#X connect 42 0 41 0;
#X connect 43 0 21 0;
#X connect 44 0 43 0;
#X restore 19 209 pd FFT;
#X obj 265 7 r perform;
#X obj 125 128 r blocksize;
#X obj 113 22 pix_buffer img 4;
#X obj 125 230 array define histograma;
#X obj 19 231 t b f;
#X obj 197 128 * 2;
#X msg 197 151 resize \$1;
#X obj 46 283 _pixset dumpedfftI 512 img 3 4 -4 3 1, f 19;
#N canvas 875 149 183 286 image 0;
#X obj 49 212 separator;
#X obj 22 36 r image;
#X obj 22 58 int;
#X text 30 14 switch image;
#N canvas 1062 149 335 481 threshold 0;
#X obj 28 132 array quantile histograma, f 14;
#X obj 28 18 inlet;
#X msg 28 107 0.5;
#X obj 28 40 t b b;
#X obj 145 79 s histograma;
#X msg 145 57 normalize 1;
#X obj 130 156 r blocksize;
#X obj 52 383 s thres;
#X obj 28 62 del 100;
#X obj 127 132 array max histograma;
#X obj 28 222 +;
#X obj 85 193 / 262144;
#X obj 28 191 / 262144;
#X obj 56 287 / 262144;
#X obj 57 266 array sum dumped;
#X obj 53 315 +;
#X obj 53 337 / 2;
#X floatatom 63 359 5 0 0 0 - - -, f 5;
#X obj 28 84 t b b b;
#X obj 57 241 r dumpsum;
#X connect 0 0 12 0;
#X connect 1 0 3 0;
#X connect 2 0 0 0;
#X connect 3 0 8 0;
#X connect 3 1 5 0;
#X connect 5 0 4 0;
#X connect 6 0 11 1;
#X connect 6 0 12 1;
#X connect 6 0 13 1;
#X connect 8 0 18 0;
#X connect 9 1 11 0;
#X connect 10 0 15 1;
#X connect 11 0 10 1;
#X connect 12 0 10 0;
#X connect 13 0 15 0;
#X connect 14 0 13 0;
#X connect 15 0 16 0;
#X connect 16 0 7 0;
#X connect 16 0 17 0;
#X connect 18 0 2 0;
#X connect 18 1 9 0;
#X connect 19 0 14 0;
#X restore 41 143 pd threshold;
#X obj 22 79 spigot 1;
#X obj 72 36 r status;
#X obj 72 58 == 0;
#X obj 22 101 t b b f;
#X obj 22 166 t b b;
#X obj 49 190 _display img 0 -4 4;
#N canvas 490 52 269 565 preload 0;
#X msg 236 480 0;
#X obj 35 518 pix_buffer_write img;
#X obj 62 304 pix_texture;
#X obj 35 383 separator;
#X obj 35 36 t a a;
#X obj 62 99 separator;
#X obj 35 408 t a b;
#X obj 59 451 t b b;
#X msg 95 451 0;
#X msg 197 295 1;
#X obj 62 334 spigot;
#X obj 197 317 t f f;
#X obj 197 52 t b f b;
#X obj 35 477 pix_snap 0 0 512 512;
#X obj 62 358 rectangle 5.33 4;
#X obj 62 271 pix_histo histograma;
#X obj 70 121 r image-preload;
#X obj 35 14 gemhead 1;
#X obj 59 429 spigot;
#X obj 70 141 list trim;
#X obj 197 13 inlet;
#X obj 62 183 pix_multiimage;
#X obj 62 228 pix_info;
#N canvas 320 482 332 309 loaded-images 0;
#X obj 13 46 unpack;
#X obj 13 94 sel 0;
#X obj 14 115 spigot 1;
#X obj 14 137 t b b;
#X msg 51 138 0;
#X obj 14 238 s loaded-images;
#X obj 13 15 inlet;
#X obj 59 66 r load-default-path;
#X msg 59 88 1;
#X obj 116 151 t b b;
#X msg 181 132 0;
#X obj 116 131 sel -1;
#X obj 213 51 r image-preload;
#X obj 213 73 bang;
#X msg 149 90 1;
#X obj 116 111 spigot;
#X obj 144 245 s printer;
#X msg 144 197 ***** \, couldn't find images \, please correct your
path, f 25;
#X obj 116 176 t b b;
#X obj 116 272 s edit-path-set;
#X connect 0 0 1 0;
#X connect 1 0 2 0;
#X connect 1 1 15 0;
#X connect 2 0 3 0;
#X connect 3 0 5 0;
#X connect 3 1 4 0;
#X connect 4 0 2 1;
#X connect 6 0 0 0;
#X connect 7 0 8 0;
#X connect 8 0 2 1;
#X connect 9 0 18 0;
#X connect 9 1 10 0;
#X connect 10 0 15 1;
#X connect 11 0 9 0;
#X connect 12 0 13 0;
#X connect 13 0 14 0;
#X connect 14 0 15 1;
#X connect 15 0 11 0;
#X connect 17 0 16 0;
#X connect 18 0 19 0;
#X connect 18 1 17 0;
#X restore 71 251 pd loaded-images;
#X connect 0 0 1 1;
#X connect 2 0 10 0;
#X connect 3 0 6 0;
#X connect 4 0 3 0;
#X connect 4 1 5 0;
#X connect 5 0 21 0;
#X connect 6 0 13 0;
#X connect 6 1 18 0;
#X connect 7 0 13 0;
#X connect 7 1 8 0;
#X connect 8 0 10 1;
#X connect 8 0 18 1;
#X connect 9 0 11 0;
#X connect 10 0 14 0;
#X connect 11 0 18 1;
#X connect 11 1 10 1;
#X connect 12 0 9 0;
#X connect 12 1 21 1;
#X connect 12 2 0 0;
#X connect 13 0 1 0;
#X connect 15 0 2 0;
#X connect 16 0 19 0;
#X connect 17 0 4 0;
#X connect 18 0 7 0;
#X connect 19 0 21 0;
#X connect 20 0 12 0;
#X connect 21 0 22 0;
#X connect 22 0 15 0;
#X connect 22 6 23 0;
#X restore 61 123 pd preload;
#X obj 73 247 outlet gemlist;
#N canvas 0 22 450 300 once 0;
#X obj 29 101 t b b;
#X obj 29 79 spigot 1;
#X msg 67 101 0;
#X obj 29 123 del 1000;
#X obj 29 145 s perform-set;
#X text 46 61 once;
#X obj 29 37 inlet;
#X connect 0 0 3 0;
#X connect 0 1 2 0;
#X connect 1 0 0 0;
#X connect 2 0 1 1;
#X connect 3 0 4 0;
#X connect 6 0 1 0;
#X restore 22 247 pd once;
#X connect 0 0 12 0;
#X connect 1 0 2 0;
#X connect 2 0 5 0;
#X connect 5 0 8 0;
#X connect 6 0 7 0;
#X connect 7 0 5 1;
#X connect 8 0 9 0;
#X connect 8 1 4 0;
#X connect 8 2 11 0;
#X connect 9 0 13 0;
#X connect 9 1 10 0;
#X connect 10 0 0 0;
#X restore 18 22 pd image;
#X obj 32 155 r delayratio;
#X obj 19 181 del 1000;
#N canvas 581 171 288 393 next 0;
#X obj 21 4 inlet;
#X obj 180 135 s image-set;
#X msg 23 270 quit;
#X obj 23 292 s pd;
#X obj 50 50 + 1;
#X obj 153 113 t b f;
#X obj 172 179 r delayratio;
#X obj 153 206 del 1000;
#X obj 153 317 outlet;
#X obj 198 10 inlet;
#X obj 153 258 spigot 1;
#X obj 81 73 r total-images;
#X obj 21 164 tgl 15 0 empty empty empty 17 7 0 10 -262144 -1 -1 0
1;
#X obj 58 202 metro 1000;
#X obj 58 224 int 5;
#X obj 99 225 - 1;
#X obj 58 246 t f f;
#X obj 25 341 s printer;
#X msg 26 321 quitting pd in \$1;
#X obj 58 268 sel 0;
#X obj 59 292 t b b;
#X msg 99 292 0;
#X obj 81 95 + 1;
#X floatatom 79 129 5 0 0 0 - - -, f 5;
#X obj 21 119 sel 772;
#X obj 36 25 r start-number;
#X obj 21 72 + 1;
#X obj 21 50 f;
#X connect 0 0 27 0;
#X connect 2 0 3 0;
#X connect 4 0 27 1;
#X connect 5 0 7 0;
#X connect 5 1 1 0;
#X connect 6 0 7 1;
#X connect 7 0 10 0;
#X connect 9 0 10 1;
#X connect 10 0 8 0;
#X connect 11 0 22 0;
#X connect 12 0 13 0;
#X connect 13 0 14 0;
#X connect 14 0 15 0;
#X connect 14 0 16 0;
#X connect 15 0 14 1;
#X connect 16 0 19 0;
#X connect 16 1 18 0;
#X connect 18 0 17 0;
#X connect 19 0 20 0;
#X connect 20 0 2 0;
#X connect 20 1 21 0;
#X connect 21 0 12 0;
#X connect 22 0 23 0;
#X connect 22 0 24 1;
#X connect 24 0 12 0;
#X connect 24 1 5 0;
#X connect 25 0 27 1;
#X connect 26 0 24 0;
#X connect 27 0 4 0;
#X connect 27 0 26 0;
#X restore 184 336 pd next;
#X obj 184 313 t b b;
#X obj 184 358 s perform-set;
#X obj 223 289 tgl 15 0 empty auto auto 17 7 0 10 -262144 -1 -1 0 1
;
#X obj 19 89 t b b a;
#X obj 38 117 s dumpsum;
#X obj 265 28 _storeit 0 img;
#X obj 19 316 _pixset dumpedfft 512 img 1 4 4 1 1, f 17;
#X obj 19 349 _pixset dumpedfftphase 512 img 2 -4 -4 1 1, f 22;
#X connect 0 1 28 0;
#X connect 5 0 20 0;
#X connect 6 0 1 0;
#X connect 6 0 16 0;
#X connect 6 0 4 0;
#X connect 6 0 2 0;
#X connect 7 0 1 0;
#X connect 8 0 9 0;
#X connect 10 0 9 0;
#X connect 11 0 0 0;
#X connect 11 1 10 0;
#X connect 12 0 17 0;
#X connect 13 0 30 0;
#X connect 14 0 6 0;
#X connect 14 0 18 0;
#X connect 17 0 31 0;
#X connect 17 1 5 0;
#X connect 18 0 19 0;
#X connect 19 0 3 0;
#X connect 20 0 25 0;
#X connect 21 0 0 0;
#X connect 22 0 23 1;
#X connect 23 0 12 0;
#X connect 24 0 26 0;
#X connect 25 0 24 0;
#X connect 25 1 8 0;
#X connect 27 0 24 1;
#X connect 28 0 23 0;
#X connect 28 1 29 0;
#X connect 28 2 7 0;
#X connect 30 0 11 0;
#X connect 31 0 32 0;
#X restore 9 219 pd fft -------------;
#N canvas 691 147 272 127 declares 0;
#X obj 18 10 declare -path ../../fd_lib-master;
#X obj 18 59 declare -stdlib cyclone;
#X obj 18 35 declare -stdlib Gem;
#X obj 19 82 declare -path ./lib;
#X restore 9 10 pd declares --------;
#N canvas 690 147 284 366 window 0;
#X obj 123 176 array define hann \$1;
#X msg 123 155 resize \$1;
#X obj 73 168 /;
#X obj 73 232 cos;
#X obj 73 254 * -0.5;
#X obj 73 276 + 0.5;
#X obj 73 298 tabwrite hann;
#X obj 73 211 * 3.14159;
#X obj 73 190 * 2;
#X obj 73 118 fd_iterate;
#X obj 73 70 change;
#X obj 73 96 t f f f;
#X obj 73 141 t f f;
#X obj 31 40 t f f;
#X obj 31 13 r bsize;
#X obj 31 335 s blocksize;
#X text 90 9 make window first \, then pass blocksize, f 18;
#X connect 1 0 0 0;
#X connect 2 0 8 0;
#X connect 3 0 4 0;
#X connect 4 0 5 0;
#X connect 5 0 6 0;
#X connect 7 0 3 0;
#X connect 8 0 7 0;
#X connect 9 0 12 0;
#X connect 10 0 11 0;
#X connect 11 0 9 0;
#X connect 11 1 2 1;
#X connect 11 2 1 0;
#X connect 12 0 2 0;
#X connect 12 1 6 1;
#X connect 13 0 15 0;
#X connect 13 1 10 0;
#X connect 14 0 13 0;
#X restore 9 200 pd window ----------;
#X restore 477 35 pd guts;
