#N canvas 573 61 704 510 10;
#X declare -stdlib Gem;
#X obj 59 31 declare -stdlib Gem;
#X obj 59 54 loadbang;
#X msg 59 76 0 \, destroy \, dimen 512 512 \, offset 50 22 \, create
\, 1;
#X obj 59 98 gemwin;
#X text 63 136 comment;
#X obj 63 156 gemhead;
#X obj 63 220 pix_multiimage;
#X obj 63 382 pix_texture;
#X obj 63 404 square 4;
#X text 385 106 comment;
#X obj 180 193 f;
#X obj 180 215 + 1;
#X obj 180 237 mod 127;
#X obj 63 285 pix_grey;
#X obj 63 242 separator;
#X obj 63 264 pix_separator;
#X obj 63 334 pix_biquad;
#X floatatom 342 276 4 0 0 0 - - -, f 4;
#X floatatom 383 276 4 0 0 0 - - -, f 4;
#X obj 382 296 t b f;
#X floatatom 432 276 4 0 0 0 - - -, f 4;
#X obj 431 296 t b f;
#X floatatom 473 275 4 0 0 0 - - -, f 4;
#X obj 472 295 t b f;
#X floatatom 517 277 4 0 0 0 - - -, f 4;
#X obj 516 297 t b f;
#X floatatom 562 277 4 0 0 0 - - -, f 4;
#X obj 561 297 t b f;
#X obj 348 327 pack 0 0 0 0 0 0;
#X msg 344 165 1 0 0 1 0 0;
#X msg 344 188 1 0 0 0.2 0.2 0.6;
#X text 344 257 fb0;
#X text 384 257 fb1;
#X text 435 256 fb2;
#X text 474 253 ff1;
#X text 523 254 ff2;
#X text 564 253 ff3;
#X obj 296 324 t l;
#X text 492 161 route through;
#X text 494 187 a low-pass;
#X msg 345 217 0.05 0.8 0.15 0.2 0.2 0.6;
#X text 528 215 a LOW-pass;
#X obj 63 307 pix_roll;
#X msg 148 295 256;
#X msg 167 274 axis 1;
#X msg 153 122 1;
#X msg 184 122 2;
#X msg 272 122 0;
#X msg 214 123 3;
#X msg 152 154 open imgfft/img-*-\$1.jpg 127;
#X obj 44 127 tgl 15 0 empty empty empty 17 7 0 10 -262144 -1 -1 0
1;
#X msg 185 301 0;
#X msg 232 32 frame 20;
#X msg 300 41 frame 10;
#X obj 64 358 pix_histo histo;
#N canvas 556 148 456 492 fft 0;
#X msg 30 17 \; pd dsp 1;
#X msg 52 143 0 \, 1 \$1;
#X obj 52 165 line~;
#X obj 52 209 +~ 1;
#X obj 52 187 *~ 125;
#X obj 184 90 tabreceive~ histo;
#X obj 77 303 *~;
#X obj 90 454 outlet~;
#X obj 225 170 tabreceive~ hann;
#X obj 52 231 tabread4~ expo;
#X obj 193 170 *~;
#X obj 193 192 rfft~;
#X obj 193 214 *~;
#X obj 223 215 *~;
#X obj 193 236 sqrt~;
#X obj 61 100 inlet;
#X obj 191 142 log~;
#X msg 145 54 set 2048 1 0.25;
#X msg 289 20 set 1024 1 2;
#X msg 215 17 set 2048 4 1;
#X obj 261 50 block~ 4096 1 1;
#X obj 186 119 *~;
#X msg 305 71 set 128 1 1;
#X msg 125 16 set 8192 4 1;
#X obj 130 304 *~;
#X obj 83 346 vcf~ 3000;
#X obj 85 391 *~ 0.0001;
#X obj 154 391 *~ 0.0001;
#X obj 87 430 rzero~;
#X obj 193 258 hilbert~;
#X msg 318 106 set 4096 4 1;
#X msg 338 140 set 8192 8 0.5;
#X connect 1 0 2 0;
#X connect 2 0 4 0;
#X connect 3 0 9 0;
#X connect 4 0 3 0;
#X connect 5 0 21 0;
#X connect 5 0 21 1;
#X connect 6 0 25 0;
#X connect 8 0 10 1;
#X connect 9 0 6 0;
#X connect 9 0 24 0;
#X connect 10 0 11 0;
#X connect 11 0 12 0;
#X connect 11 0 12 1;
#X connect 11 1 13 0;
#X connect 11 1 13 1;
#X connect 12 0 14 0;
#X connect 13 0 14 0;
#X connect 14 0 29 0;
#X connect 15 0 1 0;
#X connect 16 0 10 0;
#X connect 17 0 20 0;
#X connect 18 0 20 0;
#X connect 19 0 20 0;
#X connect 21 0 16 0;
#X connect 22 0 20 0;
#X connect 23 0 20 0;
#X connect 24 0 25 1;
#X connect 25 0 26 0;
#X connect 25 1 27 0;
#X connect 26 0 28 0;
#X connect 27 0 28 1;
#X connect 28 0 7 0;
#X connect 29 0 6 1;
#X connect 29 1 24 1;
#X connect 30 0 20 0;
#X connect 31 0 20 0;
#X restore 186 409 pd fft;
#X obj 520 367 fd_expo 128;
#X obj 519 433 fd_hann 4096;
#X obj 190 473 dac~;
#X obj 63 178 t a b b;
#X obj 176 357 timer;
#X obj 231 271 change;
#X obj 231 293 t b b;
#X obj 176 379 * 1;
#X floatatom 223 387 5 0 0 0 - - -, f 5;
#X floatatom 253 420 5 0 0 0 - - -, f 5;
#X obj 189 440 *~ 0.01;
#X msg 520 406 4096;
#X obj 605 136 vsl 15 128 0 127 0 0 empty empty empty 0 -9 0 10 -262144
-1 -1 700 1;
#X obj 502 27 vsl 15 128 0 127 0 0 empty empty empty 0 -9 0 10 -262144
-1 -1 1700 1;
#X obj 265 372 array define histo 2048;
#X msg 198 9 frame 30;
#X msg 542 347 2048;
#X connect 1 0 2 0;
#X connect 2 0 3 0;
#X connect 5 0 59 0;
#X connect 6 0 14 0;
#X connect 7 0 8 0;
#X connect 10 0 11 0;
#X connect 10 0 6 1;
#X connect 10 0 61 0;
#X connect 11 0 12 0;
#X connect 12 0 10 1;
#X connect 13 0 42 0;
#X connect 14 0 15 0;
#X connect 15 0 13 0;
#X connect 16 0 54 0;
#X connect 17 0 28 0;
#X connect 18 0 19 0;
#X connect 19 0 28 0;
#X connect 19 1 28 1;
#X connect 20 0 21 0;
#X connect 21 0 28 0;
#X connect 21 1 28 2;
#X connect 22 0 23 0;
#X connect 23 0 28 0;
#X connect 23 1 28 3;
#X connect 24 0 25 0;
#X connect 25 0 28 0;
#X connect 25 1 28 4;
#X connect 26 0 27 0;
#X connect 27 0 28 0;
#X connect 27 1 28 5;
#X connect 28 0 37 0;
#X connect 29 0 37 0;
#X connect 30 0 37 0;
#X connect 37 0 16 0;
#X connect 40 0 37 0;
#X connect 42 0 16 0;
#X connect 43 0 42 1;
#X connect 44 0 42 0;
#X connect 45 0 49 0;
#X connect 46 0 49 0;
#X connect 47 0 49 0;
#X connect 48 0 49 0;
#X connect 49 0 6 0;
#X connect 50 0 5 0;
#X connect 51 0 42 1;
#X connect 52 0 3 0;
#X connect 53 0 3 0;
#X connect 54 0 7 0;
#X connect 55 0 66 0;
#X connect 59 0 6 0;
#X connect 59 1 10 0;
#X connect 60 0 63 0;
#X connect 61 0 62 0;
#X connect 62 0 60 0;
#X connect 62 1 60 1;
#X connect 63 0 55 0;
#X connect 64 0 63 1;
#X connect 65 0 66 1;
#X connect 66 0 58 0;
#X connect 66 0 58 1;
#X connect 67 0 57 0;
#X connect 68 0 26 0;
#X connect 69 0 24 0;
#X connect 71 0 3 0;
#X connect 72 0 56 0;
