#N canvas 1305 26 477 386 10;
#X declare -path ./lib;
#X declare -path ../fd_lib-master;
#X declare -stdlib Gem -stdlib zexy -stdlib iemmatrix;
#N canvas 0 22 450 300 declares 0;
#X obj 25 59 declare -path ./lib;
#X obj 26 39 declare -path ../fd_lib-master;
#X obj 27 16 declare -stdlib Gem -stdlib zexy -stdlib iemmatrix;
#X restore 17 16 pd declares;
#N canvas 729 69 450 300 gemwin 0;
#X obj 21 15 loadbang;
#X obj 21 99 gemwin;
#X msg 21 37 0 \, destroy \, reset \, dimen 800 800 \, create \, 1
;
#X connect 0 0 2 0;
#X connect 2 0 1 0;
#X restore 17 38 pd gemwin;
#X msg 18 71 bang;
#X obj 18 122 tgl 15 0 empty empty empty 17 7 0 10 -262144 -1 -1 0
1;
#X obj 18 142 == 0;
#N canvas 837 29 450 259 analisis 0;
#X text 32 18 histogram;
#X text 32 38 black and white;
#X text 32 58 blob analysis;
#X text 32 78 shape recognition;
#X text 32 98 light origin;
#N canvas 0 22 1212 793 light 0;
#X obj 99 457 pix_texture;
#X obj 99 217 pix_separator;
#X obj 99 342 pix_contrast;
#X floatatom 181 316 5 0 0 0 - - -, f 5;
#X obj 99 384 pix_multiblob 1;
#X obj 258 454 pix_texture;
#X obj 258 217 pix_separator;
#X obj 99 148 t a a, f 27;
#X obj 258 193 separator;
#X obj 99 190 separator;
#X obj 258 280 scale 0.5;
#X obj 99 43 separator;
#X floatatom 133 317 5 0 0 0 - - -, f 5;
#X obj 99 479 rectangle 4 3;
#X obj 258 475 rectangle 4 3;
#X obj 258 247 translateXYZ 2 0 0;
#X msg 238 116 0;
#X obj 99 116 pix_buffer_read single;
#X obj 99 67 t a b, f 22;
#X obj 238 95 fd_spigot;
#X obj 186 435 s blobinfo;
#X text 253 171 original (right);
#X text 88 170 edited (left);
#X text 118 91 get only frame 0;
#X obj 186 409 spigot;
#X obj 219 378 tgl 15 0 empty empty empty 17 7 0 10 -262144 -1 -1 0
1;
#X obj 99 247 translateXYZ 0 0 0;
#X obj 99 278 scale 1;
#X connect 0 0 13 0;
#X connect 1 0 26 0;
#X connect 2 0 4 0;
#X connect 3 0 2 2;
#X connect 4 0 0 0;
#X connect 4 1 24 0;
#X connect 5 0 14 0;
#X connect 6 0 15 0;
#X connect 7 0 9 0;
#X connect 8 0 6 0;
#X connect 9 0 1 0;
#X connect 10 0 5 0;
#X connect 11 0 18 0;
#X connect 12 0 2 1;
#X connect 15 0 10 0;
#X connect 16 0 17 1;
#X connect 17 0 7 0;
#X connect 18 0 17 0;
#X connect 18 1 19 0;
#X connect 19 0 16 0;
#X connect 24 0 20 0;
#X connect 25 0 24 1;
#X connect 26 0 27 0;
#X connect 27 0 2 0;
#X restore 251 57 pd light;
#N canvas 816 51 1056 929 lights 0;
#X obj 850 364 pix_texture;
#X obj 851 512 rectangle 4 3;
#X text 640 24 where does the light come from?;
#X obj 442 113 t a b;
#X obj 427 603 pix_texture;
#X obj 521 99 f;
#X obj 521 119 + 1;
#X obj 521 141 mod 773;
#X obj 439 167 pix_buffer_read images;
#X obj 442 72 tgl 15 0 empty empty empty 17 7 0 10 -262144 -1 -1 0
1;
#X obj 522 46 loadbang;
#X msg 522 68 0;
#X obj 454 299 pix_contrast;
#X floatatom 536 273 5 0 0 0 - - -, f 5;
#X floatatom 488 274 5 0 0 0 - - -, f 5;
#X obj 431 27 r cont-read;
#X obj 407 221 separator;
#X obj 407 243 pix_separator;
#X obj 308 143 gemwin;
#X obj 442 91 gemhead 2;
#X obj 564 595 list length;
#X obj 198 302 unpack 0 0 0 0;
#X obj 170 362 +;
#X obj 210 363 +;
#X obj 256 365 -;
#X obj 293 366 -;
#X obj 20 201 separator;
#X msg 199 280 \$3 \$5 \$4 \$6;
#X obj 68 826 fd_spigot;
#X obj 81 32 gemhead -1;
#X msg 60 868 font ../fd_lib-master/vera.ttf;
#X msg 151 840 text \$1;
#X obj 552 468 t a a;
#X obj 594 496 list length;
#X obj 594 518 != 3;
#X obj 534 527 spigot;
#X obj 199 255 matrix;
#X obj 127 55 r binfo;
#X obj 128 210 t f f;
#X msg 157 233 row \$1;
#X obj 534 549 t a a;
#X obj 557 572 list split 3;
#X obj 547 753 list prepend;
#X obj 547 775 s binfo;
#X obj 107 102 list split 1;
#X obj 205 233 list trim;
#X obj 60 13 tgl 15 0 empty empty empty 17 7 0 10 -262144 -1 -1 0 1
;
#X obj 106 77 list;
#X obj 564 617 / 8;
#X obj 209 422 - 1;
#X obj 256 397 * -2;
#X obj 293 397 * -2;
#X floatatom 504 372 3 0 100 2 threshold - -, f 3;
#X obj 504 389 / 100;
#X msg 504 410 threshold \$1;
#X floatatom 594 372 3 0 100 2 blobsize - -, f 3;
#X obj 594 389 / 100;
#X msg 594 410 blobSize \$1;
#X obj 169 422 - 0.5;
#X obj 594 49 tgl 15 0 empty empty empty 17 7 0 10 -262144 -1 -1 0
1;
#X obj 594 69 metro 200;
#X floatatom 626 42 5 0 0 0 - - -, f 5;
#X obj 193 501 pack f f 0;
#X obj 193 523 list append;
#X obj 193 545 t a a;
#X obj 167 567 list;
#X obj 93 127 sel 0;
#X obj 128 168 fd_iterate;
#X obj 128 190 + 1;
#X obj 97 145 t b f;
#X obj 66 58 t a b b;
#X msg 215 579 draw linestrip;
#X obj 492 435 pix_multiblob 8;
#X msg 298 553 draw fill;
#X floatatom 360 402 5 0 0 0 - - -, f 5;
#X obj 360 443 sel 0 1;
#X obj 357 420 >= 5;
#X obj 169 445 * 8;
#X obj 209 445 * -4;
#X obj 48 381 alpha;
#X obj 48 403 pix_texture;
#X floatatom 339 86 5 0 0 0 - - -, f 5;
#X obj 305 100 f;
#X obj 297 69 bng 15 250 50 0 empty empty empty 17 7 0 10 -262144 -1
-1;
#X msg 307 121 frame \$1;
#X floatatom 132 892 5 0 0 0 - - -, f 5;
#X obj 52 889 text2d 200;
#X obj 151 817 fd_r 0;
#X msg 181 782 yes i know what this is but do you;
#X obj 36 328 color 1 1 1 0.8;
#X obj 52 764 t a b b;
#X msg 27 516 10;
#X obj 27 538 until;
#X obj 27 494 t b a;
#X obj 95 602 random 800;
#X obj 95 624 - 400;
#X obj 95 646 / 100;
#X obj 162 603 random 800;
#X obj 162 625 - 400;
#X obj 162 647 / 100;
#X obj 27 560 t b b b;
#X obj 38 682 translateXYZ;
#X obj 18 595 gemlist;
#X obj 453 686 spigot 1;
#X obj 493 648 tgl 15 0 empty empty empty 17 7 0 10 -262144 -1 -1 1
1;
#X floatatom 57 277 2 0 0 0 - - -, f 2;
#X obj 49 304 polygon_smooth;
#X obj 57 241 hradio 15 1 1 3 empty empty empty 0 -6 0 8 -262144 -1
-1 1;
#X obj 57 258 - 1;
#X msg 477 566 env 1;
#X floatatom 266 431 5 0 0 0 - - -, f 5;
#X floatatom 263 446 5 0 0 0 - - -, f 5;
#X msg 82 848 10;
#X obj 416 762 sphere 1 3;
#X floatatom 297 661 5 0 0 0 - - -, f 5;
#X obj 532 863 square 1;
#X obj 532 841 translateXYZ -2.5 0 0;
#X obj 169 467 + 2.5;
#X obj 38 704 t a a;
#X obj 87 718 separator;
#X obj 27 730 separator;
#X obj 18 643 rotateXYZ;
#X obj 123 758 polygon;
#X obj 439 189 t a a;
#X obj 809 173 separator;
#X obj 809 195 pix_separator;
#X obj 817 449 pix_coordinate;
#X floatatom 921 393 5 0 0 0 - - -, f 5;
#X msg 874 343 repeat 1 \, rectangle 0;
#X obj 851 284 translateXYZ 0 0 0;
#X floatatom 965 390 5 0 0 0 - - -, f 5;
#X msg 896 413 0 0 \$1 0 \$1 1 0 1;
#X obj 851 317 scale 4;
#X connect 0 0 126 0;
#X connect 3 0 8 0;
#X connect 4 0 103 0;
#X connect 4 1 80 1;
#X connect 5 0 6 0;
#X connect 5 0 8 1;
#X connect 6 0 7 0;
#X connect 7 0 5 1;
#X connect 8 0 123 0;
#X connect 9 0 19 0;
#X connect 10 0 11 0;
#X connect 11 0 9 0;
#X connect 11 0 5 1;
#X connect 11 0 46 0;
#X connect 12 0 72 0;
#X connect 13 0 12 2;
#X connect 14 0 12 1;
#X connect 16 0 17 0;
#X connect 17 0 12 0;
#X connect 19 0 3 0;
#X connect 20 0 48 0;
#X connect 21 0 22 0;
#X connect 21 0 24 0;
#X connect 21 1 22 1;
#X connect 21 1 24 1;
#X connect 21 2 23 0;
#X connect 21 2 25 0;
#X connect 21 3 23 1;
#X connect 21 3 25 1;
#X connect 22 0 58 0;
#X connect 23 0 49 0;
#X connect 24 0 50 0;
#X connect 25 0 51 0;
#X connect 26 0 106 0;
#X connect 27 0 21 0;
#X connect 28 0 30 0;
#X connect 28 0 88 0;
#X connect 28 0 112 0;
#X connect 29 0 70 0;
#X connect 30 0 86 0;
#X connect 31 0 86 0;
#X connect 32 0 35 0;
#X connect 32 1 33 0;
#X connect 33 0 34 0;
#X connect 34 0 35 1;
#X connect 34 0 46 0;
#X connect 35 0 40 0;
#X connect 36 0 27 0;
#X connect 37 0 47 1;
#X connect 38 1 39 0;
#X connect 39 0 36 0;
#X connect 40 0 42 0;
#X connect 40 1 41 0;
#X connect 41 1 20 0;
#X connect 42 0 43 0;
#X connect 44 0 66 0;
#X connect 44 1 45 0;
#X connect 45 0 36 0;
#X connect 46 0 29 0;
#X connect 47 0 44 0;
#X connect 48 0 42 1;
#X connect 49 0 78 0;
#X connect 52 0 53 0;
#X connect 53 0 54 0;
#X connect 54 0 72 0;
#X connect 55 0 56 0;
#X connect 56 0 57 0;
#X connect 57 0 72 0;
#X connect 58 0 77 0;
#X connect 59 0 60 0;
#X connect 60 0 5 0;
#X connect 61 0 60 1;
#X connect 62 0 63 0;
#X connect 63 0 64 0;
#X connect 64 0 65 1;
#X connect 64 1 63 1;
#X connect 65 0 122 0;
#X connect 66 1 69 0;
#X connect 67 0 68 0;
#X connect 68 0 38 0;
#X connect 69 0 65 0;
#X connect 69 1 67 0;
#X connect 69 1 74 0;
#X connect 70 0 26 0;
#X connect 70 1 47 0;
#X connect 70 2 63 1;
#X connect 71 0 122 0;
#X connect 72 0 4 0;
#X connect 72 1 32 0;
#X connect 73 0 122 0;
#X connect 74 0 76 0;
#X connect 74 0 113 2;
#X connect 75 0 71 0;
#X connect 75 1 73 0;
#X connect 76 0 75 0;
#X connect 77 0 117 0;
#X connect 78 0 62 1;
#X connect 79 0 80 0;
#X connect 80 0 93 0;
#X connect 81 0 82 1;
#X connect 82 0 84 0;
#X connect 83 0 82 0;
#X connect 84 0 18 0;
#X connect 85 0 86 1;
#X connect 87 0 31 0;
#X connect 88 0 87 1;
#X connect 89 0 79 0;
#X connect 90 0 86 0;
#X connect 90 1 28 0;
#X connect 90 2 87 0;
#X connect 91 0 92 0;
#X connect 92 0 100 0;
#X connect 93 0 91 0;
#X connect 93 1 102 1;
#X connect 94 0 95 0;
#X connect 94 0 121 1;
#X connect 95 0 96 0;
#X connect 96 0 101 1;
#X connect 97 0 98 0;
#X connect 97 0 121 3;
#X connect 98 0 99 0;
#X connect 99 0 101 2;
#X connect 100 0 102 0;
#X connect 100 1 94 0;
#X connect 100 2 97 0;
#X connect 101 0 118 0;
#X connect 102 0 121 0;
#X connect 103 0 113 0;
#X connect 103 0 116 0;
#X connect 104 0 103 1;
#X connect 105 0 106 0;
#X connect 106 0 89 0;
#X connect 107 0 108 0;
#X connect 108 0 105 0;
#X connect 109 0 4 0;
#X connect 110 0 77 1;
#X connect 111 0 78 1;
#X connect 112 0 85 0;
#X connect 114 0 117 1;
#X connect 116 0 115 0;
#X connect 117 0 62 0;
#X connect 118 0 120 0;
#X connect 118 1 119 0;
#X connect 119 0 122 0;
#X connect 120 0 90 0;
#X connect 121 0 101 0;
#X connect 123 0 16 0;
#X connect 123 1 124 0;
#X connect 124 0 125 0;
#X connect 125 0 129 0;
#X connect 126 0 1 0;
#X connect 127 0 131 0;
#X connect 128 0 0 0;
#X connect 129 0 132 0;
#X connect 131 0 126 1;
#X connect 132 0 0 0;
#X restore 253 36 pd lights;
#N canvas 816 51 1056 929 blobs 0;
#X text 640 24 where does the light come from?;
#X obj 442 113 t a b;
#X obj 443 560 pix_texture;
#X obj 521 99 f;
#X obj 521 119 + 1;
#X obj 521 141 mod 773;
#X obj 442 176 pix_buffer_read images;
#X obj 443 582 rectangle 4 3;
#X obj 442 72 tgl 15 0 empty empty empty 17 7 0 10 -262144 -1 -1 0
1;
#X obj 522 46 loadbang;
#X msg 522 68 0;
#X obj 442 276 pix_contrast;
#X floatatom 524 250 5 0 0 0 - - -, f 5;
#X floatatom 476 251 5 0 0 0 - - -, f 5;
#X obj 431 27 r cont-read;
#X floatatom 482 148 5 0 0 0 - - -, f 5;
#X obj 442 198 separator;
#X obj 442 220 pix_separator;
#X obj 443 503 spigot 1;
#X obj 483 465 tgl 15 0 empty empty empty 17 7 0 10 -262144 -1 -1 1
1;
#X obj 319 38 gemwin;
#X obj 442 91 gemhead 2;
#X obj 564 595 list length;
#X obj 62 510 translateXYZ;
#X obj 201 263 unpack 0 0 0 0;
#X obj 108 335 +;
#X obj 148 336 +;
#X text 195 395 0..2;
#X text 181 415 -1..+1;
#X obj 308 339 -;
#X obj 345 340 -;
#X obj 62 586 pix_separator;
#X obj 84 249 alpha;
#X obj 84 207 separator;
#X obj 84 228 color 1 0 0 0.5;
#X msg 202 241 \$3 \$5 \$4 \$6;
#X obj 62 559 t a a;
#X obj 243 470 pix_separator;
#X obj 62 537 scale 1;
#X obj 62 737 text2d;
#X obj 62 651 t a b;
#X obj 78 674 fd_spigot;
#X obj 81 32 gemhead -1;
#X msg 252 529 draw line;
#X obj 64 88 f 1;
#X obj 64 110 until;
#X obj 68 178 gemlist;
#X obj 64 132 t b b;
#X obj 23 255 f;
#X obj 53 255 + 1;
#X msg 70 716 font ../fd_lib-master/vera.ttf;
#X msg 185 684 text \$1;
#X obj 552 468 t a a;
#X obj 594 496 list length;
#X obj 594 518 != 3;
#X obj 534 527 spigot;
#X obj 210 179 matrix;
#X obj 188 14 r binfo;
#X obj 23 277 t f f;
#X msg 154 156 row \$1;
#X obj 534 549 t a a;
#X obj 557 572 list split 3;
#X obj 547 753 list prepend;
#X obj 547 775 s binfo;
#X obj 178 107 list split 1;
#X obj 208 149 list trim;
#X msg 41 227 1;
#X obj 60 13 tgl 15 0 empty empty empty 17 7 0 10 -262144 -1 -1 0 1
;
#X obj 167 36 list;
#X obj 84 62 t b a b b;
#X obj 564 617 / 8;
#X floatatom 138 457 5 0 0 0 - - -, f 5;
#X floatatom 178 457 5 0 0 0 - - -, f 5;
#X floatatom 167 358 5 0 0 0 - - -, f 5;
#X floatatom 118 362 5 0 0 0 - - -, f 5;
#X obj 147 395 - 1;
#X obj 308 371 * -2;
#X obj 345 371 * -2;
#X obj 243 492 t a a;
#X obj 287 556 rectangle 0.01 1;
#X obj 270 579 rectangle 1 0.01;
#X floatatom 504 372 3 0 100 2 threshold - -, f 3;
#X obj 504 389 / 100;
#X msg 504 410 threshold \$1;
#X floatatom 594 372 3 0 100 2 blobsize - -, f 3;
#X obj 594 389 / 100;
#X msg 594 410 blobSize \$1;
#X obj 492 435 pix_multiblob 10;
#X obj 221 358 minimax;
#X obj 107 395 - 0.5;
#X floatatom 243 380 5 0 0 0 - - -, f 5;
#X obj 228 401 minimax;
#X floatatom 250 423 5 0 0 0 - - -, f 5;
#X obj 147 418 * -3;
#X obj 107 418 * 4;
#X msg 318 16 frame 10;
#X connect 1 0 6 0;
#X connect 1 1 3 0;
#X connect 2 0 7 0;
#X connect 3 0 4 0;
#X connect 3 0 6 1;
#X connect 3 0 15 0;
#X connect 4 0 5 0;
#X connect 5 0 3 1;
#X connect 6 0 16 0;
#X connect 8 0 21 0;
#X connect 9 0 10 0;
#X connect 10 0 8 0;
#X connect 10 0 3 1;
#X connect 10 0 67 0;
#X connect 11 0 87 0;
#X connect 12 0 11 2;
#X connect 13 0 11 1;
#X connect 16 0 17 0;
#X connect 17 0 11 0;
#X connect 18 0 2 0;
#X connect 19 0 18 1;
#X connect 21 0 1 0;
#X connect 22 0 70 0;
#X connect 23 0 38 0;
#X connect 24 0 25 0;
#X connect 24 0 29 0;
#X connect 24 1 25 1;
#X connect 24 1 29 1;
#X connect 24 2 26 0;
#X connect 24 2 30 0;
#X connect 24 3 26 1;
#X connect 24 3 30 1;
#X connect 25 0 74 0;
#X connect 25 0 89 0;
#X connect 26 0 73 0;
#X connect 26 0 75 0;
#X connect 29 0 76 0;
#X connect 30 0 77 0;
#X connect 31 0 40 0;
#X connect 32 0 23 0;
#X connect 33 0 34 0;
#X connect 34 0 32 0;
#X connect 35 0 24 0;
#X connect 36 0 31 0;
#X connect 36 1 37 0;
#X connect 37 0 78 0;
#X connect 38 0 36 0;
#X connect 40 0 39 0;
#X connect 40 1 41 0;
#X connect 41 0 43 0;
#X connect 41 0 50 0;
#X connect 42 0 69 0;
#X connect 43 0 79 0;
#X connect 43 0 80 0;
#X connect 44 0 45 0;
#X connect 45 0 47 0;
#X connect 46 0 33 0;
#X connect 47 0 46 0;
#X connect 47 1 48 0;
#X connect 48 0 49 0;
#X connect 48 0 58 0;
#X connect 49 0 48 1;
#X connect 50 0 39 0;
#X connect 51 0 39 0;
#X connect 52 0 55 0;
#X connect 52 1 53 0;
#X connect 53 0 54 0;
#X connect 54 0 55 1;
#X connect 54 0 67 0;
#X connect 55 0 60 0;
#X connect 56 0 35 0;
#X connect 57 0 68 1;
#X connect 58 0 59 0;
#X connect 58 1 51 0;
#X connect 59 0 56 0;
#X connect 60 0 62 0;
#X connect 60 1 61 0;
#X connect 61 1 22 0;
#X connect 62 0 63 0;
#X connect 64 0 44 1;
#X connect 64 1 65 0;
#X connect 65 0 56 0;
#X connect 66 0 48 1;
#X connect 67 0 42 0;
#X connect 68 0 64 0;
#X connect 69 0 44 0;
#X connect 69 1 46 1;
#X connect 69 2 66 0;
#X connect 69 3 68 0;
#X connect 70 0 62 1;
#X connect 73 0 88 0;
#X connect 74 0 91 0;
#X connect 75 0 93 0;
#X connect 76 0 80 1;
#X connect 77 0 79 2;
#X connect 78 0 79 0;
#X connect 78 1 80 0;
#X connect 81 0 82 0;
#X connect 82 0 83 0;
#X connect 83 0 87 0;
#X connect 84 0 85 0;
#X connect 85 0 86 0;
#X connect 86 0 87 0;
#X connect 87 0 18 0;
#X connect 87 1 52 0;
#X connect 88 2 90 0;
#X connect 89 0 94 0;
#X connect 91 2 92 0;
#X connect 93 0 23 2;
#X connect 93 0 72 0;
#X connect 94 0 23 1;
#X connect 94 0 71 0;
#X connect 95 0 20 0;
#X restore 249 15 pd blobs;
#X restore 213 36 pd analisis;
#X obj 228 117 pix_buffer single 1;
#X msg 228 95 open img/\$1.jpg 0;
#X msg 254 65 2;
#X floatatom 326 33 5 0 0 0 - - -, f 5;
#X obj 308 54 f;
#X obj 305 11 bng 15 250 50 0 empty empty empty 17 7 0 10 -262144 -1
-1;
#X obj 18 164 s cont-read;
#X obj 105 139 print;
#X obj 18 100 load img 773 images;
#X connect 2 0 14 0;
#X connect 3 0 4 0;
#X connect 3 0 13 0;
#X connect 4 0 12 0;
#X connect 7 0 6 0;
#X connect 8 0 7 0;
#X connect 9 0 10 1;
#X connect 10 0 7 0;
#X connect 11 0 10 0;
#X connect 14 0 3 0;
