#N canvas 202 295 477 386 10;
#X declare -stdlib Gem;
#X declare -path ~/Documents/fd_lib;
#X declare -path ./lib;
#N canvas 0 22 450 300 declares 0;
#X obj 26 17 declare -stdlib Gem;
#X obj 26 39 declare -path ~/Documents/fd_lib;
#X obj 25 59 declare -path ./lib;
#X restore 17 16 pd declares;
#N canvas 588 72 450 300 gemwin 0;
#X obj 21 15 loadbang;
#X obj 21 59 gemwin;
#X msg 21 37 0 \, destroy \, reset \, dimen 400 200 \, create \, 1
;
#X connect 0 0 2 0;
#X connect 2 0 1 0;
#X restore 17 38 pd gemwin;
#X msg 18 71 bang;
#X obj 18 122 tgl 15 0 empty empty empty 17 7 0 10 -262144 -1 -1 0
1;
#X obj 18 194 gemhead;
#X obj 18 216 t a b;
#X obj 18 301 pix_texture;
#X obj 97 202 f;
#X obj 97 222 + 1;
#X obj 97 244 mod 773;
#X obj 18 279 pix_buffer_read images;
#X obj 18 142 == 0;
#X obj 18 323 rectangle 4 3;
#X obj 18 165 tgl 15 0 empty empty empty 17 7 0 10 -262144 -1 -1 0
1;
#X obj 90 136 loadbang;
#X msg 90 158 0;
#X obj 18 100 load img 773 images;
#N canvas 627 151 450 300 analisis 0;
#X text 32 18 histogram;
#X text 32 38 black and white;
#X text 32 58 blob analysis;
#X text 32 78 shape recognition;
#X text 32 98 light origin;
#N canvas 402 27 801 651 light-origin 0;
#X obj 104 245 pix_texture;
#X obj 75 97 pix_separator;
#X obj 77 169 pix_contrast;
#X floatatom 263 79 5 0 0 0 - - -, f 5;
#X floatatom 163 167 5 0 0 0 - - -, f 5;
#X obj 111 18 tgl 15 0 empty empty empty 17 7 0 10 -262144 -1 -1 1
1;
#X obj 30 13 gemhead 1;
#X obj 101 214 pix_multiblob 1;
#X obj 170 28 pix_buffer_read single;
#X obj 479 124 pix_texture;
#X obj 476 37 pix_separator;
#X obj 125 48 t a a;
#X obj 476 59 separator;
#X obj 76 77 separator;
#X obj 483 103 scale 0.5;
#X obj 260 544 rectangle;
#X obj 144 449 translateXYZ;
#X obj 314 322 unpack 0 0 0 0;
#X obj 229 363 +;
#X obj 268 364 +;
#X text 262 394 0..2;
#X text 264 414 -1..+1;
#X obj 369 448 -;
#X obj 406 449 -;
#X obj 196 387 - 1;
#X obj 236 392 - 1;
#X obj 136 514 pix_separator;
#X obj 142 558 circle 0.1;
#X floatatom 190 314 5 0 0 0 - - -, f 5;
#X floatatom 226 336 5 0 0 0 - - -, f 5;
#X floatatom 419 322 5 0 0 0 - - -, f 5;
#X floatatom 445 342 5 0 0 0 - - -, f 5;
#X floatatom 380 511 5 0 0 0 - - -, f 5;
#X floatatom 419 512 5 0 0 0 - - -, f 5;
#X obj 32 375 alpha;
#X obj 137 476 scale 0.5;
#X obj 30 35 t a a;
#X obj 180 6 separator;
#X obj 32 333 separator;
#X msg 268 462 draw fill;
#X obj 32 354 color 1 0 0 0.5;
#X obj 223 218 list split 3;
#X msg 304 294 \$3 \$5 \$4 \$6;
#X obj 259 240 route bang;
#X obj 300 264 t a b;
#X msg 332 217 0;
#X msg 371 217 1;
#X msg 209 254 -1;
#X obj 38 312 spigot 1;
#X obj 247 105 fd_step;
#X floatatom 247 127 5 0 0 0 - - -, f 5;
#X obj 104 267 rectangle 8 6;
#X obj 480 152 rectangle 8 6;
#X obj 70 125 translateXYZ -4 0 0;
#X obj 482 81 translateXYZ 4 0 0;
#X msg 247 275 1;
#X msg 322 78 0;
#X obj 32 401 translateXYZ -4 0 0;
#X obj 77 147 scale 0.5;
#X msg 324 101 1;
#X msg 366 102 -10;
#X obj 331 239 tgl 15 0 empty empty empty 17 7 0 10 -262144 -1 -1 1
1;
#X obj 196 410 * 4;
#X obj 235 414 * 4;
#X obj 369 480 * -2;
#X obj 406 480 * -2;
#X connect 0 0 51 0;
#X connect 1 0 53 0;
#X connect 2 0 7 0;
#X connect 3 0 49 0;
#X connect 4 0 2 2;
#X connect 5 0 6 0;
#X connect 6 0 36 0;
#X connect 7 0 0 0;
#X connect 7 1 41 0;
#X connect 8 0 11 0;
#X connect 9 0 52 0;
#X connect 10 0 12 0;
#X connect 11 0 13 0;
#X connect 11 1 10 0;
#X connect 12 0 54 0;
#X connect 13 0 1 0;
#X connect 14 0 9 0;
#X connect 16 0 35 0;
#X connect 17 0 18 0;
#X connect 17 0 22 0;
#X connect 17 1 18 1;
#X connect 17 1 22 1;
#X connect 17 2 19 0;
#X connect 17 2 23 0;
#X connect 17 3 19 1;
#X connect 17 3 23 1;
#X connect 18 0 24 0;
#X connect 18 0 28 0;
#X connect 19 0 25 0;
#X connect 19 0 29 0;
#X connect 22 0 30 0;
#X connect 22 0 64 0;
#X connect 23 0 31 0;
#X connect 23 0 65 0;
#X connect 24 0 62 0;
#X connect 25 0 63 0;
#X connect 26 0 27 0;
#X connect 26 0 15 0;
#X connect 34 0 57 0;
#X connect 35 0 26 0;
#X connect 36 0 48 0;
#X connect 36 1 37 0;
#X connect 37 0 8 0;
#X connect 38 0 40 0;
#X connect 39 0 15 0;
#X connect 40 0 34 0;
#X connect 41 1 43 0;
#X connect 42 0 17 0;
#X connect 43 0 45 0;
#X connect 43 0 47 0;
#X connect 43 1 44 0;
#X connect 44 0 42 0;
#X connect 44 1 46 0;
#X connect 44 1 55 0;
#X connect 45 0 61 0;
#X connect 46 0 61 0;
#X connect 48 0 38 0;
#X connect 49 0 50 0;
#X connect 49 0 2 1;
#X connect 53 0 58 0;
#X connect 54 0 14 0;
#X connect 56 0 49 1;
#X connect 57 0 16 0;
#X connect 58 0 2 0;
#X connect 59 0 49 1;
#X connect 60 0 49 1;
#X connect 62 0 16 1;
#X connect 63 0 16 2;
#X connect 64 0 15 1;
#X connect 64 0 32 0;
#X connect 65 0 15 2;
#X connect 65 0 33 0;
#X restore 249 15 pd light-origin;
#X restore 213 36 pd analisis;
#X obj 228 117 pix_buffer single 1;
#X msg 228 95 open img/\$1.jpg 0;
#X msg 254 65 5;
#X connect 2 0 16 0;
#X connect 3 0 11 0;
#X connect 4 0 5 0;
#X connect 5 0 10 0;
#X connect 5 1 7 0;
#X connect 6 0 12 0;
#X connect 7 0 8 0;
#X connect 7 0 10 1;
#X connect 8 0 9 0;
#X connect 9 0 7 1;
#X connect 10 0 6 0;
#X connect 11 0 13 0;
#X connect 13 0 4 0;
#X connect 14 0 15 0;
#X connect 15 0 13 0;
#X connect 16 0 3 0;
#X connect 19 0 18 0;
#X connect 20 0 19 0;
