#N canvas 616 43 601 473 10;
#X declare -stdlib Gem;
#X declare -stdpath gembertexbuffer-original;
#X declare -path lib;
#X obj 20 18 declare -stdlib Gem;
#X obj 20 40 loadbang;
#X obj 20 84 gemwin;
#X obj 38 149 gemhead;
#N canvas 37 31 450 300 reference 0;
#X msg 22 234 0 0 0;
#X msg 98 230 1 0 0;
#X msg 94 169 1 1 0;
#X msg 24 169 0 1 0;
#X text 27 215 1;
#X text 102 208 2;
#X text 101 148 3;
#X text 26 149 4;
#X text 28 82 5;
#X msg 23 102 0 2 0;
#X text 94 81 6;
#X msg 89 101 1 2 0;
#X msg 164 100 2 2 0;
#X msg 164 166 2 1 0;
#X msg 226 163 3 1 0;
#X msg 224 100 3 2 0;
#X msg 286 98 4 2 0;
#X msg 164 229 2 0 0;
#X msg 220 226 3 0 0;
#X msg 342 96 5 2 0;
#X msg 347 151 5 1 0;
#X msg 287 154 4 1 0;
#X msg 292 216 4 0 0;
#X msg 350 213 5 0 0;
#X text 169 80 7;
#X text 169 146 8;
#X text 172 201 9;
#X text 229 203 10;
#X text 230 139 11;
#X text 230 77 12;
#X text 294 76 13;
#X text 350 74 14;
#X text 355 129 15;
#X text 295 132 16;
#X text 300 194 17;
#X text 358 191 18;
#X restore 410 24 pd reference;
#X obj 512 16 iemmatrix;
#X obj 145 18 declare -stdpath gembertexbuffer-original;
#X obj 41 116 tgl 15 0 empty empty empty 17 7 0 10 -262144 -1 -1 1
1;
#X obj 79 40 declare -path lib;
#X msg 20 62 0 \, destroy \, reset;
#X msg 252 101 create \, 1;
#X msg 158 73 dimen 400 400 \, buffer 2 \, frame 1;
#X msg 249 50 frame 10;
#X msg 160 130 bang;
#X obj 201 178 fd_iterate 1000;
#X obj 204 408 tabwrite x;
#X obj 348 401 tabwrite y;
#X obj 388 158 array define x 1000;
#X obj 388 180 array define y 1000;
#X obj 388 202 array define z 1000;
#X obj 45 336 gemvertexbuffer;
#X msg 67 299 resize 128;
#X msg 56 218 position x y z;
#X obj 201 200 t b b f f, f 23;
#X obj 185 258 fd_markov3;
#X obj 185 280 t f f;
#X obj 305 258 fd_markov3;
#X obj 305 280 t f f;
#X msg 73 262 draw line;
#X msg 75 240 draw point;
#X obj 427 252 fd_markov3;
#X obj 427 274 t f f;
#X obj 470 395 tabwrite z;
#X obj 31 366 fd_camara;
#X obj 160 152 t b b;
#X msg 296 136 0.1 0.2;
#X obj 172 329 fd_step;
#X obj 292 329 fd_step;
#X obj 414 323 fd_step;
#X connect 1 0 9 0;
#X connect 3 0 20 0;
#X connect 7 0 3 0;
#X connect 9 0 2 0;
#X connect 10 0 2 0;
#X connect 11 0 2 0;
#X connect 12 0 2 0;
#X connect 13 0 34 0;
#X connect 14 0 23 0;
#X connect 21 0 20 0;
#X connect 22 0 20 0;
#X connect 23 0 24 0;
#X connect 23 1 26 0;
#X connect 23 1 30 0;
#X connect 23 2 15 1;
#X connect 23 3 16 1;
#X connect 23 3 32 1;
#X connect 24 0 25 0;
#X connect 25 0 24 1;
#X connect 25 1 36 1;
#X connect 26 0 27 0;
#X connect 27 0 26 1;
#X connect 27 1 37 1;
#X connect 28 0 20 0;
#X connect 29 0 20 0;
#X connect 30 0 31 0;
#X connect 31 0 30 1;
#X connect 31 1 38 1;
#X connect 34 0 22 0;
#X connect 34 1 14 0;
#X connect 35 0 24 2;
#X connect 35 0 26 2;
#X connect 35 0 30 2;
#X connect 36 0 15 0;
#X connect 37 0 16 0;
#X connect 38 0 32 0;
