#N canvas 647 99 571 516 10;
#X declare -stdlib Gem;
#X obj 30 8 declare -stdlib Gem;
#X obj 30 30 loadbang;
#X obj 30 74 gemwin;
#X obj 152 179 gemhead;
#X obj 175 383 polygon;
#X obj 267 336 pack f f 0;
#X obj 307 115 tgl 15 0 empty empty empty 17 7 0 10 -262144 -1 -1 1
1;
#X obj 205 116 spigot;
#X obj 153 198 t a b b;
#X obj 197 282 list;
#X obj 267 358 list append;
#X obj 264 384 t a a;
#X obj 307 135 sel 0;
#X obj 490 353 list length;
#X obj 490 375 / 3;
#X floatatom 490 397 5 0 0 0 - - -, f 5;
#X msg 59 274 draw linestrip;
#X floatatom 543 379 5 0 0 0 - - -, f 5;
#X obj 490 416 mod 1000;
#X msg 450 128 0 \, 1;
#X obj 490 438 sel 999;
#X obj 302 174 fd_markov3;
#X obj 302 196 t f f;
#X obj 329 218 - 1;
#X obj 225 174 fd_markov3;
#X obj 225 196 t f f;
#X obj 252 218 - 1;
#X msg 350 141 0.3 0.9;
#X msg 267 77 0.1 0.2;
#X obj 379 172 fd_markov3;
#X obj 379 194 t f f;
#X obj 406 216 - 1;
#X obj 208 136 t b b b;
#X msg 398 78 0.2 0.3;
#X msg 56 250 draw fill;
#X msg 68 298 draw line;
#X obj 5 122 gemhead;
#X obj 3 194 pix_texture;
#X msg 98 325 draw tri;
#X obj 307 302 fd_step;
#X obj 245 301 fd_step;
#X obj 384 300 fd_step;
#X obj 152 240 pix_texture;
#X msg 346 44 0.01 0.3;
#X msg 30 52 0 \, destroy \, FSAA 4 \, dimen 400 400 \, create \, 1
;
#X msg 410 43 0.1 0.25;
#X obj 7 356 fd_camara;
#X obj 20 309 square 3;
#X msg 58 229 draw point;
#X obj 3 171 pix_image img/245.jpg;
#X msg 196 346 width 1;
#X obj 407 236 * 4;
#X obj 330 239 * 3;
#X obj 253 239 * 3;
#X connect 1 0 44 0;
#X connect 3 0 8 0;
#X connect 5 0 10 0;
#X connect 6 0 7 1;
#X connect 6 0 12 0;
#X connect 7 0 32 0;
#X connect 8 0 42 0;
#X connect 8 1 9 0;
#X connect 8 2 7 0;
#X connect 9 0 4 0;
#X connect 10 0 11 0;
#X connect 11 0 9 1;
#X connect 11 1 10 1;
#X connect 11 1 13 0;
#X connect 12 0 10 1;
#X connect 13 0 14 0;
#X connect 13 0 17 0;
#X connect 14 0 15 0;
#X connect 15 0 18 0;
#X connect 16 0 4 0;
#X connect 18 0 20 0;
#X connect 19 0 6 0;
#X connect 20 0 19 0;
#X connect 21 0 22 0;
#X connect 22 0 21 1;
#X connect 22 1 23 0;
#X connect 23 0 52 0;
#X connect 24 0 25 0;
#X connect 25 0 24 1;
#X connect 25 1 26 0;
#X connect 26 0 53 0;
#X connect 27 0 21 2;
#X connect 28 0 24 2;
#X connect 29 0 30 0;
#X connect 30 0 29 1;
#X connect 30 1 31 0;
#X connect 31 0 51 0;
#X connect 32 0 24 0;
#X connect 32 1 21 0;
#X connect 32 2 29 0;
#X connect 33 0 29 2;
#X connect 34 0 4 0;
#X connect 35 0 4 0;
#X connect 36 0 49 0;
#X connect 37 1 42 1;
#X connect 38 0 4 0;
#X connect 39 0 5 1;
#X connect 40 0 5 0;
#X connect 41 0 5 2;
#X connect 42 0 4 0;
#X connect 43 0 24 2;
#X connect 43 0 21 2;
#X connect 43 0 29 2;
#X connect 44 0 2 0;
#X connect 45 0 24 2;
#X connect 45 0 21 2;
#X connect 45 0 29 2;
#X connect 48 0 4 0;
#X connect 49 0 37 0;
#X connect 50 0 4 0;
#X connect 51 0 41 1;
#X connect 52 0 39 1;
#X connect 53 0 40 1;
