#N canvas 647 99 495 367 10;
#X declare -stdlib Gem;
#X obj 30 8 declare -stdlib Gem;
#X obj 30 30 loadbang;
#X msg 30 52 0 \, destroy \, dimen 400 400 \, create \, 1;
#X obj 30 74 gemwin;
#X obj 147 140 random 800;
#X obj 48 116 gemhead;
#X obj 66 270 polygon;
#X obj 218 141 random 800;
#X obj 147 206 pack f f 0;
#X obj 121 103 t b b;
#X obj 220 82 tgl 15 0 empty empty empty 17 7 0 10 -262144 -1 -1 1
1;
#X obj 118 83 spigot;
#X obj 49 135 t a b b;
#X obj 99 225 list;
#X obj 147 228 list append;
#X obj 144 254 t a a;
#X obj 220 102 sel 0;
#X obj 220 247 list length;
#X obj 220 269 / 3;
#X floatatom 220 291 5 0 0 0 - - -, f 5;
#X obj 147 162 - 400;
#X obj 218 163 - 400;
#X obj 147 184 / 100;
#X obj 218 185 / 100;
#X msg 18 186 draw linestrip;
#X floatatom 273 273 5 0 0 0 - - -, f 5;
#X obj 85 336 print;
#X obj 220 310 mod 1000;
#X msg 325 126 0 \, 1;
#X obj 220 332 sel 999;
#X connect 1 0 2 0;
#X connect 2 0 3 0;
#X connect 4 0 20 0;
#X connect 5 0 12 0;
#X connect 7 0 21 0;
#X connect 8 0 14 0;
#X connect 9 0 4 0;
#X connect 9 1 7 0;
#X connect 10 0 11 1;
#X connect 10 0 16 0;
#X connect 11 0 9 0;
#X connect 12 0 6 0;
#X connect 12 1 13 0;
#X connect 12 2 11 0;
#X connect 13 0 6 0;
#X connect 14 0 15 0;
#X connect 15 0 13 1;
#X connect 15 1 14 1;
#X connect 15 1 17 0;
#X connect 16 0 14 1;
#X connect 17 0 18 0;
#X connect 17 0 25 0;
#X connect 18 0 19 0;
#X connect 19 0 27 0;
#X connect 20 0 22 0;
#X connect 21 0 23 0;
#X connect 22 0 8 0;
#X connect 23 0 8 1;
#X connect 24 0 6 0;
#X connect 27 0 29 0;
#X connect 28 0 10 0;
#X connect 29 0 28 0;
