#N canvas 418 26 760 533 10;
#X declare -stdlib Gem;
#X declare -path lib;
#X obj 14 10 declare -stdlib Gem;
#X obj 14 32 declare -path lib;
#X obj 14 54 loadbang;
#X msg 14 76 0 \, destroy \, reset \, dimen 400 400 \, create \, 1
;
#X obj 14 98 gemwin;
#X obj 14 120 gemhead;
#X obj 14 142 t a b;
#X obj 398 110 fd_spigot;
#X floatatom 646 110 5 0 0 0 - - -, f 5;
#X floatatom 418 54 5 0 0 0 - - -, f 5;
#X obj 668 162 pack;
#X floatatom 696 94 5 0 0 0 - - -, f 5;
#X obj 696 113 t b f;
#X obj 667 184 t b a;
#X obj 592 211 list append 0.25 0.5;
#X msg 619 386 draw linestrip \, 0 0 0 0 \$2 0 \$1 \$2 0 \$1 0 0,
f 16;
#X obj 14 439 separator;
#X obj 14 461 scale 1;
#X obj 26 495 polygon;
#X obj 14 164 scale 4 1 1 0;
#X obj 25 210 separator;
#X obj 25 280 t a a;
#X obj 174 312 separator;
#X obj 25 312 separator;
#X obj 25 375 rotate 90 0 0 1;
#X obj 25 335 translate 0.25 1 0 0;
#X obj 174 336 translate 0.75 1 0 0;
#X obj 25 255 translate 1 1 0 0;
#X obj 25 231 scale 0.25 1 1 0;
#X obj 25 397 translate -0.25 0 1 0;
#X obj 307 211 separator;
#X obj 307 281 t a a;
#X obj 456 313 separator;
#X obj 307 313 separator;
#X obj 307 376 rotate 90 0 0 1;
#X obj 307 336 translate 0.25 1 0 0;
#X obj 456 337 translate 0.75 1 0 0;
#X obj 307 232 scale 0.25 1 1 0;
#X obj 307 398 translate -0.25 0 1 0;
#X obj 14 187 t a a a;
#X obj 307 256 translate 1 1 0.75 0;
#X obj 164 375 rotate -90 0 0 1;
#X obj 164 397 translate -0.25 0 1 0;
#X connect 2 0 3 0;
#X connect 3 0 4 0;
#X connect 5 0 6 0;
#X connect 6 0 19 0;
#X connect 6 1 7 0;
#X connect 7 0 14 0;
#X connect 8 0 10 0;
#X connect 10 0 13 0;
#X connect 11 0 12 0;
#X connect 12 0 10 0;
#X connect 12 1 10 1;
#X connect 13 0 14 0;
#X connect 13 1 14 1;
#X connect 14 0 15 0;
#X connect 15 0 18 0;
#X connect 16 0 17 0;
#X connect 17 0 18 0;
#X connect 19 0 39 0;
#X connect 20 0 28 0;
#X connect 21 0 23 0;
#X connect 21 1 22 0;
#X connect 22 0 26 0;
#X connect 23 0 25 0;
#X connect 24 0 29 0;
#X connect 25 0 24 0;
#X connect 26 0 41 0;
#X connect 27 0 21 0;
#X connect 28 0 27 0;
#X connect 29 0 18 0;
#X connect 30 0 37 0;
#X connect 31 0 33 0;
#X connect 31 1 32 0;
#X connect 32 0 36 0;
#X connect 33 0 35 0;
#X connect 34 0 38 0;
#X connect 35 0 34 0;
#X connect 36 0 34 0;
#X connect 37 0 40 0;
#X connect 38 0 18 0;
#X connect 39 0 16 0;
#X connect 39 1 20 0;
#X connect 39 2 30 0;
#X connect 40 0 31 0;
#X connect 41 0 42 0;
#X connect 42 0 18 0;
