#N canvas 692 24 528 447 10;
#X declare -path ./lib;
#X declare -stdlib Gem;
#X obj 23 13 declare -path ./lib;
#N canvas 881 124 396 200 gemwin 0;
#X obj 17 35 gemwin;
#X obj 17 11 r gemwin;
#X obj 104 149 s gemwin;
#X msg 104 43 0 \, destroy \, reset \, dimen 460 480 \, buffer 1;
#X msg 160 108 create \, 1;
#X msg 58 118 bang;
#X text 81 43 1;
#X text 118 74 2;
#X msg 139 73 0 \, destroy \, buffer 2;
#X connect 1 0 0 0;
#X connect 3 0 2 0;
#X connect 4 0 2 0;
#X connect 5 0 2 0;
#X connect 8 0 2 0;
#X restore 24 70 pd gemwin;
#X obj 97 102 pix_buffer myvideo 354;
#N canvas 682 22 300 230 write-film-into-buffer__buffer1 0;
#N canvas 1059 505 421 258 loadbar 0;
#X obj 100 100 cnv 15 130 80 empty empty empty 20 12 0 14 -228856 -66577
0;
#X obj 116 162 hsl 100 12 0 1 0 0 lbar loadbar-set done 10 6 0 10 -1
-258699 -24198 9872 0;
#X obj 138 129 bng 8 100 10 1.04858e+06 empty bng-1 empty 7 8 0 10
-262144 -1 -1;
#X obj 148 119 bng 8 100 10 1.04858e+06 empty bng-2 empty 7 8 0 10
-262144 -1 -1;
#X obj 168 119 bng 8 100 10 1.04858e+06 empty bng-4 empty 7 8 0 10
-262144 -1 -1;
#X obj 178 129 bng 8 100 10 1.04858e+06 empty bng-5 empty 7 8 0 10
-262144 -1 -1;
#X obj 168 139 bng 8 100 10 1.04858e+06 empty bng-6 empty 7 8 0 10
-262144 -1 -1;
#X obj 149 139 bng 8 100 10 1.04858e+06 empty bng-0 empty 7 8 0 10
-262144 -1 -1;
#X obj 158 109 bng 8 100 10 1.04858e+06 empty bng-3 empty 7 8 0 10
-262144 -1 -1;
#X obj 158 149 bng 8 100 10 1.04858e+06 empty bng-7 empty 7 8 0 10
-262144 -1 -1;
#X obj 216 103 tgl 8 0 empty empty empty 17 7 0 10 -262144 -1 -1 0
1;
#X obj 235 19 tgl 40 0 empty empty empty 17 7 0 10 -262144 -1 -1 0
1;
#X obj 235 111 sel 1;
#X obj 235 133 t b b;
#X msg 235 159 set 1;
#X obj 287 59 sel 0;
#X obj 287 81 t b b;
#X msg 334 86 set 0;
#N canvas 548 563 472 319 guts 0;
#X obj 21 118 f;
#X obj 45 118 + 1;
#X obj 220 27 loadbang;
#X obj 21 63 / 354;
#X obj 48 40 r n-frame;
#X obj 219 121 r end-reached;
#X obj 21 17 r c-frame;
#X msg 31 213 symbol loading.;
#X msg 44 232 symbol loading..;
#X msg 57 250 symbol loading...;
#X msg 21 193 symbol loading;
#X obj 21 163 sel 0 1 2 3;
#X obj 21 140 mod 4;
#X obj 21 97 t b f;
#X obj 93 114 s loadbar-set;
#X msg 219 143 \; loadbar-set label done;
#X msg 220 49 \; loadbar-set label waiting_to_load;
#X msg 21 276 \; loadbar-set label \$1;
#X obj 112 135 mod 8;
#X msg 155 136 1;
#X msg 112 157 \; bng-\$1 bang \;;
#X connect 0 0 1 0;
#X connect 0 0 12 0;
#X connect 0 0 18 0;
#X connect 1 0 0 1;
#X connect 2 0 16 0;
#X connect 3 0 13 0;
#X connect 4 0 3 1;
#X connect 5 0 15 0;
#X connect 6 0 3 0;
#X connect 7 0 17 0;
#X connect 8 0 17 0;
#X connect 9 0 17 0;
#X connect 10 0 17 0;
#X connect 11 0 10 0;
#X connect 11 1 7 0;
#X connect 11 2 8 0;
#X connect 11 3 9 0;
#X connect 12 0 11 0;
#X connect 13 0 0 0;
#X connect 13 1 14 0;
#X connect 18 0 20 0;
#X connect 19 0 20 0;
#X restore 101 183 pd guts;
#X text 172 28 close ->;
#X msg 287 175 \; pd-loadbar vis \$1;
#X msg 287 103 0;
#X msg 296 150 1;
#X connect 10 0 12 0;
#X connect 11 0 15 0;
#X connect 12 0 13 0;
#X connect 13 0 14 0;
#X connect 13 1 22 0;
#X connect 14 0 11 0;
#X connect 15 0 16 0;
#X connect 16 0 21 0;
#X connect 16 1 17 0;
#X connect 17 0 10 0;
#X connect 21 0 20 0;
#X connect 22 0 20 0;
#X coords 0 -1 1 1 130 80 2 100 100;
#X restore 18 19 pd loadbar;
#N canvas 784 26 234 489 frame-loader 0;
#X obj 30 134 cputime;
#X floatatom 30 156 5 0 0 0 - - -, f 5;
#X obj 21 105 t b b b;
#X obj 30 175 < 500;
#X obj 30 197 tgl 15 0 empty empty empty 17 7 0 10 -262144 -1 -1 1
1;
#X obj 21 228 spigot;
#X obj 21 250 bng 15 250 50 0 empty empty empty 17 7 0 10 -262144 -1
-1;
#X obj 21 77 metro 300;
#X obj 21 55 tgl 15 0 empty empty empty 17 7 0 10 -262144 -1 -1 0 1
;
#X obj 21 277 f;
#X obj 51 276 + 1;
#X obj 21 335 moses;
#X obj 21 417 change;
#X msg 143 130 0;
#X msg 21 35 0;
#X obj 48 363 t b;
#X obj 21 12 r end-reached;
#X obj 48 304 r n-frame;
#X obj 48 385 s end-reached;
#X obj 21 439 s c-frame;
#X msg 116 62 1;
#X obj 116 38 t b b;
#X obj 116 16 r load-frames;
#X connect 0 0 1 0;
#X connect 1 0 3 0;
#X connect 2 0 5 0;
#X connect 2 1 0 0;
#X connect 2 2 0 1;
#X connect 3 0 4 0;
#X connect 4 0 5 1;
#X connect 5 0 6 0;
#X connect 6 0 9 0;
#X connect 7 0 2 0;
#X connect 8 0 7 0;
#X connect 9 0 10 0;
#X connect 9 0 11 0;
#X connect 10 0 9 1;
#X connect 11 0 12 0;
#X connect 11 1 15 0;
#X connect 12 0 19 0;
#X connect 13 0 9 1;
#X connect 14 0 8 0;
#X connect 15 0 18 0;
#X connect 16 0 14 0;
#X connect 17 0 11 1;
#X connect 20 0 8 0;
#X connect 21 0 20 0;
#X connect 21 1 13 0;
#X connect 22 0 21 0;
#X restore 26 139 pd frame-loader;
#N canvas 0 22 294 231 aspect-ratio 0;
#X obj 52 110 t b f b;
#X obj 91 139 s gemwin;
#X obj 52 187 s \$0-gemhead;
#X obj 71 162 s aspect-width;
#X obj 165 102 / 100;
#X obj 52 19 r aspects;
#X obj 52 67 +;
#X obj 165 124 t b f;
#X obj 52 41 + 1;
#X obj 165 15 r aspect-p;
#X obj 165 59 t b f;
#X obj 165 81 f;
#X obj 195 82 + 1;
#X obj 212 38 r aspect-m;
#X msg 165 37 5;
#X msg 212 60 -5;
#X obj 52 132 del 100;
#X connect 0 0 16 0;
#X connect 0 1 3 0;
#X connect 0 2 1 0;
#X connect 4 0 7 0;
#X connect 5 0 8 0;
#X connect 6 0 0 0;
#X connect 7 0 6 0;
#X connect 7 1 6 1;
#X connect 8 0 6 0;
#X connect 9 0 14 0;
#X connect 10 0 11 0;
#X connect 10 1 12 1;
#X connect 11 0 12 0;
#X connect 11 0 4 0;
#X connect 12 0 11 1;
#X connect 13 0 15 0;
#X connect 14 0 10 0;
#X connect 15 0 10 0;
#X connect 16 0 2 0;
#X restore 26 118 pd aspect-ratio;
#N canvas 0 22 163 257 misc 0;
#X obj 23 115 tgl 15 0 empty empty empty 17 7 0 10 -262144 -1 -1 0
1;
#X obj 23 26 r gemwin;
#X obj 23 48 route buffer;
#X obj 23 70 sel 2;
#X msg 23 92 0;
#X obj 23 135 s \$0-gemhead;
#X text 13 165 turn gemhead off when switching to buffer 2, f 14;
#X connect 0 0 5 0;
#X connect 1 0 2 0;
#X connect 2 0 3 0;
#X connect 3 0 4 0;
#X connect 4 0 0 0;
#X restore 27 186 pd misc;
#X obj 154 84 bng 15 250 50 0 load-frames empty load-frames 17 7 0
10 -262144 -1 -1;
#X obj 154 19 bng 15 250 50 0 load-film empty load-film 17 7 0 10 -262144
-1 -1;
#X obj 154 62 tgl 15 0 frame-change-sp empty frame-change-sp 17 7 0
10 -262144 -1 -1 1 1;
#N canvas 319 174 507 545 load-video 0;
#X obj 156 71 gemhead;
#X obj 178 276 unpack f f f, f 13;
#X obj 156 346 pix_texture;
#X obj 156 213 pix_film;
#X obj 156 400 rectangle;
#X obj 258 134 t b f f;
#X obj 156 467 pix_buffer_write myvideo;
#X obj 258 102 spigot;
#X obj 299 73 tgl 15 0 empty empty empty 17 7 0 10 -262144 -1 -1 1
1;
#X text 319 80 <- 3 enable frame change, f 14;
#X obj 265 329 aspect 2.5;
#X obj 201 252 s end-reached;
#X obj 178 311 s n-frame;
#X obj 258 25 r c-frame;
#N canvas 0 22 450 300 load-film 0;
#X msg 63 83 open lib/subway.mov;
#X msg 116 153 open nothing;
#X text 197 81 <-- 1 load video;
#X text 196 152 <-- unload (just in case);
#X obj 91 229 outlet;
#X obj 119 121 r end-reached;
#X obj 60 50 r load-film;
#X connect 0 0 4 0;
#X connect 1 0 4 0;
#X connect 5 0 1 0;
#X connect 6 0 0 0;
#X restore 168 186 pd load-film;
#X obj 156 29 r \$0-gemhead;
#X obj 322 305 r aspect-width;
#X text 78 170 movie will be loaded here -->, f 9;
#X obj 291 52 r frame-change-sp;
#X text 36 447 finally this will store frames into a buffer -->, f
17;
#X text 56 338 it will be texturized -->, f 10;
#X text 35 407 (onto a rectanble);
#X obj 258 156 s \$0-gemhead;
#N canvas 0 22 450 300 resend-info 0;
#X obj 164 137 r resend-film-info;
#X msg 176 158 set \$1 \$2 \$3;
#X msg 176 182 354 1920 1080;
#X msg 164 207 \; n-frame \$1 \; size \$2 \$3 \;;
#X obj 149 91 inlet;
#X connect 0 0 2 0;
#X connect 1 0 2 0;
#X connect 2 0 3 0;
#X connect 4 0 1 0;
#X restore 327 230 pd resend-info;
#X obj 334 256 r size;
#X obj 334 278 unpack;
#X floatatom 375 151 5 0 0 0 - - -, f 5;
#X connect 0 0 3 0;
#X connect 1 0 12 0;
#X connect 1 1 10 0;
#X connect 1 2 10 1;
#X connect 2 0 4 0;
#X connect 3 0 2 0;
#X connect 3 1 1 0;
#X connect 3 1 23 0;
#X connect 3 2 11 0;
#X connect 4 0 6 0;
#X connect 5 0 22 0;
#X connect 5 1 3 1;
#X connect 5 2 6 1;
#X connect 5 2 26 0;
#X connect 7 0 5 0;
#X connect 10 0 4 1;
#X connect 10 1 4 2;
#X connect 13 0 7 0;
#X connect 14 0 3 0;
#X connect 15 0 0 0;
#X connect 16 0 10 2;
#X connect 18 0 8 0;
#X connect 18 0 7 1;
#X connect 24 0 25 0;
#X connect 25 0 10 0;
#X connect 25 1 10 1;
#X restore 26 161 pd load-video;
#X obj 154 42 hradio 15 1 0 4 aspects empty empty 0 -8 0 10 -262144
-1 -1 3;
#X obj 218 42 bng 15 100 50 0 aspect-m empty - 5 7 0 10 -262144 -258113
-1;
#X obj 238 42 bng 15 100 50 0 aspect-p empty + 5 7 0 10 -262144 -4034
-1;
#X obj 154 104 bng 15 250 50 0 end-reached empty stop 17 7 0 10 -262144
-1 -1;
#X obj 154 122 bng 15 250 50 0 gemwin empty clear_screen 17 7 0 10
-262144 -1 -1;
#X text 112 161 <-- here;
#X restore 26 128 pd write-film-into-buffer__buffer1;
#N canvas 714 58 452 416 read-film__buffer1 0;
#X obj 75 177 t b f;
#X obj 75 199 gemhead;
#X obj 75 271 pix_buffer_read myvideo;
#X obj 75 293 pix_texture;
#X obj 97 228 t a a a a a a a a a;
#X floatatom 241 297 5 0 0 0 - - -, f 5;
#X floatatom 241 330 5 0 0 0 - - -, f 5;
#X obj 347 18 r gemwin;
#X obj 347 40 route buffer;
#X obj 347 62 sel 2;
#X msg 347 84 0;
#X text 277 291 <- try this;
#X text 278 332 <- try this;
#X obj 75 337 scale 1;
#X obj 75 315 rotateXYZ 0 0 0;
#X obj 74 362 rectangle 4 3;
#X obj 208 72 random 354;
#X obj 208 27 tgl 15 0 empty empty empty 17 7 0 10 -262144 -1 -1 0
1;
#X obj 208 46 metro 100;
#X obj 278 197 bng 15 250 50 0 gemwin empty clear_screen 17 7 0 10
-262144 -1 -1;
#X obj 269 46 r n-frame;
#N canvas 745 271 450 300 rand-direction 0;
#X obj 57 45 metro 33;
#X obj 57 111 f;
#X obj 109 111 mod 354;
#X msg 242 158 -1;
#X msg 287 157 1;
#X obj 83 111 + 1;
#X obj 244 37 r n-frame;
#X obj 94 146 sel 353;
#X obj 78 84 random 354;
#X obj 145 146 t b b;
#X obj 242 106 random 100;
#X obj 242 128 moses 23;
#X obj 57 146 t f f;
#X text 241 182 change direction;
#X text 69 67 random start point;
#X obj 57 18 inlet;
#X floatatom 244 59 5 0 0 0 - - -, f 5;
#X obj 57 210 s r-frame;
#X connect 0 0 1 0;
#X connect 1 0 5 0;
#X connect 1 0 12 0;
#X connect 2 0 1 1;
#X connect 3 0 5 1;
#X connect 4 0 5 1;
#X connect 5 0 2 0;
#X connect 6 0 2 1;
#X connect 6 0 16 0;
#X connect 7 0 9 0;
#X connect 8 0 1 1;
#X connect 9 0 8 0;
#X connect 9 1 10 0;
#X connect 10 0 11 0;
#X connect 11 0 3 0;
#X connect 11 1 4 0;
#X connect 12 0 17 0;
#X connect 12 1 7 0;
#X connect 15 0 0 0;
#X restore 64 23 pd rand-direction;
#X obj 64 3 tgl 15 0 empty empty empty 17 7 0 10 -262144 -1 -1 0 1
;
#X obj 278 215 bng 15 250 50 0 resend-film-info empty resend-film-info
17 7 0 10 -262144 -1 -1;
#X obj 75 154 r r-frame;
#X obj 208 94 s r-frame;
#X obj 73 45 tgl 15 0 empty empty empty 17 7 0 10 -262144 -1 -1 0 1
;
#X obj 73 65 metro 33;
#X obj 73 87 f;
#X obj 101 88 + 1;
#X obj 132 66 r n-frame;
#X obj 73 129 s r-frame;
#X obj 73 109 + 1;
#X obj 125 88 mod 353;
#X connect 0 0 1 0;
#X connect 0 1 2 1;
#X connect 1 0 2 0;
#X connect 2 0 3 0;
#X connect 3 0 14 0;
#X connect 4 0 2 0;
#X connect 4 1 2 0;
#X connect 4 2 2 0;
#X connect 4 3 2 0;
#X connect 4 4 2 0;
#X connect 4 5 2 0;
#X connect 4 6 2 0;
#X connect 4 7 2 0;
#X connect 4 8 2 0;
#X connect 5 0 14 3;
#X connect 6 0 13 1;
#X connect 7 0 8 0;
#X connect 8 0 9 0;
#X connect 9 0 10 0;
#X connect 10 0 1 0;
#X connect 13 0 15 0;
#X connect 14 0 13 0;
#X connect 16 0 25 0;
#X connect 17 0 18 0;
#X connect 18 0 16 0;
#X connect 20 0 16 1;
#X connect 22 0 21 0;
#X connect 24 0 0 0;
#X connect 26 0 27 0;
#X connect 27 0 28 0;
#X connect 28 0 29 0;
#X connect 28 0 32 0;
#X connect 29 0 33 0;
#X connect 30 0 33 1;
#X connect 32 0 31 0;
#X connect 33 0 28 1;
#X restore 26 208 pd read-film__buffer1;
#N canvas 477 22 554 607 read-film__buffer2 0;
#X obj 26 55 gemhead;
#X obj 26 253 pix_buffer_read myvideo;
#X obj 26 528 pix_texture;
#X obj 26 549 square 4;
#X obj 26 29 tgl 15 0 empty empty empty 17 7 0 10 -262144 -1 -1 0 1
;
#X obj 160 94 f;
#X obj 197 95 + 1;
#X obj 26 149 alpha 1;
#X msg 217 267 \$1 \$1 1;
#X msg 283 233 set \, adddollar 1 \, adddollar 1 \, add2 1;
#X obj 76 143 tgl 15 0 empty empty empty 17 7 0 10 -262144 -1 -1 1
1;
#X obj 26 177 t a a a a a a a a;
#X msg 282 211 set \, adddollar 1 \, add2 1 \, adddollar 1;
#X msg 282 191 set \, add2 1 \, adddollar 1 \, adddollar 1;
#X obj 26 429 shearYX 0.02;
#X obj 46 5 loadbang;
#X msg 46 27 0;
#X obj 278 275 r from-audio-pd;
#X obj 306 370 route env;
#X obj 26 374 translateXYZ;
#X obj 26 504 scale 0.5;
#X obj 51 477 r scale;
#X obj 46 324 r translate;
#X obj 46 344 unpack f f f;
#X obj 336 136 r filter;
#X obj 336 158 sel 0 1 2;
#X obj 65 120 r alpha;
#X floatatom 306 392 5 0 0 0 - - -, f 5;
#X obj 161 116 mod 353;
#X obj 161 184 +;
#X obj 26 77 t a b;
#X obj 26 398 color 0 0 1;
#X obj 319 339 spigot;
#X obj 392 307 r spigot-env;
#X obj 392 329 t f f;
#X obj 392 351 sel 0;
#X msg 375 426 0;
#X text 339 16 change to buffer 2 first!;
#X connect 0 0 30 0;
#X connect 1 0 19 0;
#X connect 2 0 3 0;
#X connect 4 0 0 0;
#X connect 5 0 6 0;
#X connect 5 0 28 0;
#X connect 6 0 5 1;
#X connect 7 0 11 0;
#X connect 8 0 31 1;
#X connect 9 0 8 0;
#X connect 11 0 1 0;
#X connect 11 1 1 0;
#X connect 11 2 1 0;
#X connect 11 3 1 0;
#X connect 11 4 1 0;
#X connect 11 5 1 0;
#X connect 11 6 1 0;
#X connect 11 7 1 0;
#X connect 12 0 8 0;
#X connect 13 0 8 0;
#X connect 14 0 20 0;
#X connect 15 0 16 0;
#X connect 16 0 4 0;
#X connect 17 0 32 0;
#X connect 18 0 8 0;
#X connect 18 0 27 0;
#X connect 18 0 14 1;
#X connect 19 0 31 0;
#X connect 20 0 2 0;
#X connect 21 0 20 1;
#X connect 22 0 23 0;
#X connect 23 0 19 1;
#X connect 23 1 19 2;
#X connect 23 2 19 3;
#X connect 24 0 25 0;
#X connect 25 0 13 0;
#X connect 25 1 12 0;
#X connect 25 2 9 0;
#X connect 26 0 7 1;
#X connect 26 0 10 0;
#X connect 28 0 29 0;
#X connect 29 0 1 1;
#X connect 30 0 7 0;
#X connect 30 1 5 0;
#X connect 31 0 14 0;
#X connect 32 0 18 0;
#X connect 33 0 34 0;
#X connect 34 0 35 0;
#X connect 34 1 32 1;
#X connect 35 0 36 0;
#X connect 36 0 14 1;
#X restore 26 241 pd read-film__buffer2;
#N canvas 523 527 361 205 presets 0;
#X msg 39 34 \; scale 2.09 \; translate -0.05 0 0.04 \; filter 2 \;
alpha 1 \;;
#X floatatom 224 12 5 0 0 0 - - -, f 5;
#X msg 191 37 \; scale 1 \; translate -0.05 0 0.04 \; filter 2 \; alpha
1 \;;
#X msg 38 112 \; scale 0.94 \; translate 0.05 0.2 0.53 \; filter 1
\; alpha 1 \;;
#X connect 1 0 2 0;
#X restore 180 241 pd presets;
#N canvas 0 22 450 300 netsend 0;
#X msg 23 59 connect localhost 3001;
#X obj 23 138 netsend;
#X floatatom 23 160 5 0 0 0 - - -, f 5;
#X obj 62 216 s from-audio-pd;
#X obj 38 83 r to-audio-pd;
#X msg 185 58 disconnect;
#X obj 23 29 r connect;
#X obj 73 169 route test;
#X obj 73 191 print test;
#X connect 0 0 1 0;
#X connect 1 0 2 0;
#X connect 1 1 3 0;
#X connect 1 1 7 0;
#X connect 4 0 1 0;
#X connect 5 0 1 0;
#X connect 6 0 0 0;
#X connect 7 0 8 0;
#X restore 30 385 pd netsend;
#X obj 24 40 bng 16 50 10 0 connect connect-set 2.then_connect 20 8
0 10 -262144 -1 -1;
#N canvas 43 68 224 284 send-histogram 0;
#X obj 23 33 tgl 15 0 empty empty empty 17 7 0 10 -262144 -1 -1 0 1
;
#X obj 23 104 metro 2.90249;
#X msg 36 81 tempo 128 samp;
#X obj 23 234 s to-audio-pd;
#X obj 36 57 loadbang;
#X obj 23 178 list prepend send histogram;
#X obj 23 200 list trim;
#X obj 23 146 array get histogram;
#X obj 23 10 inlet;
#X connect 0 0 1 0;
#X connect 1 0 7 0;
#X connect 2 0 1 0;
#X connect 4 0 2 0;
#X connect 5 0 6 0;
#X connect 6 0 3 0;
#X connect 7 0 5 0;
#X connect 8 0 0 0;
#X restore 29 353 pd send-histogram;
#X obj 29 328 tgl 15 0 empty empty empty 17 7 0 10 -262144 -1 -1 0
1;
#X text 4 131 1;
#X text 4 209 2;
#X text 5 241 3;
#X obj 26 269 tgl 15 0 empty empty empty 17 7 0 10 -262144 -1 -1 0
1;
#X text 4 293 4;
#X text 4 328 5;
#X obj 176 302 tgl 15 0 empty empty empty 17 7 0 10 -262144 -1 -1 0
1;
#X obj 176 322 s spigot-env;
#X text 26 104 a must -->;
#N canvas 577 22 404 644 snap-to-histogram 0;
#X obj 21 229 pix_snap 0 0 500 500;
#X obj 21 166 t a b;
#X obj 48 195 spigot;
#X obj 153 48 tgl 15 0 empty empty empty 17 7 0 10 -262144 -1 -1 0
1;
#X obj 21 124 gemhead -1;
#X msg 47 354 set histoR histoG histoB;
#X msg 38 328 set histogram;
#X obj 209 484 array define histogram 128;
#X obj 208 543 array define histoR 128;
#X obj 208 563 array define histoG 128;
#X obj 208 583 array define histoB 128;
#X obj 21 383 pix_histo histogram;
#X obj 21 34 loadbang;
#X msg 21 56 0;
#X text 205 521 for separate R \, G \, B;
#X text 205 463 for Greyscale;
#X text 150 229 <-- grabs the current frame;
#X text 174 246 (offset x y \, size x y);
#X text 171 47 <-- enable grabbing, f 10;
#X obj 153 27 inlet;
#X text 159 387 <-- outputs a histogram (it must have an array or Pd
will crash!), f 27;
#X text 77 468 the histogram array is here -->, f 18;
#X text 100 542 or here -->;
#X text 63 167 <-- grabs upon bang;
#X connect 0 0 11 0;
#X connect 1 0 0 0;
#X connect 1 1 2 0;
#X connect 2 0 0 0;
#X connect 3 0 2 1;
#X connect 3 0 4 0;
#X connect 4 0 1 0;
#X connect 5 0 11 0;
#X connect 6 0 11 0;
#X connect 12 0 13 0;
#X connect 13 0 4 0;
#X connect 19 0 3 0;
#X restore 26 291 pd snap-to-histogram;
#X text 92 69 <-- create the gemwin!!;
#X text 3 72 0;
#X obj 146 13 declare -stdlib Gem;
#X msg 34 154 354;
#X obj 34 176 fd_iterate;
#X msg 130 156 save /Users/federicocamarahalac/Downloads/session-20/vid/img-\$1.jpg
\$1;
#X msg 128 39 save /Users/federicocamarahalac/Downloads/session-20/vid/img-\$1.jpg
\$1;
#X msg 289 16 1;
#X obj 34 198 + 1;
#X connect 10 0 9 0;
#X connect 14 0 20 0;
#X connect 17 0 18 0;
#X connect 24 0 25 0;
#X connect 25 0 29 0;
#X connect 26 0 2 0;
#X connect 27 0 2 0;
#X connect 28 0 27 0;
#X connect 29 0 26 0;
