#N canvas 556 53 201 167 10;
#X declare -stdlib Gem;
#X obj 42 64 hsl 100 12 0 1 0 0 lbar loadbar-set waiting_to_load 10
6 0 10 -1 -258699 -24198 0 0;
#X obj 64 31 bng 8 100 10 1.04858e+06 empty bng-1 empty 7 8 0 10 -262144
-1 -1;
#X obj 74 21 bng 8 100 10 1.04858e+06 empty bng-2 empty 7 8 0 10 -262144
-1 -1;
#X obj 94 21 bng 8 100 10 1.04858e+06 empty bng-4 empty 7 8 0 10 -262144
-1 -1;
#X obj 104 31 bng 8 100 10 1.04858e+06 empty bng-5 empty 7 8 0 10 -262144
-1 -1;
#X obj 94 41 bng 8 100 10 1.04858e+06 empty bng-6 empty 7 8 0 10 -262144
-1 -1;
#X obj 75 41 bng 8 100 10 1.04858e+06 empty bng-0 empty 7 8 0 10 -262144
-1 -1;
#X obj 84 11 bng 8 100 10 1.04858e+06 empty bng-3 empty 7 8 0 10 -262144
-1 -1;
#X obj 84 51 bng 8 100 10 1.04858e+06 empty bng-7 empty 7 8 0 10 -262144
-1 -1;
#N canvas 462 29 759 745 guts 1;
#X obj 160 108 cputime;
#X obj 160 131 < 500;
#X obj 152 154 spigot;
#X obj 152 203 f;
#X obj 182 202 + 1;
#X obj 152 228 moses;
#X msg 167 180 0;
#X obj 45 296 gemhead;
#X obj 45 358 pix_film;
#X obj 275 100 f;
#X obj 299 100 + 1;
#X obj 94 441 / 354;
#X obj 275 145 sel 0 1 2 3;
#X obj 275 122 mod 4;
#X obj 94 462 s loadbar-set;
#X obj 353 117 mod 8;
#X msg 353 139 \; bng-\$1 bang \;;
#X obj 263 727 s \$0-myvideo;
#N canvas 0 22 258 94 \$0-buffer 0;
#X obj 10 10 pix_buffer 1003-myvideo 17579;
#X restore 46 769 pd \$0-buffer;
#X obj 103 380 list split 1, f 13;
#X obj 152 279 t b f f f;
#X obj 152 86 t b b b;
#X obj 152 63 metro 300;
#X obj 275 57 metro 50;
#X obj 243 462 f;
#X msg 252 406 0;
#X obj 213 375 t b b b;
#X msg 232 341 open free;
#X obj 152 29 t f f f, f 21;
#X msg 275 175 label .;
#X msg 285 195 label ..;
#X msg 298 214 label ...;
#X msg 311 231 label ....;
#X obj 328 278 s loadbar-set;
#X obj 213 155 sel 1 0;
#X obj 45 742 pix_buffer_write \$0-myvideo;
#X msg 53 337 open \$1;
#X obj 53 318 symbol;
#X obj 45 203 r film-name;
#X obj 152 7 r load;
#X obj 252 428 s load;
#X obj 45 698 pix_info, f 18;
#X obj 152 255 change -1;
#X msg 274 611 set \$1;
#X obj 348 566 symbol;
#X obj 263 636 makefilename;
#X obj 263 658 list prepend save;
#X obj 263 680 list;
#X obj 263 702 list trim;
#N canvas 563 320 450 300 loaded-film 0;
#X obj 27 52 unpack;
#X obj 28 73 sel -1 1;
#X obj 66 253 s printer;
#X msg 49 203 **** \, couldn't find file;
#X msg 167 172 **** \, file loaded succesfully;
#X obj 119 119 t b b;
#X obj 315 262 s load;
#X msg 315 241 1;
#X obj 28 30 inlet;
#X obj 32 118 spigot 1;
#X obj 32 140 t b b;
#X msg 68 140 0;
#X obj 119 74 spigot 1;
#X obj 119 96 t b b;
#X msg 155 96 0;
#X obj 262 83 r film-name;
#X obj 262 105 bang;
#X msg 262 127 1;
#X obj 264 202 t b b;
#X obj 314 221 del 5000;
#X msg 103 229 **** \, beginning in 5 seconds;
#X connect 0 0 1 0;
#X connect 1 0 9 0;
#X connect 1 1 12 0;
#X connect 3 0 2 0;
#X connect 4 0 2 0;
#X connect 5 0 18 0;
#X connect 5 1 4 0;
#X connect 7 0 6 0;
#X connect 8 0 0 0;
#X connect 9 0 10 0;
#X connect 10 0 3 0;
#X connect 10 1 11 0;
#X connect 11 0 9 1;
#X connect 12 0 13 0;
#X connect 13 0 5 0;
#X connect 13 1 14 0;
#X connect 14 0 12 1;
#X connect 15 0 16 0;
#X connect 16 0 17 0;
#X connect 17 0 12 1;
#X connect 17 0 9 1;
#X connect 18 0 20 0;
#X connect 18 1 19 0;
#X connect 19 0 7 0;
#X connect 20 0 2 0;
#X restore 65 721 pd loaded-film;
#X obj 263 590 t f f;
#X obj 243 484 t f b;
#X obj 263 547 until;
#X obj 263 569 f;
#X obj 288 570 + 1;
#X obj 263 526 t f f b;
#X msg 303 546 0;
#X obj 313 571 mod;
#X text 332 462 FULL PATH TO DIRECTORY <main.pd>;
#X text 341 438 EDIT IF NECESSARYs;
#X obj 346 484 cnv 15 100 60 empty empty empty 20 12 0 14 -233017 -66577
0;
#X msg 348 501 /Users/nyu/Desktop/vid2img, f 14;
#X floatatom 250 287 5 0 0 0 - - -, f 5;
#X msg 323 254 label done;
#X obj 348 587 makefilename %s/img/img-%%d.jpg;
#X obj 213 245 bng 15 250 50 0 empty empty empty 17 7 0 10 -262144
-1 -1;
#X obj 348 352 r full-path;
#X obj 348 374 symbol;
#X obj 434 139 gemhead;
#X obj 434 276 circle 0.1;
#X obj 485 159 / 1000;
#X obj 275 79 t b b;
#X obj 434 96 t b b;
#X obj 434 230 pix_texture;
#X obj 434 208 translateXYZ;
#X obj 533 182 / 1000;
#X obj 533 160 - 4000;
#X obj 533 137 random 8000;
#X obj 485 115 random 32000;
#X obj 485 137 - 16000;
#N canvas 880 161 370 269 misc 0;
#X obj 83 182 r printer;
#X obj 55 220 print img2vid;
#X obj 181 18 loadbang;
#X obj 181 63 s loadbar-set;
#X msg 181 40 label waiting_to_load;
#X obj 14 21 r load;
#X obj 82 20 r film-name;
#X obj 64 83 symbol;
#X obj 14 43 sel 0 1;
#X obj 64 105 list append \$0-myvideo;
#X msg 64 126 loading <\$1> into buffer <\$2>;
#X msg 25 154 done loading;
#X obj 82 42 symbol;
#X connect 0 0 1 0;
#X connect 2 0 4 0;
#X connect 4 0 3 0;
#X connect 5 0 8 0;
#X connect 6 0 12 0;
#X connect 7 0 9 0;
#X connect 8 0 11 0;
#X connect 8 1 7 0;
#X connect 9 0 10 0;
#X connect 10 0 1 0;
#X connect 11 0 1 0;
#X connect 12 0 7 1;
#X restore 460 33 pd misc;
#X obj 460 14 declare -stdlib Gem;
#N canvas 926 350 449 289 gemwin 0;
#X msg 28 115 create \, 1;
#X obj 28 149 gemwin;
#X obj 28 20 loadbang;
#X obj 28 42 t b b;
#X obj 28 64 del 100;
#X msg 51 83 0 \, destroy \, reset \, dimen 400 100 \, title vid2img
\, buffer 1;
#X obj 99 110 r load;
#X obj 99 132 sel 0;
#X connect 0 0 1 0;
#X connect 2 0 3 0;
#X connect 3 0 4 0;
#X connect 3 1 5 0;
#X connect 4 0 0 0;
#X connect 5 0 1 0;
#X connect 6 0 7 0;
#X connect 7 0 1 0;
#X restore 508 33 pd gemwin;
#X obj 45 230 t b a;
#X obj 67 380 t a a;
#X obj 68 552 list prepend \$0;
#X obj 94 422 t f f f;
#X obj 67 484 list split 1, f 13;
#X obj 67 506 min 400;
#X obj 67 528 list;
#X obj 103 402 min 400;
#X obj 45 252 del 6000;
#X obj 553 209 r loadbar-set;
#X obj 553 455 gemhead;
#X obj 626 439 * 32;
#X obj 553 499 rectangle 16 4;
#X obj 553 477 translate -32 1 0 0;
#X obj 625 458 - 32;
#X obj 597 417 line;
#X obj 597 395 pack f 300;
#X obj 553 253 t b f f;
#X obj 604 276 change;
#X obj 604 298 bang;
#X obj 604 320 tgl 15 0 empty empty empty 17 7 0 10 -262144 -1 -1 0
1;
#X obj 604 340 sel 0 1;
#X obj 604 362 timer;
#X obj 553 231 route float;
#X msg 67 577 \; pd-\$1-buffer clear \, obj 10 10 pix_buffer \$1-myvideo
\$2 \; \$1-myvideo allocate \$3 \$4 4, f 17;
#X obj 243 506 t b f;
#X obj 243 749 t b b;
#X obj 438 653 tgl 15 0 empty empty empty 17 7 0 10 -262144 -1 -1 0
1;
#X obj 438 673 metro 1000;
#X obj 438 695 int 5;
#X obj 438 717 - 1;
#X obj 483 693 t f f;
#X obj 483 715 sel 0;
#X msg 478 640 0;
#X msg 335 749 1;
#X msg 540 708 quitting pd in \$1;
#X obj 540 730 s printer;
#X msg 392 729 quit;
#X obj 392 751 s pd;
#X msg 348 396 set \$1;
#X obj 483 737 t b b b;
#X obj 556 535 r load;
#X obj 556 557 sel 1;
#X obj 556 579 timer;
#X obj 556 601 / 1000;
#X obj 556 623 t f f;
#X obj 556 645 / 60;
#X obj 556 667 int;
#X obj 595 665 pack;
#X msg 556 688 elapsed time (m:s): \$1:\$2;
#X connect 0 0 1 0;
#X connect 1 0 2 1;
#X connect 2 0 3 0;
#X connect 3 0 4 0;
#X connect 3 0 5 0;
#X connect 4 0 3 1;
#X connect 5 0 42 0;
#X connect 5 1 65 0;
#X connect 6 0 3 1;
#X connect 7 0 8 0;
#X connect 8 0 41 0;
#X connect 8 1 84 0;
#X connect 8 2 26 0;
#X connect 9 0 10 0;
#X connect 9 0 13 0;
#X connect 9 0 15 0;
#X connect 10 0 9 1;
#X connect 11 0 14 0;
#X connect 12 0 29 0;
#X connect 12 1 30 0;
#X connect 12 2 31 0;
#X connect 12 3 32 0;
#X connect 13 0 12 0;
#X connect 15 0 16 0;
#X connect 19 0 90 0;
#X connect 20 0 7 0;
#X connect 20 1 8 1;
#X connect 20 2 35 1;
#X connect 20 3 11 0;
#X connect 20 3 62 0;
#X connect 21 0 2 0;
#X connect 21 1 0 0;
#X connect 21 2 0 1;
#X connect 22 0 21 0;
#X connect 23 0 71 0;
#X connect 24 0 51 0;
#X connect 25 0 40 0;
#X connect 26 0 24 0;
#X connect 26 1 27 0;
#X connect 26 2 25 0;
#X connect 27 0 8 0;
#X connect 28 0 22 0;
#X connect 28 1 34 0;
#X connect 28 2 23 0;
#X connect 29 0 33 0;
#X connect 30 0 33 0;
#X connect 31 0 33 0;
#X connect 32 0 33 0;
#X connect 34 0 6 0;
#X connect 34 1 63 0;
#X connect 36 0 8 0;
#X connect 37 0 36 0;
#X connect 38 0 83 0;
#X connect 39 0 28 0;
#X connect 41 0 35 0;
#X connect 41 6 49 0;
#X connect 42 0 20 0;
#X connect 43 0 45 0;
#X connect 44 0 64 0;
#X connect 45 0 46 0;
#X connect 46 0 47 0;
#X connect 47 0 48 0;
#X connect 48 0 17 0;
#X connect 50 0 45 0;
#X connect 50 1 47 1;
#X connect 51 0 108 0;
#X connect 51 1 61 0;
#X connect 52 0 53 0;
#X connect 53 0 54 0;
#X connect 53 0 50 0;
#X connect 54 0 57 0;
#X connect 55 0 52 0;
#X connect 55 1 57 1;
#X connect 55 2 56 0;
#X connect 56 0 53 1;
#X connect 57 0 53 1;
#X connect 61 0 44 0;
#X connect 63 0 33 0;
#X connect 64 0 43 0;
#X connect 65 0 26 0;
#X connect 66 0 67 0;
#X connect 67 0 122 0;
#X connect 68 0 74 0;
#X connect 70 0 74 1;
#X connect 71 0 9 0;
#X connect 71 1 72 0;
#X connect 72 0 68 0;
#X connect 72 1 77 0;
#X connect 72 1 78 0;
#X connect 73 0 69 0;
#X connect 74 0 73 0;
#X connect 75 0 74 2;
#X connect 76 0 75 0;
#X connect 77 0 76 0;
#X connect 78 0 79 0;
#X connect 79 0 70 0;
#X connect 83 0 91 0;
#X connect 83 1 37 0;
#X connect 84 0 87 0;
#X connect 84 1 19 0;
#X connect 85 0 107 0;
#X connect 86 0 5 1;
#X connect 86 1 11 1;
#X connect 86 2 24 1;
#X connect 87 0 88 0;
#X connect 87 1 89 1;
#X connect 88 0 89 0;
#X connect 89 0 85 0;
#X connect 90 0 86 0;
#X connect 91 0 7 0;
#X connect 92 0 106 0;
#X connect 93 0 96 0;
#X connect 94 0 97 0;
#X connect 96 0 95 0;
#X connect 97 0 96 1;
#X connect 98 0 94 0;
#X connect 99 0 98 0;
#X connect 100 0 93 0;
#X connect 100 1 99 0;
#X connect 100 2 101 0;
#X connect 101 0 102 0;
#X connect 102 0 103 0;
#X connect 103 0 104 0;
#X connect 104 0 105 0;
#X connect 104 1 105 1;
#X connect 105 0 99 1;
#X connect 106 0 100 0;
#X connect 108 0 109 0;
#X connect 108 1 55 0;
#X connect 109 1 117 0;
#X connect 110 0 111 0;
#X connect 111 0 112 0;
#X connect 112 0 113 0;
#X connect 112 0 114 0;
#X connect 113 0 112 1;
#X connect 114 0 115 0;
#X connect 114 1 118 0;
#X connect 115 0 123 0;
#X connect 116 0 110 0;
#X connect 117 0 110 0;
#X connect 118 0 119 0;
#X connect 120 0 121 0;
#X connect 122 0 61 0;
#X connect 123 0 120 0;
#X connect 123 1 116 0;
#X connect 123 2 126 1;
#X connect 124 0 125 0;
#X connect 125 0 126 0;
#X connect 126 0 127 0;
#X connect 127 0 128 0;
#X connect 128 0 129 0;
#X connect 128 1 131 1;
#X connect 129 0 130 0;
#X connect 130 0 131 0;
#X connect 131 0 132 0;
#X connect 132 0 119 0;
#X restore 36 85 pd guts;
#X msg 127 107 0;
#X obj 127 129 s load;
#X msg 36 107 clear;
#X obj 36 129 s pd-\$0-buffer;
#X connect 10 0 11 0;
#X connect 12 0 13 0;
