#N canvas 869 176 260 320 10;
#X obj 87 12 inlet;
#X obj 26 116 / 1;
#X obj 189 33 loadbang;
#X obj 189 55 f \$1;
#X obj 114 113 f;
#X obj 87 34 t f b;
#X obj 26 221 unpack;
#X obj 26 256 outlet;
#X obj 105 254 outlet;
#X text 24 278 x;
#X text 115 277 y;
#X obj 179 80 max 1;
#X obj 26 79 f;
#X obj 152 33 t b f;
#X obj 26 177 * 1;
#X obj 152 12 inlet;
#X obj 26 12 inlet;
#X obj 114 136 t f f;
#X obj 26 199 pack f \$1;
#X connect 0 0 5 0;
#X connect 1 0 14 0;
#X connect 2 0 3 0;
#X connect 3 0 11 0;
#X connect 4 0 17 0;
#X connect 5 0 1 1;
#X connect 5 1 4 0;
#X connect 6 0 7 0;
#X connect 6 1 8 0;
#X connect 11 0 4 0;
#X connect 12 0 1 0;
#X connect 13 0 12 0;
#X connect 13 1 11 0;
#X connect 14 0 18 0;
#X connect 15 0 13 0;
#X connect 16 0 12 0;
#X connect 17 0 14 1;
#X connect 17 1 18 1;
#X connect 18 0 6 0;
