#N canvas 493 65 337 482 10;
#X obj 76 357 pix_texture;
#X obj 77 236 separator;
#X obj 77 213 t a a, f 6;
#X obj 207 227 r quality;
#X msg 207 251 quality \$1;
#X obj 207 436 square 4;
#X obj 77 259 scale 0.5;
#X obj 207 296 pix_texture;
#X obj 207 357 spigot;
#X obj 252 414 r size;
#X obj 77 297 translate \$3 1 0 0;
#X obj 76 320 translate \$4 0 1 0;
#X obj 155 16 inlet;
#X obj 50 433 outlet;
#X obj 50 191 t a a;
#X obj 50 38 gemhead 3;
#N canvas 456 39 122 230 hide 0;
#X obj 10 173 spigot 1;
#X obj 20 125 r gemclick0;
#X obj 20 104 r gemclick1;
#X obj 20 82 r gemclick2;
#X obj 10 10 inlet;
#X obj 10 195 outlet;
#X obj 20 59 r gemclick3;
#X obj 20 150 == 0;
#X connect 0 0 5 0;
#X connect 1 0 7 0;
#X connect 2 0 7 0;
#X connect 3 0 7 0;
#X connect 4 0 0 0;
#X connect 6 0 7 0;
#X connect 7 0 0 1;
#X restore 76 384 pd hide;
#X obj 50 112 separator;
#X obj 50 134 pix_separator;
#X obj 50 156 pix_grey;
#X obj 155 40 pack \$2;
#X obj 50 89 pix_buffer_read \$1;
#X obj 240 333 r gemclick\$2;
#X connect 0 0 16 0;
#X connect 0 1 7 1;
#X connect 1 0 6 0;
#X connect 2 0 1 0;
#X connect 2 1 7 0;
#X connect 3 0 4 0;
#X connect 4 0 0 0;
#X connect 4 0 7 0;
#X connect 6 0 10 0;
#X connect 7 0 8 0;
#X connect 8 0 5 0;
#X connect 9 0 5 1;
#X connect 10 0 11 0;
#X connect 11 0 0 0;
#X connect 12 0 20 0;
#X connect 14 0 13 0;
#X connect 14 1 2 0;
#X connect 15 0 21 0;
#X connect 16 0 5 0;
#X connect 17 0 18 0;
#X connect 18 0 19 0;
#X connect 19 0 14 0;
#X connect 20 0 21 1;
#X connect 21 0 17 0;
#X connect 22 0 8 1;
