#N canvas 442 51 410 513 10;
#X msg 173 331 GREY;
#X obj 99 53 r delayratio;
#X obj 299 211 s \$1;
#X obj 72 230 array get \$1;
#X obj 161 358 s in1-\$1;
#X obj 139 386 s in2-\$1;
#X obj 33 347 r out1-\$1;
#X obj 129 83 list append \$1 \$2;
#X obj 129 209 s pd-pixset-\$1;
#N canvas 383 330 344 86 pixset-\$1 0;
#X obj 10 10 r in1-dumpedfftI;
#X obj 80 10 r in2-dumpedfftI;
#X obj 10 30 pix_set 512 512;
#X obj 10 66 s out1-dumpedfftI;
#X connect 0 0 2 0;
#X connect 1 0 2 1;
#X connect 2 0 3 0;
#X restore 222 209 pd pixset-\$1;
#X obj 105 417 pack \$4;
#X obj 33 456 pix_buffer_write \$3;
#X msg 129 107 clear \, obj 10 10 r in1-\$1 \, obj 80 10 r in2-\$1
\, obj 10 30 pix_set \$2 \$2 \, obj 10 66 s out1-\$1 \, connect 0 0
2 0 \, connect 1 0 2 1 \, connect 2 0 3 0, f 22;
#N canvas 0 22 428 419 roll 0;
#X obj 123 264 pix_roll;
#X obj 186 217 pack \$2;
#X obj 186 239 / 2;
#X obj 186 261 int;
#X obj 30 32 inlet;
#X obj 128 384 outlet;
#X obj 199 43 inlet;
#X obj 30 54 t a a;
#X obj 30 112 spigot 1;
#X obj 93 112 spigot;
#X obj 294 43 pack \$7;
#X obj 82 76 == 0;
#X msg 147 169 1;
#X msg 175 168 0;
#X msg 146 194 axis \$1;
#X obj 294 65 t f f;
#X obj 119 41 t f f;
#X obj 231 112 list prepend;
#X obj 230 136 route 2 3;
#X obj 203 80 t b b;
#X obj 188 338 spigot;
#X obj 123 286 t a a;
#X obj 123 337 spigot 1;
#X obj 146 216 t b a;
#X obj 322 296 pack \$2;
#X obj 322 318 / 2;
#X obj 322 340 int;
#X obj 188 360 pix_roll;
#X obj 270 191 t b b b;
#X msg 245 224 0;
#X msg 273 224 1;
#X obj 197 307 == 0;
#X connect 0 0 21 0;
#X connect 1 0 2 0;
#X connect 2 0 3 0;
#X connect 3 0 0 1;
#X connect 4 0 7 0;
#X connect 6 0 19 0;
#X connect 7 0 8 0;
#X connect 7 1 9 0;
#X connect 8 0 5 0;
#X connect 9 0 0 0;
#X connect 10 0 15 0;
#X connect 11 0 8 1;
#X connect 12 0 14 0;
#X connect 13 0 14 0;
#X connect 14 0 23 0;
#X connect 15 0 16 0;
#X connect 15 1 17 1;
#X connect 16 0 11 0;
#X connect 16 1 9 1;
#X connect 17 0 18 0;
#X connect 18 0 13 0;
#X connect 18 0 29 0;
#X connect 18 1 28 0;
#X connect 18 2 12 0;
#X connect 18 2 29 0;
#X connect 19 0 17 0;
#X connect 19 1 10 0;
#X connect 20 0 27 0;
#X connect 21 0 22 0;
#X connect 21 1 20 0;
#X connect 22 0 5 0;
#X connect 23 0 1 0;
#X connect 23 1 0 0;
#X connect 24 0 25 0;
#X connect 25 0 26 0;
#X connect 26 0 27 1;
#X connect 27 0 5 0;
#X connect 28 0 12 0;
#X connect 28 1 24 0;
#X connect 28 2 30 0;
#X connect 29 0 20 1;
#X connect 29 0 31 0;
#X connect 30 0 20 1;
#X connect 30 0 31 0;
#X connect 31 0 22 1;
#X restore 33 418 pd roll;
#X obj 161 302 gemhead 2;
#X obj 228 335 _storeit \$4 \$3;
#X msg 228 436 0;
#X obj 235 412 loadbang;
#X obj 72 253 t b b a b b b, f 28;
#X msg 161 278 1;
#X obj 267 390 _display \$3 \$4 \$5 \$6;
#X obj 255 275 r delayratio;
#X obj 72 11 inlet bang;
#X obj 228 363 t b b b;
#X obj 277 472 outlet bang;
#X obj 72 91 del 1000;
#X obj 228 298 del 1000;
#X obj 317 71 r thres;
#X obj 299 168 f 0.5;
#X msg 299 189 normalize \$1;
#X obj 72 33 t b b b, f 20;
#X obj 299 50 spigot \$8;
#X obj 317 115 -;
#X obj 317 140 max 0.6;
#X msg 317 93 1 \$1;
#X connect 0 0 4 0;
#X connect 1 0 25 1;
#X connect 3 0 18 0;
#X connect 6 0 13 0;
#X connect 7 0 12 0;
#X connect 10 0 11 1;
#X connect 12 0 8 0;
#X connect 13 0 11 0;
#X connect 14 0 4 0;
#X connect 15 0 23 0;
#X connect 16 0 14 0;
#X connect 17 0 16 0;
#X connect 18 0 13 1;
#X connect 18 1 10 0;
#X connect 18 2 5 0;
#X connect 18 3 0 0;
#X connect 18 4 26 0;
#X connect 18 5 19 0;
#X connect 19 0 14 0;
#X connect 21 0 26 1;
#X connect 22 0 30 0;
#X connect 23 0 16 0;
#X connect 23 1 24 0;
#X connect 23 2 20 0;
#X connect 25 0 3 0;
#X connect 26 0 15 0;
#X connect 27 0 34 0;
#X connect 28 0 29 0;
#X connect 29 0 2 0;
#X connect 30 0 25 0;
#X connect 30 1 7 0;
#X connect 30 2 31 0;
#X connect 31 0 28 0;
#X connect 32 0 33 0;
#X connect 33 0 28 1;
#X connect 34 0 32 0;
