#N canvas 692 52 157 511 10;
#X msg 23 358 symbol \$1;
#X msg 23 409 save \$1 \$2;
#X obj 71 94 r image;
#X obj 44 115 int 0;
#X msg 44 181 set \$1;
#X obj 23 204 makefilename;
#X obj 44 139 makefilename img-%d-%%d.jpg, f 14;
#X obj 23 383 list append;
#X obj 23 18 inlet;
#X obj 23 431 t b a;
#X obj 23 480 outlet;
#X obj 23 40 pack \$1;
#X obj 50 453 s \$2;
#X obj 23 332 makefilename;
#X msg 32 310 set \$1;
#X obj 53 226 r imgfft;
#X obj 32 248 list;
#X obj 23 70 t f b b f, f 11;
#X obj 32 269 makefilename %s/imgfft/%%s, f 13;
#X connect 0 0 7 0;
#X connect 1 0 9 0;
#X connect 2 0 3 1;
#X connect 3 0 6 0;
#X connect 4 0 5 0;
#X connect 5 0 13 0;
#X connect 6 0 4 0;
#X connect 7 0 1 0;
#X connect 8 0 11 0;
#X connect 9 0 10 0;
#X connect 9 1 12 0;
#X connect 11 0 17 0;
#X connect 13 0 0 0;
#X connect 14 0 13 0;
#X connect 15 0 16 1;
#X connect 16 0 18 0;
#X connect 17 0 5 0;
#X connect 17 1 3 0;
#X connect 17 2 16 0;
#X connect 17 3 7 1;
#X connect 18 0 14 0;
