#N canvas 0 22 254 413 10;
#X msg 23 254 symbol \$1;
#X msg 23 305 save \$1 \$2;
#X obj 83 95 r image;
#X obj 44 95 int 0;
#X msg 44 141 set \$1;
#X obj 23 164 makefilename;
#X obj 44 119 makefilename img-%d-%%d.jpg;
#X obj 23 191 makefilename /Users/federicocamarahalac/Documents/fd_work/fid-master/fd_imgfft/imgfft/%s
, f 31;
#X obj 23 70 t f b f, f 11;
#X obj 23 279 list append;
#X obj 23 18 inlet;
#X obj 23 327 t b a;
#X obj 23 376 outlet;
#X obj 23 40 pack \$1;
#X obj 50 349 s \$2;
#X connect 0 0 9 0;
#X connect 1 0 11 0;
#X connect 2 0 3 1;
#X connect 3 0 6 0;
#X connect 4 0 5 0;
#X connect 5 0 7 0;
#X connect 6 0 4 0;
#X connect 7 0 0 0;
#X connect 8 0 5 0;
#X connect 8 1 3 0;
#X connect 8 2 9 1;
#X connect 9 0 1 0;
#X connect 10 0 13 0;
#X connect 11 0 12 0;
#X connect 11 1 14 0;
#X connect 13 0 8 0;
