#N canvas 765 92 520 711 10;
#X obj 294 552 rectangle;
#X obj 84 450 translateXYZ;
#X obj 172 271 unpack 0 0 0 0;
#X obj 108 335 +;
#X obj 148 336 +;
#X text 195 395 0..2;
#X text 181 415 -1..+1;
#X obj 308 339 -;
#X obj 345 340 -;
#X obj 84 526 pix_separator;
#X obj 84 189 alpha;
#X obj 84 147 separator;
#X obj 84 168 color 1 0 0 0.5;
#X msg 283 226 \$3 \$5 \$4 \$6;
#X obj 233 115 route bang;
#X obj 233 137 bng 15 250 50 0 empty empty noblob 17 7 0 10 -262144
-1 -1;
#X obj 84 499 t a a;
#X obj 294 480 pix_separator;
#X obj 84 477 scale 1;
#X obj 107 418 * 4;
#X obj 308 371 * -4;
#X obj 345 371 * -4;
#X obj 297 152 t a b;
#X msg 208 166 0;
#X msg 248 174 1;
#X obj 84 123 spigot 1;
#X obj 107 395 - 1;
#X obj 147 395 - 1;
#X obj 84 634 text2d;
#X obj 84 548 t a b;
#X obj 123 548 fd_spigot;
#X obj 123 570 f \$1;
#X obj 199 93 list split 1;
#X obj 202 49 inlet;
#X obj 84 40 gemhead -1;
#X msg 368 507 draw line;
#X obj 147 418 * 4;
#X msg 102 605 font ../../fd_lib-master/vera.ttf \, text \$1;
#X connect 1 0 18 0;
#X connect 2 0 3 0;
#X connect 2 0 7 0;
#X connect 2 1 3 1;
#X connect 2 1 7 1;
#X connect 2 2 4 0;
#X connect 2 2 8 0;
#X connect 2 3 4 1;
#X connect 2 3 8 1;
#X connect 3 0 26 0;
#X connect 4 0 27 0;
#X connect 7 0 20 0;
#X connect 8 0 21 0;
#X connect 9 0 29 0;
#X connect 10 0 1 0;
#X connect 11 0 12 0;
#X connect 12 0 10 0;
#X connect 13 0 2 0;
#X connect 14 0 15 0;
#X connect 14 1 22 0;
#X connect 15 0 23 0;
#X connect 16 0 9 0;
#X connect 16 1 17 0;
#X connect 17 0 0 0;
#X connect 18 0 16 0;
#X connect 19 0 1 1;
#X connect 20 0 0 1;
#X connect 21 0 0 2;
#X connect 22 0 13 0;
#X connect 22 1 24 0;
#X connect 23 0 25 1;
#X connect 24 0 25 1;
#X connect 25 0 11 0;
#X connect 26 0 19 0;
#X connect 27 0 36 0;
#X connect 29 0 28 0;
#X connect 29 1 30 0;
#X connect 30 0 31 0;
#X connect 30 0 35 0;
#X connect 31 0 37 0;
#X connect 32 1 14 0;
#X connect 33 0 32 0;
#X connect 34 0 25 0;
#X connect 35 0 0 0;
#X connect 36 0 1 2;
#X connect 37 0 28 0;
