#N canvas 598 334 450 300 10;
#X obj 27 15 inlet;
#X obj 27 87 fd_iterate \$2;
#X obj 27 161 list prepend \$1;
#X obj 27 59 del 200;
#X msg 238 169 1;
#X msg 222 230 0;
#X obj 27 107 sel 0;
#X obj 47 130 t f f;
#X obj 27 37 t b b b, f 26;
#X obj 160 63 f \$2;
#X obj 160 85 - 1;
#X obj 121 126 sel;
#X obj 298 271 outlet status;
#X obj 27 243 t a b;
#X obj 29 271 pix_buffer \$3 \$2;
#X msg 27 221 open ../\$1/\$2.jpg \$2;
#X text 31 178 add "../" to any folder if this is in <lib>, f 18;
#X connect 0 0 8 0;
#X connect 1 0 6 0;
#X connect 2 0 15 0;
#X connect 3 0 1 0;
#X connect 4 0 12 0;
#X connect 5 0 12 0;
#X connect 6 1 7 0;
#X connect 7 0 11 0;
#X connect 7 1 2 0;
#X connect 8 0 3 0;
#X connect 8 1 4 0;
#X connect 8 2 9 0;
#X connect 9 0 10 0;
#X connect 10 0 11 1;
#X connect 11 0 5 0;
#X connect 13 0 14 0;
#X connect 13 1 4 0;
#X connect 15 0 13 0;
