#N canvas 468 215 621 393 10;
#X obj 32 50 t a a a a a;
#X obj 32 129 separator;
#X obj 93 129 separator;
#X obj 95 209 fd_flip 180;
#X obj 190 129 separator;
#X obj 419 129 separator;
#X obj 300 129 separator;
#X obj 419 173 rotate -90 0 0 1;
#X obj 419 195 fd_flip 180;
#X obj 300 173 translate 4 0 1 0;
#X obj 32 297 separator;
#X obj 33 24 inlet;
#X obj 32 341 outlet;
#X obj 93 173 rotate 90 0 0 1;
#X obj 190 173 translate 4 0 1 0;
#X obj 190 195 translate -2 1 0 0;
#X obj 303 196 translate 2 1 0 0;
#X obj 95 231 translate -2 0 1 0;
#X obj 419 217 translate -2 0 1 0;
#X obj 255 280 scale 0.5;
#X obj 32 319 translate 1 0 0 1;
#X obj 164 301 inlet;
#X connect 0 0 1 0;
#X connect 0 1 2 0;
#X connect 0 2 4 0;
#X connect 0 3 6 0;
#X connect 0 4 5 0;
#X connect 1 0 10 0;
#X connect 2 0 13 0;
#X connect 3 0 17 0;
#X connect 4 0 14 0;
#X connect 5 0 7 0;
#X connect 6 0 9 0;
#X connect 7 0 8 0;
#X connect 8 0 18 0;
#X connect 9 0 16 0;
#X connect 10 0 20 0;
#X connect 11 0 0 0;
#X connect 13 0 3 0;
#X connect 14 0 15 0;
#X connect 15 0 19 0;
#X connect 16 0 19 0;
#X connect 17 0 19 0;
#X connect 18 0 19 0;
#X connect 19 0 10 0;
#X connect 20 0 12 0;
#X connect 21 0 20 1;
