#N canvas 523 50 716 717 10;
#X declare -stdlib Gem;
#X declare -stdlib gemvertexbuffer-original;
#X declare -stdpath list-abs;
#X obj 17 12 declare -stdlib Gem;
#X obj 17 34 loadbang;
#X obj 17 78 gemwin;
#X obj 143 250 pix_dump;
#X obj 187 273 t a a;
#X msg 350 368 resize \$1;
#X obj 350 389 array define dumped;
#X obj 337 10 declare -stdlib gemvertexbuffer-original;
#X msg 589 26 help;
#X obj 589 48 zexy;
#X obj 156 318 tabset dumped;
#X obj 297 245 list length;
#X obj 116 166 pix_grey;
#X obj 116 188 t b b a;
#X obj 51 345 array size dumped;
#X msg 51 323 bang;
#X obj 48 387 /;
#X msg 49 411 0 \, 1 \$1;
#X obj 49 433 line~;
#X obj 49 455 *~;
#X obj 49 477 +~ 1;
#X obj 49 499 tabread4~ dumped;
#N canvas 350 162 450 300 fft 0;
#X obj 31 15 inlet~;
#X obj 31 37 *~;
#X obj 88 26 tabreceive~ hann;
#X obj 31 59 rfft~;
#X obj 31 91 *~;
#X obj 71 91 *~;
#X obj 31 123 sqrt~;
#X obj 31 169 *~;
#X obj 58 168 tabreceive~ hann;
#X obj 273 32 r blocksize;
#X obj 258 128 array define fftblock;
#X msg 281 86 resize \$1;
#X obj 30 200 tabwrite~ fftblock;
#X obj 166 88 bang~;
#X obj 214 22 inlet;
#X obj 166 110 spigot;
#X obj 139 134 t b b;
#X obj 203 197 outlet;
#X obj 307 13 switch~ 4096 1 1;
#X msg 273 54 1 \, set \$1 1 1;
#X connect 0 0 1 0;
#X connect 1 0 3 0;
#X connect 2 0 1 1;
#X connect 3 0 4 0;
#X connect 3 0 4 1;
#X connect 3 1 5 0;
#X connect 3 1 5 1;
#X connect 4 0 6 0;
#X connect 5 0 6 0;
#X connect 6 0 7 0;
#X connect 7 0 12 0;
#X connect 8 0 7 1;
#X connect 9 0 19 0;
#X connect 9 0 11 0;
#X connect 11 0 10 0;
#X connect 13 0 15 0;
#X connect 14 0 15 1;
#X connect 15 0 16 0;
#X connect 16 0 17 0;
#X connect 16 1 12 0;
#X connect 19 0 18 0;
#X restore 12 531 pd fft;
#X obj 345 339 array define dumpedfft;
#X obj 142 377 t f f b;
#X obj 121 431 bng 15 250 50 0 empty empty empty 17 7 0 10 -262144
-1 -1;
#X msg 49 367 1000 \$1;
#X obj 591 490 fd_hann;
#X msg 345 316 resize \$1;
#X obj 237 426 del;
#X msg 237 402 tempo 1 samp;
#X obj 266 473 bng 15 250 50 0 empty empty empty 17 7 0 10 -262144
-1 -1;
#X msg 417 316 normalize 1;
#X obj 493 383 t b b;
#X obj 479 91 bng 15 250 50 0 empty empty empty 17 7 0 10 -262144 -1
-1;
#X obj 479 113 array get dumpedfft;
#X obj 338 31 declare -stdpath list-abs;
#X msg 427 105 GREY;
#X obj 479 135 list length;
#X floatatom 479 157 5 0 0 0 - - -, f 5;
#X obj 479 176 sqrt;
#X floatatom 479 198 5 0 0 0 - - -, f 5;
#X msg 527 218 quality 0;
#X obj 485 53 t b b;
#X obj 110 142 t a a;
#X obj 161 139 separator;
#X obj 30 154 separator;
#X obj 32 234 pix_texture;
#X obj 32 256 rectangle 4 3;
#X obj 110 116 pix_image 86.jpg;
#X msg 212 182 bang;
#X obj 139 208 fd_spigot;
#X obj 133 296 t b a;
#X obj 48 286 fd_spigot;
#X obj 627 153 del 10;
#X obj 26 210 spigot;
#X obj 67 184 tgl 15 0 empty empty empty 17 7 0 10 -262144 -1 -1 1
1;
#X obj 375 222 square 4;
#X obj 375 199 pix_texture;
#X obj 309 106 gemhead 2;
#X obj 555 436 r blocksize;
#X msg 448 591 1024;
#X msg 533 570 4096;
#X msg 466 615 64;
#X obj 548 615 s blocksize;
#X msg 575 594 8192;
#X msg 511 515 16384;
#X obj 80 531 tgl 15 0 empty empty empty 17 7 0 10 -262144 -1 -1 0
1;
#X obj 12 553 bng 15 250 50 0 empty empty empty 17 7 0 10 -262144 -1
-1;
#X obj 12 573 t b b;
#X obj 67 555 f;
#X obj 90 556 + 1;
#X obj 12 595 array get fftblock;
#X obj 12 617 list prepend;
#X floatatom 67 577 5 0 0 0 - - -, f 5;
#X obj 94 633 list length;
#X floatatom 168 591 5 0 0 0 - - -, f 5;
#X msg 135 543 0;
#X msg 170 539 bang;
#X obj 290 598 <;
#X obj 193 637 spigot 1;
#X obj 115 699 tabset dumpedfft;
#X obj 168 610 t f b;
#X obj 12 639 t a a a;
#X obj 116 679 list;
#X msg 160 499 0;
#X msg 573 516 16384;
#X obj 573 538 * 4;
#X obj 375 177 scale 0.9;
#X msg 121 451 1;
#X obj 297 289 t a a;
#X msg 17 56 0 \, destroy \, reset \, dimen 400 400 \, create \, 1
;
#X obj 116 94 gemhead 1;
#X obj 365 69 tgl 15 0 empty empty empty 17 7 0 10 -262144 -1 -1 1
1;
#X obj 304 49 tgl 15 0 empty empty empty 17 7 0 10 -262144 -1 -1 1
1;
#X obj 445 671 bng 15 250 50 0 empty empty empty 17 7 0 10 -262144
-1 -1;
#X obj 625 545 * 2;
#X obj 297 311 change;
#X obj 362 291 change;
#X floatatom 383 247 5 0 0 0 - - -, f 5;
#X obj 375 155 pix_set 128 128;
#X obj 362 269 / 3;
#X msg 192 88 open 120.jpg;
#X msg 625 523 16384;
#X msg 617 579 32768;
#X msg 641 464 1;
#X msg 225 116 open 86.jpg;
#X connect 1 0 91 0;
#X connect 3 1 4 0;
#X connect 4 0 52 0;
#X connect 4 1 11 0;
#X connect 5 0 6 0;
#X connect 8 0 9 0;
#X connect 11 0 90 0;
#X connect 12 0 13 0;
#X connect 13 1 51 0;
#X connect 13 2 3 0;
#X connect 14 0 24 0;
#X connect 15 0 14 0;
#X connect 16 0 17 0;
#X connect 17 0 18 0;
#X connect 18 0 19 0;
#X connect 19 0 20 0;
#X connect 20 0 21 0;
#X connect 21 0 22 0;
#X connect 22 0 68 0;
#X connect 24 0 26 0;
#X connect 24 1 19 1;
#X connect 24 1 29 0;
#X connect 24 1 79 1;
#X connect 24 2 25 0;
#X connect 24 2 30 0;
#X connect 25 0 89 0;
#X connect 26 0 16 0;
#X connect 28 0 23 0;
#X connect 29 0 31 0;
#X connect 30 0 29 0;
#X connect 31 0 33 0;
#X connect 31 0 85 0;
#X connect 31 0 78 0;
#X connect 32 0 23 0;
#X connect 33 0 54 0;
#X connect 33 1 32 0;
#X connect 34 0 35 0;
#X connect 35 0 38 0;
#X connect 35 0 100 1;
#X connect 37 0 100 0;
#X connect 38 0 39 0;
#X connect 39 0 40 0;
#X connect 40 0 41 0;
#X connect 42 0 58 0;
#X connect 43 0 34 0;
#X connect 43 1 42 0;
#X connect 43 1 37 0;
#X connect 44 0 46 0;
#X connect 44 1 45 0;
#X connect 45 0 12 0;
#X connect 46 0 55 0;
#X connect 47 0 48 0;
#X connect 49 0 44 0;
#X connect 50 0 51 1;
#X connect 50 0 53 1;
#X connect 51 0 3 0;
#X connect 52 0 53 0;
#X connect 52 1 10 0;
#X connect 53 0 15 0;
#X connect 54 0 43 0;
#X connect 55 0 47 0;
#X connect 56 0 55 1;
#X connect 58 0 57 0;
#X connect 59 0 100 0;
#X connect 60 0 27 0;
#X connect 61 0 64 0;
#X connect 62 0 64 0;
#X connect 63 0 64 0;
#X connect 65 0 64 0;
#X connect 66 0 64 0;
#X connect 67 0 22 1;
#X connect 68 0 69 0;
#X connect 69 0 72 0;
#X connect 69 1 70 0;
#X connect 70 0 71 0;
#X connect 70 0 74 0;
#X connect 71 0 70 1;
#X connect 72 0 73 0;
#X connect 73 0 83 0;
#X connect 75 0 76 0;
#X connect 76 0 82 0;
#X connect 77 0 70 1;
#X connect 78 0 77 0;
#X connect 78 0 73 1;
#X connect 79 0 80 1;
#X connect 79 0 67 0;
#X connect 80 0 84 0;
#X connect 82 0 79 0;
#X connect 82 1 80 0;
#X connect 83 0 75 0;
#X connect 83 1 73 1;
#X connect 83 2 84 1;
#X connect 84 0 81 0;
#X connect 85 0 67 0;
#X connect 86 0 87 0;
#X connect 87 0 64 0;
#X connect 88 0 58 0;
#X connect 89 0 67 0;
#X connect 90 0 97 0;
#X connect 90 1 101 0;
#X connect 91 0 2 0;
#X connect 92 0 49 0;
#X connect 93 0 59 0;
#X connect 95 0 50 0;
#X connect 96 0 64 0;
#X connect 97 0 5 0;
#X connect 98 0 28 0;
#X connect 99 0 101 1;
#X connect 100 0 88 0;
#X connect 101 0 98 0;
#X connect 102 0 49 0;
#X connect 103 0 96 0;
#X connect 104 0 64 0;
#X connect 105 0 27 1;
#X connect 106 0 49 0;
