#N canvas 523 50 716 717 10;
#X declare -stdlib Gem;
#X declare -stdlib gemvertexbuffer-original;
#X declare -stdpath list-abs;
#X obj 17 12 declare -stdlib Gem;
#X obj 17 34 loadbang;
#X obj 17 78 gemwin;
#X text 116 74 comment;
#X obj 143 250 pix_dump;
#X msg 17 56 0 \, destroy \, reset \, dimen 400 400;
#X msg 237 30 create \, 1;
#X msg 193 6 bang;
#X obj 200 251 t a a;
#X msg 216 299 resize \$1;
#X obj 216 320 array define dumped;
#X obj 337 10 declare -stdlib gemvertexbuffer-original;
#X msg 589 26 help;
#X obj 589 48 zexy;
#X obj 200 342 tabset dumped;
#X obj 216 278 list length;
#X obj 116 166 pix_grey;
#X obj 116 188 t b b a;
#X obj 51 345 array size dumped;
#X msg 51 323 bang;
#X obj 104 421 /;
#X msg 105 445 0 \, 1 \$1;
#X obj 105 467 line~;
#X obj 105 489 *~;
#X obj 105 511 +~ 1;
#X obj 105 533 tabread4~ dumped;
#N canvas 350 162 450 300 fft 0;
#X obj 31 15 inlet~;
#X obj 31 37 *~;
#X obj 88 26 tabreceive~ hann;
#X obj 31 59 rfft~;
#X obj 31 91 *~;
#X obj 71 91 *~;
#X obj 31 123 sqrt~;
#X obj 31 169 *~;
#X obj 58 168 tabreceive~ hann;
#X obj 307 13 block~ 4096 1;
#X obj 273 32 r blocksize;
#X msg 273 54 set \$1;
#X obj 258 128 array define fftblock;
#X msg 281 86 resize \$1;
#X obj 30 200 tabwrite~ fftblock;
#X obj 166 88 bang~;
#X obj 214 22 inlet;
#X obj 166 110 spigot;
#X obj 139 134 t b b;
#X obj 203 197 outlet;
#X connect 0 0 1 0;
#X connect 1 0 3 0;
#X connect 2 0 1 1;
#X connect 3 0 4 0;
#X connect 3 0 4 1;
#X connect 3 1 5 0;
#X connect 3 1 5 1;
#X connect 4 0 6 0;
#X connect 5 0 6 0;
#X connect 6 0 7 0;
#X connect 7 0 14 0;
#X connect 8 0 7 1;
#X connect 10 0 11 0;
#X connect 10 0 13 0;
#X connect 11 0 9 0;
#X connect 13 0 12 0;
#X connect 15 0 17 0;
#X connect 16 0 17 1;
#X connect 17 0 18 0;
#X connect 18 0 19 0;
#X connect 18 1 14 0;
#X restore 68 565 pd fft;
#X obj 366 311 array define dumpedfft;
#X obj 105 370 t f f b;
#X obj 268 541 bng 15 250 50 0 empty empty empty 17 7 0 10 -262144
-1 -1;
#X msg 105 401 1000 \$1;
#X obj 396 428 fd_hann;
#X msg 366 288 resize \$1;
#X msg 446 402 1;
#X obj 295 517 del;
#X msg 299 488 tempo 1 samp;
#X obj 296 556 bng 15 250 50 0 empty empty empty 17 7 0 10 -262144
-1 -1;
#X obj 505 371 bng 15 250 50 0 empty empty empty 17 7 0 10 -262144
-1 -1;
#X obj 506 430 fd_iterate;
#X obj 580 324 / 2;
#X obj 505 391 f;
#X obj 506 452 +;
#X obj 506 494 * -1;
#X obj 506 516 +;
#X obj 506 474 t f f;
#X obj 519 555 tabread4 dumpedfft;
#X obj 526 580 tabwrite dumpedfft;
#X floatatom 522 410 5 0 0 0 - - -, f 5;
#X obj 586 292 t f f;
#X msg 336 548 normalize 1;
#X obj 335 528 t b b;
#X obj 514 89 bng 15 250 50 0 empty empty empty 17 7 0 10 -262144 -1
-1;
#X obj 514 111 array get dumpedfft;
#X obj 338 31 declare -stdpath list-abs;
#X msg 392 120 GREY;
#X msg 13 105 color 0 0 0;
#X obj 514 133 list length;
#X floatatom 514 155 5 0 0 0 - - -, f 5;
#X obj 514 174 sqrt;
#X floatatom 514 196 5 0 0 0 - - -, f 5;
#X msg 294 162 quality 0;
#X obj 444 76 t b b;
#X obj 110 142 t a a;
#X obj 161 139 separator;
#X obj 30 154 separator;
#X obj 32 234 pix_texture;
#X obj 32 256 rectangle 4 3;
#X obj 110 116 pix_image 86.jpg;
#X msg 130 33 buffer 2;
#X msg 212 182 bang;
#X obj 139 208 fd_spigot;
#X obj 133 296 t b a;
#X obj 48 286 fd_spigot;
#X obj 627 153 del 10;
#X obj 26 210 spigot;
#X obj 67 184 tgl 15 0 empty empty empty 17 7 0 10 -262144 -1 -1 0
1;
#X obj 344 217 square 4;
#X obj 342 193 pix_texture;
#X obj 321 62 gemhead 2;
#X obj 116 94 gemhead 4;
#X obj 360 374 r blocksize;
#X msg 312 597 1024;
#X msg 397 576 4096;
#X msg 330 621 64;
#X obj 412 621 s blocksize;
#X msg 439 600 8192;
#X msg 434 573 16384;
#X obj 366 266 / 8;
#X obj 375 155 pix_set 77 77;
#X obj 136 565 tgl 15 0 empty empty empty 17 7 0 10 -262144 -1 -1 0
1;
#X obj 68 587 bng 15 250 50 0 empty empty empty 17 7 0 10 -262144 -1
-1;
#X obj 68 607 t b b;
#X obj 123 589 f;
#X obj 146 590 + 1;
#X obj 68 629 array get fftblock;
#X obj 68 651 list prepend;
#X floatatom 123 611 5 0 0 0 - - -, f 5;
#X obj 150 667 list length;
#X floatatom 224 625 5 0 0 0 - - -, f 5;
#X msg 191 577 0;
#X msg 226 573 bang;
#X obj 271 644 <;
#X obj 249 671 spigot 1;
#X obj 249 693 tabset dumpedfft;
#X obj 224 644 t f b;
#X obj 68 673 t a a a;
#X obj 136 694 list;
#X msg 296 576 0;
#X connect 1 0 5 0;
#X connect 4 1 8 0;
#X connect 5 0 2 0;
#X connect 6 0 2 0;
#X connect 7 0 2 0;
#X connect 8 0 71 0;
#X connect 8 1 15 0;
#X connect 9 0 10 0;
#X connect 12 0 13 0;
#X connect 15 0 9 0;
#X connect 15 0 87 0;
#X connect 16 0 17 0;
#X connect 17 1 70 0;
#X connect 17 2 4 0;
#X connect 18 0 28 0;
#X connect 19 0 18 0;
#X connect 20 0 21 0;
#X connect 21 0 22 0;
#X connect 22 0 23 0;
#X connect 23 0 24 0;
#X connect 24 0 25 0;
#X connect 25 0 26 0;
#X connect 26 0 90 0;
#X connect 28 0 30 0;
#X connect 28 1 23 1;
#X connect 28 1 34 0;
#X connect 28 1 101 1;
#X connect 28 2 29 0;
#X connect 28 2 35 0;
#X connect 29 0 89 0;
#X connect 30 0 20 0;
#X connect 32 0 27 0;
#X connect 33 0 31 1;
#X connect 34 0 36 0;
#X connect 35 0 34 0;
#X connect 36 0 50 0;
#X connect 36 0 107 0;
#X connect 37 0 40 0;
#X connect 38 0 41 0;
#X connect 39 0 40 1;
#X connect 39 0 41 1;
#X connect 40 0 38 0;
#X connect 40 0 47 0;
#X connect 41 0 44 0;
#X connect 42 0 43 0;
#X connect 43 0 45 0;
#X connect 44 0 42 0;
#X connect 44 1 46 1;
#X connect 45 0 46 0;
#X connect 48 0 39 0;
#X connect 48 1 43 1;
#X connect 49 0 27 0;
#X connect 50 0 49 0;
#X connect 50 0 73 0;
#X connect 51 0 52 0;
#X connect 52 0 56 0;
#X connect 52 0 88 1;
#X connect 54 0 88 0;
#X connect 55 0 2 0;
#X connect 56 0 57 0;
#X connect 57 0 58 0;
#X connect 58 0 59 0;
#X connect 60 0 77 0;
#X connect 61 0 54 0;
#X connect 61 1 51 0;
#X connect 61 1 60 0;
#X connect 62 0 64 0;
#X connect 62 1 63 0;
#X connect 63 0 16 0;
#X connect 64 0 74 0;
#X connect 65 0 66 0;
#X connect 67 0 62 0;
#X connect 68 0 2 0;
#X connect 69 0 70 1;
#X connect 69 0 72 1;
#X connect 70 0 4 0;
#X connect 71 0 72 0;
#X connect 71 1 14 0;
#X connect 72 0 19 0;
#X connect 73 0 61 0;
#X connect 74 0 65 0;
#X connect 75 0 74 1;
#X connect 77 0 76 0;
#X connect 78 0 88 0;
#X connect 79 0 67 0;
#X connect 80 0 31 0;
#X connect 81 0 84 0;
#X connect 82 0 84 0;
#X connect 83 0 84 0;
#X connect 85 0 84 0;
#X connect 86 0 84 0;
#X connect 87 0 32 0;
#X connect 87 0 48 0;
#X connect 88 0 77 0;
#X connect 89 0 26 1;
#X connect 90 0 91 0;
#X connect 91 0 94 0;
#X connect 91 1 92 0;
#X connect 92 0 93 0;
#X connect 92 0 96 0;
#X connect 93 0 92 1;
#X connect 94 0 95 0;
#X connect 95 0 105 0;
#X connect 97 0 98 0;
#X connect 98 0 104 0;
#X connect 99 0 92 1;
#X connect 100 0 99 0;
#X connect 100 0 95 1;
#X connect 101 0 102 1;
#X connect 101 0 89 0;
#X connect 102 0 106 0;
#X connect 104 0 101 0;
#X connect 104 1 102 0;
#X connect 105 0 97 0;
#X connect 105 1 95 1;
#X connect 105 2 106 1;
#X connect 106 0 103 0;
#X connect 107 0 89 0;
