#N canvas 514 49 716 717 10;
#X declare -stdlib Gem;
#X declare -stdlib gemvertexbuffer-original;
#X declare -stdpath list-abs;
#X obj 17 12 declare -stdlib Gem;
#X obj 17 34 loadbang;
#X obj 17 78 gemwin;
#X obj 53 279 pix_dump;
#X obj 337 10 declare -stdlib gemvertexbuffer-original;
#X msg 589 26 help;
#X obj 589 48 zexy;
#X obj 576 173 fd_hann;
#X obj 338 31 declare -stdpath list-abs;
#X obj 26 152 t a a;
#X obj 26 182 separator;
#X obj 155 169 separator;
#X obj 155 230 pix_texture;
#X obj 155 252 rectangle 4 3;
#X obj 26 129 pix_image 86.jpg;
#X obj 26 252 fd_spigot;
#X obj 53 417 fd_spigot;
#X obj 115 523 del 10;
#X obj 155 206 spigot;
#X obj 209 191 tgl 15 0 empty empty empty 17 7 0 10 -262144 -1 -1 1
1;
#X obj 576 125 r blocksize;
#X msg 325 155 1024;
#X msg 408 190 4096;
#X msg 343 179 64;
#X obj 423 235 s blocksize;
#X msg 450 214 8192;
#X msg 386 135 16384;
#X msg 448 136 16384;
#X obj 448 158 * 4;
#X msg 17 56 0 \, destroy \, reset \, dimen 400 400 \, create \, 1
;
#X obj 26 99 gemhead 1;
#X obj 304 49 tgl 15 0 empty empty empty 17 7 0 10 -262144 -1 -1 0
1;
#X obj 306 212 bng 15 250 50 0 empty empty empty 17 7 0 10 -262144
-1 -1;
#X obj 500 165 * 2;
#X msg 97 98 open 120.jpg;
#X msg 500 143 16384;
#X msg 492 199 32768;
#X msg 626 147 1;
#X msg 185 98 open 86.jpg;
#N canvas 250 72 462 694 image-fft 0;
#X obj 44 88 array size dumped;
#X obj 42 180 /;
#X msg 43 204 0 \, 1 \$1;
#X obj 43 226 line~;
#X obj 43 248 *~;
#X obj 43 270 +~ 1;
#X obj 43 293 tabread4~ dumped;
#N canvas 187 462 450 300 fft 0;
#X obj 31 15 inlet~;
#X obj 31 37 *~;
#X obj 88 26 tabreceive~ hann;
#X obj 31 59 rfft~;
#X obj 31 91 *~;
#X obj 71 91 *~;
#X obj 31 123 sqrt~;
#X obj 31 169 *~;
#X obj 58 168 tabreceive~ hann;
#X obj 282 27 r blocksize;
#X obj 295 172 array define fftblock;
#X msg 296 150 resize \$1;
#X obj 30 200 tabwrite~ fftblock;
#X obj 118 78 bang~;
#X obj 212 20 inlet;
#X obj 121 109 spigot;
#X obj 123 133 t b b;
#X obj 34 250 outlet;
#X obj 308 116 switch~ 4096 1 1;
#X msg 297 62 1 \, set \$1 1 1;
#X obj 314 88 r switch;
#X obj 31 145 *~ 0.003;
#X connect 0 0 1 0;
#X connect 1 0 3 0;
#X connect 2 0 1 1;
#X connect 3 0 4 0;
#X connect 3 0 4 1;
#X connect 3 1 5 0;
#X connect 3 1 5 1;
#X connect 4 0 6 0;
#X connect 5 0 6 0;
#X connect 6 0 21 0;
#X connect 7 0 12 0;
#X connect 8 0 7 1;
#X connect 9 0 19 0;
#X connect 9 0 11 0;
#X connect 11 0 10 0;
#X connect 13 0 15 0;
#X connect 14 0 15 1;
#X connect 15 0 16 0;
#X connect 16 0 17 0;
#X connect 16 1 12 0;
#X connect 19 0 18 0;
#X connect 20 0 18 0;
#X connect 21 0 7 0;
#X restore 43 368 pd fft;
#X msg 43 160 1000 \$1;
#X obj 43 396 array get fftblock;
#X obj 129 442 list prepend;
#X msg 234 301 0;
#X obj 210 575 tabset dumpedfft;
#X obj 183 526 list;
#X msg 181 292 1;
#X obj 44 14 inlet;
#X obj 334 81 switch~;
#X obj 301 227 del 1 1 samp;
#X obj 370 624 outlet;
#X obj 301 250 t b b b;
#X obj 183 552 t b a;
#X obj 183 619 s dumedfft;
#X msg 183 596 normalize 1;
#X obj 44 36 t b b;
#X msg 166 53 1;
#X obj 44 67 del 20;
#X obj 166 75 s switch;
#X obj 333 58 r switch;
#X obj 129 464 t a a;
#X obj 43 112 t f f b f, f 10;
#X connect 0 0 29 0;
#X connect 1 0 2 0;
#X connect 2 0 3 0;
#X connect 3 0 4 0;
#X connect 4 0 5 0;
#X connect 5 0 6 0;
#X connect 6 0 7 0;
#X connect 7 0 9 0;
#X connect 8 0 1 0;
#X connect 9 0 10 0;
#X connect 10 0 28 0;
#X connect 11 0 18 0;
#X connect 11 0 7 1;
#X connect 13 0 20 0;
#X connect 14 0 18 0;
#X connect 14 0 7 1;
#X connect 15 0 23 0;
#X connect 17 0 19 0;
#X connect 19 0 11 0;
#X connect 19 1 10 1;
#X connect 19 2 13 0;
#X connect 20 0 22 0;
#X connect 20 1 12 0;
#X connect 22 0 21 0;
#X connect 23 0 25 0;
#X connect 23 1 24 0;
#X connect 24 0 26 0;
#X connect 25 0 0 0;
#X connect 27 0 16 0;
#X connect 28 0 13 1;
#X connect 28 1 10 1;
#X connect 29 0 8 0;
#X connect 29 1 4 1;
#X connect 29 2 14 0;
#X connect 29 3 17 0;
#X restore 53 462 pd image-fft;
#X obj 77 225 r bangit;
#X obj 104 397 r bangit;
#X obj 26 225 t b a;
#X obj 306 232 s bangit;
#N canvas 140 408 365 339 pix-set 0;
#X obj 162 82 bng 15 250 50 0 empty empty empty 17 7 0 10 -262144 -1
-1;
#X obj 162 104 array get dumpedfft;
#X msg 69 119 GREY;
#X obj 194 145 list length;
#X floatatom 194 167 5 0 0 0 - - -, f 5;
#X obj 194 186 sqrt;
#X floatatom 194 208 5 0 0 0 - - -, f 5;
#X msg 71 222 quality 0;
#X obj 58 250 pix_texture;
#X obj 58 71 gemhead 2;
#X obj 58 168 scale 0.9;
#X obj 58 40 tgl 15 0 empty empty empty 17 7 0 10 -262144 -1 -1 1 1
;
#X obj 71 201 loadbang;
#X obj 69 98 loadbang;
#X obj 161 26 inlet;
#X obj 57 10 inlet;
#X obj 58 273 rectangle 4 3;
#X obj 197 60 array get dumped;
#X obj 210 37 bng 15 250 50 0 empty empty empty 17 7 0 10 -262144 -1
-1;
#X obj 58 146 pix_set 128 128;
#X connect 0 0 1 0;
#X connect 1 0 3 0;
#X connect 1 0 19 1;
#X connect 2 0 19 0;
#X connect 3 0 4 0;
#X connect 4 0 5 0;
#X connect 5 0 6 0;
#X connect 7 0 8 0;
#X connect 8 0 16 0;
#X connect 9 0 19 0;
#X connect 10 0 8 0;
#X connect 11 0 9 0;
#X connect 12 0 7 0;
#X connect 13 0 2 0;
#X connect 14 0 0 0;
#X connect 15 0 11 0;
#X connect 17 0 19 1;
#X connect 18 0 17 0;
#X connect 19 0 10 0;
#X restore 58 549 pd pix-set;
#X obj 58 519 tgl 15 0 empty empty empty 17 7 0 10 -262144 -1 -1 1
1;
#X obj 115 500 sel;
#N canvas 235 368 342 333 arrays 0;
#X msg 118 118 resize \$1;
#X obj 118 139 array define dumped;
#X obj 118 51 list length;
#X obj 145 266 array define dumpedfft;
#X msg 145 243 resize \$1;
#X obj 118 75 t a a;
#X obj 118 97 change;
#X obj 145 218 change;
#X floatatom 166 174 5 0 0 0 - - -, f 5;
#X obj 31 12 inlet;
#X obj 145 196 / 2;
#X obj 31 149 tabset dumped;
#X obj 31 34 t a a;
#X connect 0 0 1 0;
#X connect 2 0 5 0;
#X connect 4 0 3 0;
#X connect 5 0 6 0;
#X connect 5 1 10 0;
#X connect 6 0 0 0;
#X connect 7 0 4 0;
#X connect 8 0 10 1;
#X connect 9 0 12 0;
#X connect 10 0 7 0;
#X connect 12 0 11 0;
#X connect 12 1 2 0;
#X restore 80 362 pd arrays;
#X obj 143 550 bng 15 250 50 0 empty empty empty 17 7 0 10 -262144
-1 -1;
#X obj 53 333 t b a;
#X obj 315 274 tgl 15 0 empty empty empty 17 7 0 10 -262144 -1 -1 1
1;
#X obj 316 295 s switch;
#X obj 26 204 pix_grey;
#X msg 149 25 color 1 1 1;
#X connect 1 0 29 0;
#X connect 3 1 49 0;
#X connect 5 0 6 0;
#X connect 9 0 10 0;
#X connect 9 1 11 0;
#X connect 10 0 52 0;
#X connect 11 0 18 0;
#X connect 12 0 13 0;
#X connect 14 0 9 0;
#X connect 15 0 3 0;
#X connect 16 0 39 0;
#X connect 17 0 44 1;
#X connect 17 0 48 0;
#X connect 18 0 12 0;
#X connect 19 0 18 1;
#X connect 20 0 7 0;
#X connect 21 0 24 0;
#X connect 22 0 24 0;
#X connect 23 0 24 0;
#X connect 25 0 24 0;
#X connect 26 0 24 0;
#X connect 27 0 28 0;
#X connect 28 0 24 0;
#X connect 29 0 2 0;
#X connect 30 0 14 0;
#X connect 32 0 43 0;
#X connect 33 0 24 0;
#X connect 34 0 14 0;
#X connect 35 0 33 0;
#X connect 36 0 24 0;
#X connect 37 0 7 1;
#X connect 38 0 14 0;
#X connect 39 0 46 0;
#X connect 40 0 15 1;
#X connect 41 0 16 1;
#X connect 42 0 15 0;
#X connect 42 1 3 0;
#X connect 45 0 44 0;
#X connect 46 0 17 0;
#X connect 49 0 16 0;
#X connect 49 1 47 0;
#X connect 50 0 51 0;
#X connect 52 0 42 0;
#X connect 53 0 2 0;
