#N canvas 523 50 716 717 10;
#X declare -stdlib Gem;
#X declare -stdlib gemvertexbuffer-original;
#X declare -stdpath list-abs;
#X obj 17 12 declare -stdlib Gem;
#X obj 17 34 loadbang;
#X obj 17 78 gemwin;
#X text 116 74 comment;
#X obj 143 250 pix_dump;
#X msg 17 56 0 \, destroy \, reset \, dimen 400 400;
#X msg 237 30 create \, 1;
#X msg 193 6 bang;
#X obj 200 251 t a a;
#X msg 216 299 resize \$1;
#X obj 216 320 array define dumped;
#X obj 337 10 declare -stdlib gemvertexbuffer-original;
#X msg 589 26 help;
#X obj 589 48 zexy;
#X obj 200 342 tabset dumped;
#X obj 216 278 list length;
#X obj 116 166 pix_grey;
#X obj 116 188 t b b a;
#X obj 275 400 array size dumped;
#X msg 275 378 bang;
#X obj 366 311 array define dumpedfft;
#X msg 366 288 resize \$1;
#X obj 505 371 bng 15 250 50 0 empty empty empty 17 7 0 10 -262144
-1 -1;
#X obj 506 430 fd_iterate;
#X obj 580 324 / 2;
#X obj 505 391 f;
#X obj 506 452 +;
#X obj 506 494 * -1;
#X obj 506 516 +;
#X obj 506 474 t f f;
#X obj 519 555 tabread4 dumpedfft;
#X obj 526 580 tabwrite dumpedfft;
#X floatatom 522 410 5 0 0 0 - - -, f 5;
#X obj 586 292 t f f;
#X msg 353 347 normalize 1;
#X obj 514 89 bng 15 250 50 0 empty empty empty 17 7 0 10 -262144 -1
-1;
#X obj 338 31 declare -stdpath list-abs;
#X msg 392 120 GREY;
#X msg 13 105 color 0 0 0;
#X obj 514 133 list length;
#X floatatom 514 155 5 0 0 0 - - -, f 5;
#X obj 514 174 sqrt;
#X floatatom 514 196 5 0 0 0 - - -, f 5;
#X msg 294 162 quality 0;
#X obj 444 76 t b b;
#X obj 110 142 t a a;
#X obj 161 139 separator;
#X obj 30 154 separator;
#X obj 32 234 pix_texture;
#X obj 32 256 rectangle 4 3;
#X obj 110 116 pix_image 86.jpg;
#X msg 130 33 buffer 2;
#X msg 212 182 bang;
#X obj 139 208 fd_spigot;
#X obj 133 296 t b a;
#X obj 48 286 fd_spigot;
#X obj 627 153 del 10;
#X obj 26 210 spigot;
#X obj 67 184 tgl 15 0 empty empty empty 17 7 0 10 -262144 -1 -1 0
1;
#X obj 344 217 square 4;
#X obj 342 193 pix_texture;
#X obj 321 62 gemhead 2;
#X obj 116 94 gemhead 4;
#X obj 366 266 / 4;
#X obj 42 631 sigmund~ -t -npeak 10 -maxfreq 5000 peaks;
#X obj 42 595 t a a;
#X floatatom 275 422 5 0 0 0 - - -, f 5;
#X obj 302 463 div 16384;
#X floatatom 302 485 5 0 0 0 - - -, f 5;
#X obj 302 504 * 16384;
#X floatatom 302 526 5 0 0 0 - - -, f 5;
#X obj 275 441 t f f;
#X obj 287 550 -;
#X floatatom 321 569 5 0 0 0 - - -, f 5;
#X msg 321 588 set \$1, f 4;
#X msg 321 610 15562;
#X floatatom 406 474 5 0 0 0 - - -, f 5;
#X floatatom 406 515 5 0 0 0 - - -, f 5;
#X obj 379 430 t f f;
#X obj 391 539 -;
#X obj 406 452 div 8192;
#X obj 406 493 * 8192;
#X floatatom 391 561 5 0 0 0 - - -, f 5;
#X floatatom 452 563 5 0 0 0 - - -, f 5;
#X msg 452 582 set \$1;
#X msg 452 604 7370;
#X msg 345 527 set \$1;
#X msg 347 547 32768;
#X msg 46 476 list dumped 8192 32768 44100 0;
#X msg 56 498 list dumped 8192 32768 44100 0;
#X msg 410 611 32768;
#X obj 410 633 + 8192;
#X floatatom 410 655 5 0 0 0 - - -, f 5;
#X msg 36 456 list dumped 16384 16384 44100 0;
#X obj 22 388 t b b b b;
#X msg 23 350 bang;
#X msg 105 353 16384;
#X obj 105 375 * 2;
#X floatatom 105 397 5 0 0 0 - - -, f 5;
#X msg 27 428 list dumped 32768 0 44100 0;
#X obj 42 653 s sigfft;
#X obj 107 595 array define sigfft 10;
#X obj 514 111 array get sigfft;
#X obj 375 155 pix_set 5 5;
#X connect 1 0 5 0;
#X connect 4 1 8 0;
#X connect 5 0 2 0;
#X connect 6 0 2 0;
#X connect 7 0 2 0;
#X connect 8 0 54 0;
#X connect 8 1 15 0;
#X connect 9 0 10 0;
#X connect 12 0 13 0;
#X connect 15 0 9 0;
#X connect 15 0 63 0;
#X connect 16 0 17 0;
#X connect 17 1 53 0;
#X connect 17 2 4 0;
#X connect 18 0 66 0;
#X connect 19 0 18 0;
#X connect 21 0 20 0;
#X connect 22 0 25 0;
#X connect 23 0 26 0;
#X connect 24 0 25 1;
#X connect 24 0 26 1;
#X connect 25 0 23 0;
#X connect 25 0 32 0;
#X connect 26 0 29 0;
#X connect 27 0 28 0;
#X connect 28 0 30 0;
#X connect 29 0 27 0;
#X connect 29 1 31 1;
#X connect 30 0 31 0;
#X connect 33 0 24 0;
#X connect 33 1 28 1;
#X connect 34 0 20 0;
#X connect 35 0 102 0;
#X connect 37 0 103 0;
#X connect 38 0 2 0;
#X connect 39 0 40 0;
#X connect 40 0 41 0;
#X connect 41 0 42 0;
#X connect 43 0 60 0;
#X connect 44 0 37 0;
#X connect 44 1 35 0;
#X connect 44 1 43 0;
#X connect 45 0 47 0;
#X connect 45 1 46 0;
#X connect 46 0 16 0;
#X connect 47 0 57 0;
#X connect 48 0 49 0;
#X connect 50 0 45 0;
#X connect 51 0 2 0;
#X connect 52 0 53 1;
#X connect 52 0 55 1;
#X connect 53 0 4 0;
#X connect 54 0 55 0;
#X connect 54 1 14 0;
#X connect 56 0 44 0;
#X connect 57 0 48 0;
#X connect 58 0 57 1;
#X connect 60 0 59 0;
#X connect 61 0 103 0;
#X connect 62 0 50 0;
#X connect 63 0 21 0;
#X connect 63 0 33 0;
#X connect 64 0 100 0;
#X connect 65 0 64 0;
#X connect 66 0 71 0;
#X connect 67 0 68 0;
#X connect 68 0 69 0;
#X connect 69 0 70 0;
#X connect 70 0 72 1;
#X connect 70 0 86 0;
#X connect 71 0 72 0;
#X connect 71 1 67 0;
#X connect 72 0 73 0;
#X connect 73 0 74 0;
#X connect 74 0 75 0;
#X connect 76 0 81 0;
#X connect 77 0 79 1;
#X connect 78 0 79 0;
#X connect 78 1 80 0;
#X connect 79 0 82 0;
#X connect 80 0 76 0;
#X connect 81 0 77 0;
#X connect 82 0 83 0;
#X connect 83 0 84 0;
#X connect 84 0 85 0;
#X connect 86 0 87 0;
#X connect 88 0 65 0;
#X connect 89 0 65 0;
#X connect 90 0 91 0;
#X connect 91 0 92 0;
#X connect 93 0 65 0;
#X connect 94 0 89 0;
#X connect 94 1 88 0;
#X connect 94 2 93 0;
#X connect 94 3 99 0;
#X connect 95 0 94 0;
#X connect 96 0 97 0;
#X connect 97 0 98 0;
#X connect 99 0 65 0;
#X connect 102 0 39 0;
#X connect 102 0 103 1;
#X connect 103 0 60 0;
