#N canvas 523 50 716 717 10;
#X declare -stdlib Gem;
#X declare -stdlib gemvertexbuffer-original;
#X obj 17 12 declare -stdlib Gem;
#X obj 17 34 loadbang;
#X obj 17 78 gemwin;
#X text 116 74 comment;
#X obj 116 94 gemhead;
#X obj 155 228 pix_dump;
#X msg 17 56 0 \, destroy \, reset \, dimen 400 400;
#X msg 237 30 create \, 1;
#X msg 130 33 buffer 1;
#X msg 249 96 bang;
#X msg 118 196 bang;
#X obj 116 115 pix_image 86.jpg;
#X msg 193 6 bang;
#X obj 200 251 t a a;
#X msg 216 299 resize \$1;
#X obj 216 320 array define dumped;
#X obj 337 10 declare -stdlib gemvertexbuffer-original;
#X obj 426 108 gemhead;
#X obj 463 342 gemvertexbuffer;
#X msg 420 81 bang;
#X msg 507 229 draw point;
#X msg 589 26 help;
#X obj 589 48 zexy;
#X obj 200 342 tabset dumped;
#X obj 216 278 list length;
#X obj 116 137 pix_grey;
#X obj 275 376 array define mult;
#X obj 34 328 array get dumped;
#X obj 76 359 array get mult;
#X obj 32 389 .;
#X obj 253 412 array define result;
#X obj 32 411 tabset result;
#X obj 116 159 t b b a;
#X obj 249 118 t b b;
#X obj 419 52 t b b b;
#X msg 482 203 position result;
#X msg 534 254 draw line;
#X obj 104 293 f 20;
#X obj 34 306 t b b f;
#X msg 296 351 const \$1;
#X msg 502 290 resize 16384;
#X msg 30 210 10;
#X obj 440 151 translate -2 1 1 0;
#X connect 1 0 6 0;
#X connect 4 0 11 0;
#X connect 5 1 13 0;
#X connect 6 0 2 0;
#X connect 7 0 2 0;
#X connect 8 0 2 0;
#X connect 9 0 33 0;
#X connect 10 0 5 0;
#X connect 11 0 25 0;
#X connect 12 0 2 0;
#X connect 13 0 23 0;
#X connect 13 1 24 0;
#X connect 14 0 15 0;
#X connect 14 0 26 0;
#X connect 14 0 30 0;
#X connect 17 0 42 0;
#X connect 19 0 17 0;
#X connect 20 0 18 0;
#X connect 21 0 22 0;
#X connect 24 0 14 0;
#X connect 25 0 32 0;
#X connect 27 0 29 0;
#X connect 28 0 29 1;
#X connect 29 0 31 0;
#X connect 32 0 41 0;
#X connect 32 1 10 0;
#X connect 32 2 5 0;
#X connect 33 0 34 0;
#X connect 33 1 4 0;
#X connect 34 1 19 0;
#X connect 34 2 35 0;
#X connect 35 0 18 0;
#X connect 36 0 18 0;
#X connect 37 0 39 0;
#X connect 38 0 27 0;
#X connect 38 1 28 0;
#X connect 38 2 37 0;
#X connect 39 0 26 0;
#X connect 40 0 18 0;
#X connect 41 0 38 0;
#X connect 42 0 18 0;
