#N canvas 518 22 1140 722 10;
#X declare -stdlib Gem;
#X obj 27 21 declare -stdlib Gem;
#X obj 27 65 gemwin;
#X obj 86 70 gemhead 1;
#X obj 59 146 pix_video;
#X obj 59 495 translate -4 1 0 0;
#X obj 57 524 pix_texture;
#X obj 57 546 square 4;
#X obj 120 373 pix_buffer_write \$0-img;
#X obj 58 397 pix_buffer_read \$0-img;
#X msg 218 311 0;
#X obj 121 347 separator;
#X obj 58 346 separator;
#X obj 58 309 t a a b;
#X obj 217 290 spigot;
#X text 210 138 capture;
#X obj 56 638 pix_buffer_read \$0-img;
#X obj 56 701 pix_dump;
#X obj 388 218 list prepend 0;
#X obj 58 210 pix_rgba;
#X obj 58 230 scale 0.5;
#X obj 58 253 pix_crop 114 114 128 128;
#X obj 218 331 t f f f;
#X msg 151 129 1;
#X obj 59 190 separator;
#X obj 232 351 t b f;
#X obj 225 680 del 33;
#X msg 119 577 0;
#X obj 118 556 spigot;
#X obj 119 597 t b f f;
#X obj 56 596 t a b;
#X obj 388 240 array define \$0-orig;
#X obj 450 111 list length;
#X msg 437 189 resize \$1;
#X obj 56 660 pix_grey;
#X obj 382 113 t b a a;
#X obj 386 195 list;
#X obj 382 145 del 33;
#X obj 62 681 del 33;
#X obj 487 216 array define \$0-fft;
#X obj 349 28 tgl 15 0 empty empty empty 17 7 0 10 -262144 -1 -1 1
1;
#X msg 352 50 \; pd dsp \$1;
#X obj 450 161 t f f;
#X msg 508 189 resize \$1;
#X obj 151 151 t f f;
#X obj 358 166 t b b;
#X obj 463 565 list;
#X obj 502 161 / 2;
#X obj 578 728 translate 4 1 0 0;
#X obj 578 750 pix_texture;
#X obj 578 772 square 4;
#X msg 384 575 GREY;
#X msg 492 444 normalize 1;
#X obj 377 628 pix_buffer_write \$0-img;
#X msg 523 547 1;
#X obj 367 448 t b b;
#X obj 277 683 del 33;
#X msg 246 724 0;
#X msg 284 724 1;
#X obj 369 270 del 33;
#X obj 354 494 pix_separator;
#X obj 377 518 separator;
#X obj 60 473 separator;
#X obj 62 122 t a b;
#X msg 243 751 save /Users/nyu/Desktop/vidfft/img/id-\$1.jpg \$1;
#X obj 243 788 spigot;
#X obj 401 707 tgl 15 0 empty empty auto_save 17 7 0 10 -262144 -1
-1 0 1;
#X obj 385 550 loadbang;
#X obj 859 445 gemhead 2;
#X obj 59 422 t a a a;
#X obj 863 473 t a b;
#X obj 863 515 pix_snap 0 0 512 512;
#X obj 865 595 pix_texture;
#X obj 890 494 spigot;
#X obj 939 392 tgl 15 0 empty empty empty 17 7 0 10 -262144 -1 -1 0
1;
#X msg 944 474 auto \$1;
#X msg 803 366 file /Users/nyu/Desktop/vidfft/img/id-\$1.mov;
#X obj 939 412 t f f f;
#X msg 993 440 record \$1;
#X msg 839 301 1;
#X obj 801 338 fd_step;
#X obj 864 635 pix_record;
#X obj 865 563 pix_flip;
#X msg 924 539 vertical;
#X msg 783 312 0;
#X obj 858 136 key;
#X obj 858 158 sel 32;
#X obj 858 180 tgl 15 0 empty empty empty 17 7 0 10 -262144 -1 -1 0
1;
#X obj 861 231 t f f;
#X obj 861 253 sel 1;
#X msg 27 43 0 \, destroy \, dimen 512 512 \, frame 25 \, create \,
1;
#X obj 418 264 array define \$0-ifft;
#X obj 523 239 array define \$0-histo;
#X obj 58 275 pix_histo \$0-histo;
#X obj 447 133 change;
#X msg 443 18 8192;
#X msg 485 20 16384;
#X obj 377 606 pix_set 64 64;
#X obj 243 811 pix_buffer \$0-img 3;
#X obj 682 559 list;
#X msg 603 569 GREY;
#X obj 596 642 pix_buffer_write \$0-img;
#X obj 596 490 pix_separator;
#X obj 596 512 separator;
#X obj 604 544 loadbang;
#X obj 703 502 array get \$0-ifft;
#X obj 492 466 s \$1-fft;
#X obj 484 508 array get \$0-fft;
#X msg 734 449 normalize 1;
#X obj 627 452 t b b;
#X obj 645 412 t b b b b;
#X obj 734 471 s \$1-ifft;
#X msg 742 541 2;
#X obj 596 600 pix_set 128 128;
#X obj 323 680 del 33;
#X msg 324 719 2;
#X obj 644 329 tgl 15 0 empty empty empty 17 7 0 10 -262144 -1 -1 0
1;
#X obj 596 622 pix_flip;
#X obj 606 374 spigot;
#X obj 442 374 spigot 1;
#X obj 652 371 == 0;
#X obj 427 412 t b b b b;
#X obj 441 350 t b b;
#X floatatom 546 29 5 0 0 0 - - -, f 5;
#X obj 546 48 s coef;
#X msg 715 715 quality 1;
#X msg 663 620 vertical;
#N canvas 66 350 444 301 fft 0;
#X obj 26 28 tabreceive~ \$0-orig;
#X obj 33 131 *~;
#X obj 63 132 *~;
#X obj 34 167 sqrt~;
#X obj 32 214 *~;
#X obj 32 236 tabsend~ \$0-fft;
#X obj 59 215 tabreceive~ hann;
#X obj 26 72 rfft~;
#X obj 373 54 bang~;
#X obj 373 76 t b b;
#X obj 373 98 timer;
#X msg 373 139 1000 \$1;
#X obj 373 161 /;
#X obj 373 202 outlet;
#X obj 171 25 switch~ 16384 1 1;
#X obj 170 4 inlet;
#X obj 196 200 tabsend~ \$0-ifft;
#X obj 192 122 rifft~;
#X obj 192 144 *~ 0.0001;
#X msg 261 93 16384;
#X obj 306 107 r coef;
#X obj 261 116 * 2;
#X msg 261 138 2 \$1;
#X obj 261 160 /;
#X obj 29 52 *~;
#X obj 56 53 tabreceive~ hann;
#X connect 0 0 24 0;
#X connect 1 0 3 0;
#X connect 2 0 3 0;
#X connect 3 0 4 0;
#X connect 4 0 5 0;
#X connect 6 0 4 1;
#X connect 7 0 1 0;
#X connect 7 0 1 1;
#X connect 7 0 17 0;
#X connect 7 1 2 0;
#X connect 7 1 2 1;
#X connect 7 1 17 1;
#X connect 8 0 9 0;
#X connect 9 0 10 0;
#X connect 9 1 10 1;
#X connect 9 1 19 0;
#X connect 10 0 11 0;
#X connect 11 0 12 0;
#X connect 12 0 13 0;
#X connect 15 0 14 0;
#X connect 17 0 18 0;
#X connect 18 0 16 0;
#X connect 19 0 21 0;
#X connect 20 0 21 1;
#X connect 21 0 22 0;
#X connect 22 0 23 0;
#X connect 23 0 18 1;
#X connect 24 0 7 0;
#X connect 25 0 24 1;
#X restore 441 313 pd fft _________;
#N canvas 0 22 353 459 hann 0;
#X obj 177 234 array define hann \$1;
#X msg 177 213 resize \$1;
#X obj 29 158 until;
#X obj 29 180 f;
#X obj 55 180 + 1;
#X msg 69 158 0;
#X obj 29 230 /;
#X obj 29 330 cos;
#X obj 29 352 * -0.5;
#X obj 29 374 + 0.5;
#X obj 29 396 tabwrite hann;
#X obj 82 25 r hann-size;
#X obj 181 18 inlet;
#X obj 181 49 t b f;
#X obj 29 20 inlet;
#X obj 29 42 sel 0;
#X obj 223 22 r hann-overlaps;
#X obj 29 202 t f b f;
#X obj 29 116 t f b f f;
#X obj 29 273 * 3.14159;
#X obj 29 252 * 2;
#X obj 29 295 * 1;
#X obj 88 58 loadbang;
#X obj 29 92 int \$1;
#X connect 1 0 0 0;
#X connect 2 0 3 0;
#X connect 3 0 4 0;
#X connect 3 0 17 0;
#X connect 4 0 3 1;
#X connect 5 0 3 1;
#X connect 6 0 20 0;
#X connect 7 0 8 0;
#X connect 8 0 9 0;
#X connect 9 0 10 0;
#X connect 11 0 23 0;
#X connect 12 0 13 0;
#X connect 13 0 23 0;
#X connect 13 1 21 1;
#X connect 14 0 15 0;
#X connect 15 1 23 0;
#X connect 16 0 13 0;
#X connect 17 0 6 0;
#X connect 17 2 10 1;
#X connect 18 0 2 0;
#X connect 18 1 5 0;
#X connect 18 2 1 0;
#X connect 18 3 6 1;
#X connect 19 0 21 0;
#X connect 20 0 19 0;
#X connect 21 0 7 0;
#X connect 22 0 23 0;
#X connect 23 0 18 0;
#X restore 447 47 pd hann;
#X obj 86 92 spigot;
#X obj 153 72 r pd;
#X obj 153 94 route dsp;
#X msg 506 56 1;
#X connect 2 0 128 0;
#X connect 3 0 23 0;
#X connect 4 0 5 0;
#X connect 5 0 6 0;
#X connect 6 0 29 0;
#X connect 8 0 68 0;
#X connect 9 0 21 0;
#X connect 10 0 7 0;
#X connect 11 0 8 0;
#X connect 12 0 11 0;
#X connect 12 1 10 0;
#X connect 12 2 13 0;
#X connect 13 0 9 0;
#X connect 15 0 33 0;
#X connect 16 1 34 0;
#X connect 17 0 30 0;
#X connect 18 0 19 0;
#X connect 19 0 20 0;
#X connect 20 0 92 0;
#X connect 21 0 8 1;
#X connect 21 1 24 0;
#X connect 21 2 13 1;
#X connect 22 0 43 0;
#X connect 23 0 18 0;
#X connect 24 0 25 0;
#X connect 24 1 7 1;
#X connect 25 0 56 0;
#X connect 26 0 28 0;
#X connect 27 0 26 0;
#X connect 28 0 37 0;
#X connect 28 1 15 1;
#X connect 28 2 27 1;
#X connect 29 0 15 0;
#X connect 29 1 27 0;
#X connect 31 0 93 0;
#X connect 32 0 30 0;
#X connect 32 0 90 0;
#X connect 33 0 16 0;
#X connect 34 0 36 0;
#X connect 34 1 35 1;
#X connect 34 2 31 0;
#X connect 35 0 17 0;
#X connect 36 0 44 0;
#X connect 37 0 16 0;
#X connect 39 0 40 0;
#X connect 41 0 32 0;
#X connect 41 1 46 0;
#X connect 42 0 38 0;
#X connect 42 0 91 0;
#X connect 43 0 27 1;
#X connect 43 1 13 1;
#X connect 44 0 126 0;
#X connect 44 0 58 0;
#X connect 44 1 35 0;
#X connect 45 0 96 1;
#X connect 46 0 42 0;
#X connect 47 0 48 0;
#X connect 48 0 49 0;
#X connect 50 0 96 0;
#X connect 51 0 105 0;
#X connect 52 0 47 0;
#X connect 53 0 52 1;
#X connect 54 0 55 0;
#X connect 54 1 45 0;
#X connect 55 0 57 0;
#X connect 56 0 63 0;
#X connect 57 0 63 0;
#X connect 58 0 126 0;
#X connect 59 0 60 0;
#X connect 60 0 96 0;
#X connect 61 0 4 0;
#X connect 62 0 3 0;
#X connect 62 1 22 0;
#X connect 63 0 64 0;
#X connect 64 0 97 0;
#X connect 65 0 64 1;
#X connect 66 0 50 0;
#X connect 67 0 69 0;
#X connect 68 0 61 0;
#X connect 68 1 59 0;
#X connect 68 2 101 0;
#X connect 69 0 70 0;
#X connect 69 1 72 0;
#X connect 70 0 81 0;
#X connect 71 0 80 0;
#X connect 72 0 70 0;
#X connect 73 0 76 0;
#X connect 74 0 80 0;
#X connect 75 0 80 0;
#X connect 76 0 72 1;
#X connect 76 1 74 0;
#X connect 76 2 77 0;
#X connect 77 0 80 0;
#X connect 78 0 79 1;
#X connect 79 0 75 0;
#X connect 81 0 71 0;
#X connect 82 0 81 0;
#X connect 83 0 79 0;
#X connect 84 0 85 0;
#X connect 85 0 86 0;
#X connect 86 0 87 0;
#X connect 87 0 88 0;
#X connect 87 1 73 0;
#X connect 88 0 78 0;
#X connect 89 0 1 0;
#X connect 92 0 12 0;
#X connect 93 0 41 0;
#X connect 94 0 127 0;
#X connect 95 0 127 0;
#X connect 96 0 52 0;
#X connect 98 0 112 1;
#X connect 99 0 112 0;
#X connect 100 0 47 0;
#X connect 101 0 102 0;
#X connect 102 0 112 0;
#X connect 103 0 99 0;
#X connect 103 0 125 0;
#X connect 104 0 98 1;
#X connect 106 0 45 1;
#X connect 107 0 110 0;
#X connect 108 0 113 0;
#X connect 108 1 98 0;
#X connect 109 0 108 0;
#X connect 109 1 104 0;
#X connect 109 2 111 0;
#X connect 109 3 107 0;
#X connect 111 0 100 1;
#X connect 112 0 116 0;
#X connect 113 0 114 0;
#X connect 114 0 63 0;
#X connect 115 0 118 1;
#X connect 115 0 119 0;
#X connect 116 0 100 0;
#X connect 117 0 109 0;
#X connect 118 0 120 0;
#X connect 119 0 117 1;
#X connect 120 0 54 0;
#X connect 120 1 106 0;
#X connect 120 2 53 0;
#X connect 120 3 51 0;
#X connect 121 0 118 0;
#X connect 121 1 117 0;
#X connect 122 0 123 0;
#X connect 124 0 48 0;
#X connect 125 0 116 0;
#X connect 126 0 121 0;
#X connect 128 0 62 0;
#X connect 129 0 130 0;
#X connect 130 0 128 1;
#X connect 131 0 127 1;
